Geist-Sans.glyphspackage
{
glyphname = quotedbl;
kernLeft = topQ;
kernRight = topQ;
layers = (
{
background = {
shapes = (
{
angle = 180;
pos = (265,1240);
ref = quotedblleft;
}
);
};
layerId = "EE2FFE84-06F1-4AFB-BBEC-60D09A436D14";
shapes = (
{
closed = 1;
nodes = (
(87,467,l),
(90,710,l),
(50,710,l),
(50,641,l),
(59,467,l)
);
},
{
closed = 1;
nodes = (
(185,467,l),
(195,640,l),
(195,710,l),
(155,710,l),
(157,467,l)
);
}
);
width = 245;
},
{
layerId = "3507EE3D-0D92-4546-A145-3A991F0A2B71";
shapes = (
{
closed = 1;
nodes = (
(167,426,l),
(171,710,l),
(35,710,l),
(35,625,l),
(60,426,l)
);
},
{
closed = 1;
nodes = (
(346,426,l),
(369,624,l),
(369,710,l),
(234,710,l),
(239,426,l)
);
}
);
width = 404;
},
{
layerId = "6C190511-B94A-4F5A-B519-D6E9DB0E7B93";
shapes = (
{
closed = 1;
nodes = (
(133,448,l),
(137,710,l),
(49,710,l),
(49,630,l),
(73,448,l)
);
},
{
closed = 1;
nodes = (
(284,448,l),
(307,630,l),
(307,710,l),
(219,710,l),
(223,448,l)
);
}
);
width = 356.16667;
}
);
metricLeft = O;
metricRight = O;
unicode = 34;
}
{
glyphname = numbersign;
layers = (
{
background = {
shapes = (
{
closed = 1;
nodes = (
(109,0,l),
(240,710,l),
(166,709,l),
(36,0,l)
);
},
{
closed = 1;
nodes = (
(315,0,l),
(446,710,l),
(372,709,l),
(242,0,l)
);
},
{
closed = 1;
nodes = (
(30,439,l),
(472,439,l),
(483,511,l),
(41,511,l)
);
},
{
closed = 1;
nodes = (
(-10,196,l),
(432,196,l),
(443,268,l),
(1,268,l)
);
}
);
};
guides = (
{
pos = (175,513);
},
{
pos = (128,267);
},
{
angle = 270;
pos = (175,513);
},
{
angle = 270;
pos = (128,267);
},
{
angle = 270;
pos = (235,447);
}
);
layerId = "EE2FFE84-06F1-4AFB-BBEC-60D09A436D14";
shapes = (
{
closed = 1;
nodes = (
(88,0,l),
(219,710,l),
(186,709,l),
(56,0,l)
);
},
{
closed = 1;
nodes = (
(295,0,l),
(426,710,l),
(393,709,l),
(263,0,l)
);
},
{
closed = 1;
nodes = (
(30,461,l),
(472,461,l),
(483,491,l),
(41,491,l)
);
},
{
closed = 1;
nodes = (
(-10,216,l),
(432,216,l),
(443,246,l),
(1,246,l)
);
}
);
width = 478;
},
{
layerId = "6C190511-B94A-4F5A-B519-D6E9DB0E7B93";
shapes = (
{
closed = 1;
nodes = (
(108,0,l),
(239,710,l),
(167,709,l),
(37,0,l)
);
},
{
closed = 1;
nodes = (
(314,0,l),
(445,710,l),
(373,709,l),
(243,0,l)
);
},
{
closed = 1;
nodes = (
(30,440,l),
(472,440,l),
(483,510,l),
(41,510,l)
);
},
{
closed = 1;
nodes = (
(-10,197,l),
(432,197,l),
(443,267,l),
(1,267,l)
);
}
);
width = 478;
},
{
layerId = "3507EE3D-0D92-4546-A145-3A991F0A2B71";
shapes = (
{
closed = 1;
nodes = (
(241,0,l),
(336,710,l),
(150,709,l),
(56,0,l)
);
},
{
closed = 1;
nodes = (
(514,0,l),
(609,710,l),
(423,709,l),
(329,0,l)
);
},
{
closed = 1;
nodes = (
(47,407,l),
(631,407,l),
(650,560,l),
(66,560,l)
);
},
{
closed = 1;
nodes = (
(12,141,l),
(596,141,l),
(615,294,l),
(30,294,l)
);
}
);
width = 663.32394;
}
);
unicode = 35;
}
{
glyphname = dollar;
layers = (
{
background = {
shapes = (
{
closed = 1;
nodes = (
(45,109,o),
(157,-12,o),
(326,-12,cs),
(460,-12,o),
(581,52,o),
(581,184,cs),
(581,311,o),
(477,357,o),
(334,398,cs),
(200,436,o),
(163,466,o),
(163,527,cs),
(163,593,o),
(222,640,o),
(308,640,cs),
(400,640,o),
(480,562,o),
(485,458,c),
(435,491,l),
(618,503,l),
(575,469,l),
(571,632,o),
(426,726,o),
(320,726,cs),
(167,726,o),
(71,649,o),
(71,527,cs),
(71,419,o),
(140,364,o),
(306,321,cs),
(427,290,o),
(489,240,o),
(489,184,cs),
(489,116,o),
(429,74,o),
(331,74,cs),
(194,74,o),
(147,144,o),
(137,269,c),
(186,236,l),
(3,224,l),
(47,256,l)
);
}
);
};
layerId = "EE2FFE84-06F1-4AFB-BBEC-60D09A436D14";
shapes = (
{
ref = S;
},
{
closed = 1;
nodes = (
(302,-91,l),
(334,-91,l),
(334,805,l),
(302,805,l)
);
}
);
width = 623;
},
{
layerId = "6C190511-B94A-4F5A-B519-D6E9DB0E7B93";
shapes = (
{
alignment = -1;
ref = S;
},
{
closed = 1;
nodes = (
(295,-91,l),
(370,-91,l),
(370,805,l),
(295,805,l)
);
}
);
width = 648.13333;
},
{
layerId = "3507EE3D-0D92-4546-A145-3A991F0A2B71";
shapes = (
{
alignment = -1;
ref = S;
},
{
closed = 1;
nodes = (
(314,-91,l),
(400,-91,l),
(400,805,l),
(314,805,l)
);
}
);
width = 699.03756;
}
);
metricLeft = S;
metricRight = S;
unicode = 36;
}
{
glyphname = percent;
layers = (
{
background = {
shapes = (
{
closed = 1;
nodes = (
(65,-20,l),
(12,-12,l),
(151,-12,l),
(84,-50,l),
(636,736,l),
(667,726,l),
(539,726,l),
(612,759,l)
);
},
{
closed = 1;
nodes = (
(216,401,o),
(266,461,o),
(266,537,cs),
(266,613,o),
(216,673,o),
(153,673,cs),
(90,673,o),
(40,613,o),
(40,537,cs),
(40,461,o),
(90,401,o),
(153,401,cs)
);
},
{
closed = 1;
nodes = (
(105,431,o),
(72,475,o),
(72,537,cs),
(72,602,o),
(105,647,o),
(153,647,cs),
(201,647,o),
(234,602,o),
(234,537,cs),
(234,475,o),
(201,431,o),
(153,431,cs)
);
},
{
closed = 1;
nodes = (
(216,401,o),
(266,461,o),
(266,537,cs),
(266,613,o),
(216,673,o),
(153,673,cs),
(90,673,o),
(40,613,o),
(40,537,cs),
(40,461,o),
(90,401,o),
(153,401,cs)
);
},
{
closed = 1;
nodes = (
(105,431,o),
(72,475,o),
(72,537,cs),
(72,602,o),
(105,647,o),
(153,647,cs),
(201,647,o),
(234,602,o),
(234,537,cs),
(234,475,o),
(201,431,o),
(153,431,cs)
);
},
{
closed = 1;
nodes = (
(602,39,o),
(652,99,o),
(652,175,cs),
(652,251,o),
(602,311,o),
(539,311,cs),
(476,311,o),
(426,251,o),
(426,175,cs),
(426,99,o),
(476,39,o),
(539,39,cs)
);
},
{
closed = 1;
nodes = (
(491,69,o),
(458,113,o),
(458,175,cs),
(458,240,o),
(491,285,o),
(539,285,cs),
(587,285,o),
(620,240,o),
(620,175,cs),
(620,113,o),
(587,69,o),
(539,69,cs)
);
},
{
closed = 1;
nodes = (
(602,39,o),
(652,99,o),
(652,175,cs),
(652,251,o),
(602,311,o),
(539,311,cs),
(476,311,o),
(426,251,o),
(426,175,cs),
(426,99,o),
(476,39,o),
(539,39,cs)
);
},
{
closed = 1;
nodes = (
(491,69,o),
(458,113,o),
(458,175,cs),
(458,240,o),
(491,285,o),
(539,285,cs),
(587,285,o),
(620,240,o),
(620,175,cs),
(620,113,o),
(587,69,o),
(539,69,cs)
);
},
{
closed = 1;
nodes = (
(65,-20,l),
(12,-12,l),
(151,-12,l),
(84,-50,l),
(636,736,l),
(667,726,l),
(539,726,l),
(612,759,l)
);
},
{
closed = 1;
nodes = (
(234,363,o),
(298,440,o),
(298,537,cs),
(298,634,o),
(234,711,o),
(153,711,cs),
(72,711,o),
(8,634,o),
(8,537,cs),
(8,440,o),
(72,363,o),
(153,363,cs)
);
},
{
closed = 1;
nodes = (
(111,441,o),
(85,478,o),
(85,537,cs),
(85,596,o),
(111,633,o),
(153,633,cs),
(195,633,o),
(222,596,o),
(222,537,cs),
(222,478,o),
(195,441,o),
(153,441,cs)
);
},
{
closed = 1;
nodes = (
(620,0,o),
(684,77,o),
(684,174,cs),
(684,271,o),
(620,348,o),
(539,348,cs),
(458,348,o),
(394,271,o),
(394,174,cs),
(394,77,o),
(458,0,o),
(539,0,cs)
);
},
{
closed = 1;
nodes = (
(497,78,o),
(471,115,o),
(471,174,cs),
(471,233,o),
(497,270,o),
(539,270,cs),
(581,270,o),
(608,233,o),
(608,174,cs),
(608,115,o),
(581,78,o),
(539,78,cs)
);
}
);
};
layerId = "EE2FFE84-06F1-4AFB-BBEC-60D09A436D14";
shapes = (
{
closed = 1;
nodes = (
(81,-12,l),
(121,-12,l),
(639,726,l),
(599,726,l)
);
},
{
closed = 1;
nodes = (
(226,438,o),
(276,498,o),
(276,574,cs),
(276,650,o),
(226,710,o),
(163,710,cs),
(100,710,o),
(50,650,o),
(50,574,cs),
(50,498,o),
(100,438,o),
(163,438,cs)
);
},
{
closed = 1;
nodes = (
(115,468,o),
(82,512,o),
(82,574,cs),
(82,639,o),
(115,680,o),
(163,680,cs),
(211,680,o),
(244,639,o),
(244,574,cs),
(244,512,o),
(211,468,o),
(163,468,cs)
);
},
{
closed = 1;
nodes = (
(612,0,o),
(662,60,o),
(662,136,cs),
(662,212,o),
(612,272,o),
(549,272,cs),
(486,272,o),
(436,212,o),
(436,136,cs),
(436,60,o),
(486,0,o),
(549,0,cs)
);
},
{
closed = 1;
nodes = (
(501,30,o),
(468,74,o),
(468,136,cs),
(468,201,o),
(501,242,o),
(549,242,cs),
(597,242,o),
(630,201,o),
(630,136,cs),
(630,74,o),
(597,30,o),
(549,30,cs)
);
}
);
width = 712;
},
{
layerId = "6C190511-B94A-4F5A-B519-D6E9DB0E7B93";
shapes = (
{
closed = 1;
nodes = (
(80,-12,l),
(175,-12,l),
(693,726,l),
(598,726,l)
);
},
{
closed = 1;
nodes = (
(271,366,o),
(335,442,o),
(335,538,cs),
(335,635,o),
(271,711,o),
(191,711,cs),
(111,711,o),
(47,635,o),
(47,538,cs),
(47,442,o),
(111,366,o),
(191,366,cs)
);
},
{
closed = 1;
nodes = (
(149,442,o),
(123,479,o),
(123,538,cs),
(123,597,o),
(149,635,o),
(191,635,cs),
(233,635,o),
(260,597,o),
(260,538,cs),
(260,479,o),
(233,442,o),
(191,442,cs)
);
},
{
closed = 1;
nodes = (
(657,0,o),
(721,76,o),
(721,173,cs),
(721,269,o),
(657,345,o),
(577,345,cs),
(497,345,o),
(433,269,o),
(433,173,cs),
(433,76,o),
(497,0,o),
(577,0,cs)
);
},
{
closed = 1;
nodes = (
(535,76,o),
(509,114,o),
(509,173,cs),
(509,232,o),
(535,269,o),
(577,269,cs),
(619,269,o),
(646,232,o),
(646,173,cs),
(646,114,o),
(619,76,o),
(577,76,cs)
);
}
);
width = 768.06667;
},
{
layerId = "3507EE3D-0D92-4546-A145-3A991F0A2B71";
shapes = (
{
closed = 1;
nodes = (
(91,-12,l),
(281,-12,l),
(799,726,l),
(609,726,l)
);
},
{
closed = 1;
nodes = (
(303,364,o),
(380,437,o),
(380,537,cs),
(380,638,o),
(303,711,o),
(207,711,cs),
(110,711,o),
(33,638,o),
(33,537,cs),
(33,437,o),
(110,364,o),
(207,364,cs)
);
},
{
closed = 1;
nodes = (
(174,450,o),
(155,483,o),
(155,537,cs),
(155,592,o),
(174,625,o),
(207,625,cs),
(240,625,o),
(259,592,o),
(259,537,cs),
(259,483,o),
(240,450,o),
(207,450,cs)
);
},
{
closed = 1;
nodes = (
(778,0,o),
(855,73,o),
(855,174,cs),
(855,274,o),
(778,347,o),
(681,347,cs),
(585,347,o),
(508,274,o),
(508,174,cs),
(508,73,o),
(585,0,o),
(681,0,cs)
);
},
{
closed = 1;
nodes = (
(648,86,o),
(630,119,o),
(630,174,cs),
(630,228,o),
(648,261,o),
(681,261,cs),
(715,261,o),
(733,228,o),
(733,174,cs),
(733,119,o),
(715,86,o),
(681,86,cs)
);
}
);
width = 887.97653;
}
);
metricLeft = o;
metricRight = o;
unicode = 37;
}
{
glyphname = ampersand;
kernLeft = ampersand;
kernRight = ampersand;
layers = (
{
associatedMasterId = "EE2FFE84-06F1-4AFB-BBEC-60D09A436D14";
layerId = "ED6EEBD0-B4D0-4FD3-8853-D40404FF21B9";
name = "25 de ene. de 23 17:22";
shapes = (
{
closed = 1;
nodes = (
(45,276,o),
(85,327,o),
(183,393,c),
(-5,633,o),
(263,821,o),
(412,673,cs),
(501,584,o),
(453,452,o),
(305,374,c),
(467,168,l),
(491,200,o),
(500,265,o),
(496,320,c),
(586,312,l),
(586,232,o),
(560,150,o),
(521,103,c),
(607,0,l),
(503,0,l),
(467,44,l),
(428,8,o),
(366,-16,o),
(297,-16,cs),
(147,-16,o),
(45,58,o),
(45,188,cs)
);
},
{
closed = 1;
nodes = (
(134,117,o),
(189,64,o),
(297,64,cs),
(337,64,o),
(386,81,o),
(408,108,c),
(237,326,l),
(193,297,o),
(134,254,o),
(134,188,cs)
);
},
{
closed = 1;
nodes = (
(295,677,o),
(124,618,o),
(254,440,c),
(347,498,o),
(397,563,o),
(352,611,cs)
);
}
);
width = 642;
},
{
background = {
shapes = (
{
closed = 1;
nodes = (
(45,256,o),
(87,321,o),
(176,380,cs),
(180,382,o),
(189,388,o),
(199,395,c),
(156,449,o),
(99,514,o),
(99,585,cs),
(99,675,o),
(158,729,o),
(241,729,cs),
(322,729,o),
(386,665,o),
(386,575,cs),
(386,505,o),
(326,443,o),
(243,390,c),
(242,390,l),
(453,122,l),
(478,157,o),
(495,200,o),
(502,247,c),
(536,242,l),
(528,186,o),
(506,135,o),
(475,94,c),
(549,0,l),
(509,0,l),
(454,70,l),
(405,19,o),
(337,-12,o),
(258,-12,cs),
(142,-12,o),
(45,64,o),
(45,178,cs)
);
},
{
closed = 1;
nodes = (
(118,306,o),
(79,252,o),
(79,178,cs),
(79,82,o),
(161,20,o),
(258,20,cs),
(329,20,o),
(390,49,o),
(433,96,c),
(216,370,ls)
);
},
{
closed = 1;
nodes = (
(133,532,o),
(175,477,o),
(225,413,c),
(311,473,o),
(352,518,o),
(352,574,cs),
(352,646,o),
(303,697,o),
(241,697,cs),
(178,697,o),
(133,656,o),
(133,584,cs)
);
}
);
};
layerId = "EE2FFE84-06F1-4AFB-BBEC-60D09A436D14";
name = Regular;
shapes = (
{
closed = 1;
nodes = (
(342,-12,o),
(410,19,o),
(459,70,c),
(514,0,l),
(554,0,l),
(480,94,l),
(511,135,o),
(533,186,o),
(541,242,c),
(507,247,l),
(500,200,o),
(483,157,o),
(458,122,c),
(248,390,l),
(331,443,o),
(391,505,o),
(391,575,cs),
(391,665,o),
(327,729,o),
(246,729,cs),
(163,729,o),
(104,675,o),
(104,585,cs),
(104,514,o),
(161,449,o),
(204,395,c),
(194,388,o),
(185,382,o),
(181,380,cs),
(92,321,o),
(50,256,o),
(50,178,cs),
(50,64,o),
(147,-12,o),
(263,-12,cs)
);
},
{
closed = 1;
nodes = (
(166,20,o),
(84,82,o),
(84,178,cs),
(84,252,o),
(123,306,o),
(221,370,cs),
(438,96,l),
(395,49,o),
(334,20,o),
(263,20,cs)
);
},
{
closed = 1;
nodes = (
(180,477,o),
(138,532,o),
(138,584,cs),
(138,656,o),
(183,697,o),
(246,697,cs),
(308,697,o),
(357,646,o),
(357,574,cs),
(357,518,o),
(316,473,o),
(230,413,c)
);
}
);
width = 584;
},
{
layerId = "6C190511-B94A-4F5A-B519-D6E9DB0E7B93";
name = Regular;
shapes = (
{
closed = 1;
nodes = (
(360,-12,o),
(423,8,o),
(462,45,c),
(499,0,l),
(600,0,l),
(515,103,l),
(554,150,o),
(579,230,o),
(580,310,c),
(492,318,l),
(495,263,o),
(486,199,o),
(462,166,c),
(298,375,l),
(368,418,o),
(412,471,o),
(430,524,cs),
(464,626,o),
(384,717,o),
(288,726,cs),
(198,734,o),
(113,666,o),
(113,562,cs),
(113,511,o),
(133,454,o),
(179,393,c),
(175,390,o),
(170,387,o),
(166,384,cs),
(77,322,o),
(40,271,o),
(40,188,cs),
(40,58,o),
(142,-12,o),
(291,-12,cs)
);
},
{
closed = 1;
nodes = (
(191,66,o),
(128,113,o),
(128,188,cs),
(128,254,o),
(186,297,o),
(232,327,cs),
(404,108,l),
(383,82,o),
(340,66,o),
(291,66,cs)
);
},
{
closed = 1;
nodes = (
(213,488,o),
(198,527,o),
(198,559,cs),
(197,606,o),
(234,645,o),
(283,642,cs),
(326,639,o),
(353,605,o),
(353,559,cs),
(353,515,o),
(313,469,o),
(248,439,c)
);
}
);
width = 620;
},
{
layerId = "3507EE3D-0D92-4546-A145-3A991F0A2B71";
name = "Ultra Black";
shapes = (
{
closed = 1;
nodes = (
(412,-12,o),
(465,0,o),
(509,21,c),
(527,0,l),
(754,0,l),
(650,118,l),
(698,170,o),
(731,240,o),
(739,315,c),
(541,334,l),
(540,308,o),
(534,279,o),
(522,260,c),
(443,356,l),
(535,401,o),
(594,457,o),
(600,529,cs),
(609,636,o),
(495,723,o),
(352,726,cs),
(219,728,o),
(110,647,o),
(110,540,cs),
(110,486,o),
(134,438,o),
(188,386,c),
(186,384,o),
(183,383,o),
(180,381,cs),
(75,325,o),
(33,272,o),
(33,194,cs),
(33,65,o),
(160,-12,o),
(358,-12,cs)
);
},
{
closed = 1;
nodes = (
(264,146,o),
(232,173,o),
(231,208,cs),
(229,237,o),
(253,261,o),
(283,278,c),
(382,160,l),
(367,152,o),
(347,146,o),
(326,146,cs)
);
},
{
closed = 1;
nodes = (
(320,485,o),
(310,505,o),
(310,523,cs),
(310,549,o),
(331,570,o),
(359,569,cs),
(385,568,o),
(400,549,o),
(400,524,cs),
(400,501,o),
(382,479,o),
(342,458,c)
);
}
);
width = 767.46009;
}
);
metricLeft = eight;
metricRight = "=eight-20";
unicode = 38;
}
{
glyphname = quotesingle;
layers = (
{
layerId = "EE2FFE84-06F1-4AFB-BBEC-60D09A436D14";
shapes = (
{
closed = 1;
nodes = (
(84,467,l),
(90,640,l),
(90,710,l),
(50,710,l),
(50,640,l),
(56,467,l)
);
}
);
width = 140;
},
{
layerId = "6C190511-B94A-4F5A-B519-D6E9DB0E7B93";
shapes = (
{
closed = 1;
nodes = (
(124,448,l),
(137,634,l),
(137,710,l),
(49,710,l),
(49,634,l),
(63,448,l)
);
}
);
width = 186.4;
},
{
layerId = "3507EE3D-0D92-4546-A145-3A991F0A2B71";
shapes = (
{
closed = 1;
nodes = (
(157,426,l),
(171,621,l),
(171,710,l),
(35,710,l),
(35,621,l),
(50,426,l)
);
}
);
width = 206.22535;
}
);
metricLeft = O;
metricRight = O;
unicode = 39;
}
{
glyphname = parenleft;
kernLeft = parenleft;
kernRight = parenleft;
layers = (
{
background = {
shapes = (
{
closed = 1;
nodes = (
(-43,423,o),
(-43,137,o),
(151,-150,c),
(231,-150,l),
(61,137,o),
(61,423,o),
(231,710,c),
(151,710,l)
);
}
);
};
layerId = "EE2FFE84-06F1-4AFB-BBEC-60D09A436D14";
shapes = (
{
closed = 1;
nodes = (
(189,-110,l),
(49,177,o),
(49,463,o),
(189,750,c),
(164,750,l),
(12,463,o),
(12,177,o),
(164,-110,c)
);
}
);
width = 219;
},
{
layerId = "3507EE3D-0D92-4546-A145-3A991F0A2B71";
shapes = (
{
closed = 1;
nodes = (
(340,-110,l),
(184,177,o),
(184,463,o),
(340,750,c),
(168,750,l),
(-9,466,o),
(-9,174,o),
(168,-110,c)
);
}
);
width = 369;
},
{
layerId = "6C190511-B94A-4F5A-B519-D6E9DB0E7B93";
shapes = (
{
closed = 1;
nodes = (
(263,-110,l),
(94,177,o),
(94,463,o),
(263,750,c),
(188,750,l),
(3,474,o),
(3,166,o),
(188,-110,c)
);
}
);
width = 290;
}
);
metricLeft = O;
metricRight = X;
unicode = 40;
}
{
glyphname = asterisk;
kernLeft = asterisk;
kernRight = asterisk;
layers = (
{
guides = (
{
pos = (238,706);
},
{
pos = (225,378);
},
{
angle = 270;
pos = (382,608);
},
{
angle = 270;
pos = (61,598);
},
{
pos = (164,706);
}
);
layerId = "EE2FFE84-06F1-4AFB-BBEC-60D09A436D14";
shapes = (
{
closed = 1;
nodes = (
(221,518,l),
(294,391,l),
(319,406,l),
(246,532,l),
(392,532,l),
(392,562,l),
(246,562,l),
(319,688,l),
(294,703,l),
(221,576,l),
(148,703,l),
(123,688,l),
(196,562,l),
(50,562,l),
(50,532,l),
(196,532,l),
(123,406,l),
(148,391,l)
);
}
);
width = 442;
},
{
associatedMasterId = "EE2FFE84-06F1-4AFB-BBEC-60D09A436D14";
guides = (
{
pos = (228,706);
},
{
pos = (215,378);
},
{
angle = 270;
pos = (372,608);
},
{
angle = 270;
pos = (51,598);
},
{
pos = (154,706);
}
);
layerId = "5C64FE3B-FF75-41D6-99E9-254AEB2DE07B";
name = "24 de feb. de 23 13:25";
shapes = (
{
closed = 1;
nodes = (
(40,562,l),
(40,532,l),
(382,532,l),
(382,562,l)
);
},
{
closed = 1;
nodes = (
(138,703,l),
(113,688,l),
(284,391,l),
(309,406,l)
);
},
{
closed = 1;
nodes = (
(138,391,l),
(309,688,l),
(284,703,l),
(113,406,l)
);
}
);
width = 422;
},
{
layerId = "3507EE3D-0D92-4546-A145-3A991F0A2B71";
shapes = (
{
closed = 1;
nodes = (
(209,446,l),
(251,367,l),
(344,421,l),
(295,497,l),
(385,494,l),
(385,601,l),
(295,597,l),
(344,673,l),
(251,727,l),
(209,648,l),
(168,727,l),
(75,673,l),
(124,597,l),
(33,601,l),
(33,494,l),
(124,497,l),
(75,421,l),
(168,367,l)
);
}
);
width = 418;
},
{
layerId = "6C190511-B94A-4F5A-B519-D6E9DB0E7B93";
shapes = (
{
closed = 1;
nodes = (
(218,488,l),
(279,384,l),
(330,414,l),
(269,518,l),
(389,518,l),
(389,577,l),
(269,577,l),
(330,680,l),
(279,710,l),
(218,606,l),
(158,710,l),
(107,680,l),
(167,577,l),
(47,577,l),
(47,518,l),
(167,518,l),
(107,414,l),
(158,384,l)
);
}
);
width = 436.2;
}
);
metricLeft = o;
metricRight = o;
unicode = 42;
}
{
glyphname = plus;
layers = (
{
layerId = "EE2FFE84-06F1-4AFB-BBEC-60D09A436D14";
shapes = (
{
closed = 1;
nodes = (
(50,270,l),
(526,270,l),
(526,300,l),
(50,300,l)
);
},
{
closed = 1;
nodes = (
(272,523,l),
(272,47,l),
(304,47,l),
(304,523,l)
);
}
);
width = 576;
},
{
layerId = "6C190511-B94A-4F5A-B519-D6E9DB0E7B93";
shapes = (
{
closed = 1;
nodes = (
(47,256,l),
(523,256,l),
(523,334,l),
(47,334,l)
);
},
{
closed = 1;
nodes = (
(246,533,l),
(246,57,l),
(324,57,l),
(324,533,l)
);
}
);
width = 570.2;
},
{
layerId = "3507EE3D-0D92-4546-A145-3A991F0A2B71";
shapes = (
{
closed = 1;
nodes = (
(33,205,l),
(509,205,l),
(509,356,l),
(33,356,l)
);
},
{
closed = 1;
nodes = (
(196,519,l),
(196,43,l),
(347,43,l),
(347,519,l)
);
}
);
width = 542;
}
);
metricLeft = o;
metricRight = o;
unicode = 43;
}
{
glyphname = comma;
kernLeft = period;
kernRight = period;
layers = (
{
background = {
shapes = (
{
closed = 1;
nodes = (
(43,108,l),
(43,33,o),
(36,-33,o),
(13,-126,c),
(62,-130,l),
(105,-41,o),
(121,32,o),
(121,108,c)
);
}
);
};
layerId = "EE2FFE84-06F1-4AFB-BBEC-60D09A436D14";
shapes = (
{
closed = 1;
nodes = (
(72,-125,l),
(112,0,l),
(80,0,l),
(50,-125,l)
);
},
{
pos = (3,0);
ref = period;
}
);
width = 162;
},
{
layerId = "6C190511-B94A-4F5A-B519-D6E9DB0E7B93";
shapes = (
{
closed = 1;
nodes = (
(103,-154,l),
(160,0,l),
(93,0,l),
(54,-154,l)
);
},
{
alignment = -1;
ref = period;
}
);
width = 207;
},
{
layerId = "3507EE3D-0D92-4546-A145-3A991F0A2B71";
shapes = (
{
closed = 1;
nodes = (
(153,-160,l),
(229,0,l),
(99,0,l),
(50,-160,l)
);
},
{
alignment = -1;
ref = period;
}
);
width = 262.26291;
}
);
metricLeft = o;
metricRight = o;
unicode = 44;
}
{
color = 4;
glyphname = hyphen;
kernLeft = hyphen;
kernRight = hyphen;
layers = (
{
background = {
shapes = (
{
closed = 1;
nodes = (
(22,232,l),
(354,232,l),
(354,312,l),
(22,312,l)
);
}
);
};
layerId = "EE2FFE84-06F1-4AFB-BBEC-60D09A436D14";
shapes = (
{
closed = 1;
nodes = (
(346,266,l),
(346,296,l),
(50,296,l),
(50,266,l)
);
}
);
width = 396;
},
{
layerId = "3507EE3D-0D92-4546-A145-3A991F0A2B71";
shapes = (
{
closed = 1;
nodes = (
(385,216,l),
(385,368,l),
(33,368,l),
(33,216,l)
);
}
);
width = 418;
},
{
layerId = "6C190511-B94A-4F5A-B519-D6E9DB0E7B93";
shapes = (
{
closed = 1;
nodes = (
(378,252,l),
(378,331,l),
(47,331,l),
(47,252,l)
);
}
);
width = 425;
}
);
metricLeft = o;
metricRight = o;
unicode = 45;
}
{
color = 4;
glyphname = slash;
kernLeft = A;
kernRight = V;
layers = (
{
layerId = "EE2FFE84-06F1-4AFB-BBEC-60D09A436D14";
shapes = (
{
closed = 1;
nodes = (
(71,-110,l),
(367,750,l),
(335,750,l),
(40,-110,l)
);
}
);
width = 432;
},
{
layerId = "3507EE3D-0D92-4546-A145-3A991F0A2B71";
shapes = (
{
closed = 1;
nodes = (
(220,-110,l),
(517,750,l),
(323,750,l),
(26,-110,l)
);
}
);
width = 550;
},
{
layerId = "6C190511-B94A-4F5A-B519-D6E9DB0E7B93";
shapes = (
{
closed = 1;
nodes = (
(120,-110,l),
(415,750,l),
(335,750,l),
(40,-110,l)
);
}
);
width = 480;
}
);
unicode = 47;
}
{
glyphname = zero;
kernLeft = O;
kernRight = O;
layers = (
{
background = {
shapes = (
{
closed = 1;
nodes = (
(521,-16,o),
(609,160,o),
(609,354,cs),
(609,549,o),
(522,726,o),
(327,726,cs),
(132,726,o),
(45,549,o),
(45,354,cs),
(45,160,o),
(133,-16,o),
(327,-16,cs)
);
},
{
closed = 1;
nodes = (
(181,66,o),
(135,208,o),
(135,354,cs),
(135,500,o),
(181,644,o),
(327,644,cs),
(473,644,o),
(519,500,o),
(519,354,cs),
(519,208,o),
(473,66,o),
(327,66,cs)
);
}
);
};
layerId = "EE2FFE84-06F1-4AFB-BBEC-60D09A436D14";
shapes = (
{
closed = 1;
nodes = (
(481,-16,o),
(583,127,o),
(583,354,cs),
(583,583,o),
(481,726,o),
(319,726,cs),
(157,726,o),
(55,583,o),
(55,354,cs),
(55,127,o),
(157,-16,o),
(319,-16,cs)
);
},
{
closed = 1;
nodes = (
(178,16,o),
(89,146,o),
(89,354,cs),
(89,563,o),
(178,694,o),
(319,694,cs),
(460,694,o),
(549,563,o),
(549,354,cs),
(549,146,o),
(460,16,o),
(319,16,cs)
);
}
);
width = 638;
},
{
layerId = "6C190511-B94A-4F5A-B519-D6E9DB0E7B93";
shapes = (
{
closed = 1;
nodes = (
(508,-16,o),
(617,127,o),
(617,354,cs),
(617,583,o),
(508,726,o),
(335,726,cs),
(163,726,o),
(54,583,o),
(54,354,cs),
(54,127,o),
(163,-16,o),
(335,-16,cs)
);
},
{
closed = 1;
nodes = (
(213,68,o),
(144,171,o),
(144,354,cs),
(144,538,o),
(213,642,o),
(335,642,cs),
(458,642,o),
(527,538,o),
(527,354,cs),
(527,171,o),
(458,68,o),
(335,68,cs)
);
}
);
width = 670.86667;
},
{
layerId = "3507EE3D-0D92-4546-A145-3A991F0A2B71";
shapes = (
{
closed = 1;
nodes = (
(561,-16,o),
(673,134,o),
(673,354,cs),
(673,574,o),
(561,726,o),
(357,726,cs),
(152,726,o),
(40,574,o),
(40,354,cs),
(40,134,o),
(152,-16,o),
(357,-16,cs)
);
},
{
closed = 1;
nodes = (
(281,141,o),
(241,214,o),
(241,354,cs),
(241,495,o),
(281,569,o),
(357,569,cs),
(432,569,o),
(472,495,o),
(472,354,cs),
(472,214,o),
(432,141,o),
(357,141,cs)
);
}
);
width = 713.34272;
}
);
metricLeft = "=O+5";
metricRight = "=O+5";
unicode = 48;
}
{
glyphname = one;
kernLeft = one;
kernRight = H;
layers = (
{
background = {
shapes = (
{
closed = 1;
nodes = (
(65,560,l),
(189,560,l),
(189,0,l),
(221,0,l),
(221,710,l),
(196,710,l),
(196,630,o),
(160,590,o),
(87,590,c),
(65,590,l)
);
}
);
};
layerId = "EE2FFE84-06F1-4AFB-BBEC-60D09A436D14";
shapes = (
{
closed = 1;
nodes = (
(50,564,l),
(199,564,l),
(199,0,l),
(231,0,l),
(231,710,l),
(206,710,l),
(206,627,o),
(173,590,o),
(97,590,c),
(50,590,l)
);
}
);
width = 351;
},
{
associatedMasterId = "EE2FFE84-06F1-4AFB-BBEC-60D09A436D14";
background = {
shapes = (
{
closed = 1;
nodes = (
(46,512,l),
(192,620,l),
(160,647,l),
(160,0,l),
(246,0,l),
(246,710,l),
(172,710,l),
(-8,577,l)
);
}
);
};
layerId = "62097056-30DA-40BF-A05F-DD5AA35C8A84";
name = "4 de may. de 23 16:51";
shapes = (
{
closed = 1;
nodes = (
(25,590,l),
(143,678,l),
(143,0,l),
(173,0,l),
(173,710,l),
(137,710,l),
(5,611,l)
);
}
);
width = 269;
},
{
layerId = "6C190511-B94A-4F5A-B519-D6E9DB0E7B93";
shapes = (
{
closed = 1;
nodes = (
(40,526,l),
(187,526,l),
(187,0,l),
(274,0,l),
(274,710,l),
(206,710,l),
(206,633,o),
(173,600,o),
(97,600,c),
(40,600,l)
);
}
);
width = 383.86667;
},
{
layerId = "3507EE3D-0D92-4546-A145-3A991F0A2B71";
shapes = (
{
closed = 1;
nodes = (
(36,428,l),
(196,428,l),
(196,0,l),
(390,0,l),
(390,710,l),
(238,710,l),
(236,611,o),
(188,564,o),
(90,564,c),
(36,564,l)
);
}
);
width = 492.42723;
}
);
unicode = 49;
}
{
glyphname = two;
kernLeft = two;
kernRight = two;
layers = (
{
background = {
shapes = (
{
closed = 1;
nodes = (
(117,493,l),
(138,622,o),
(215,694,o),
(331,694,cs),
(438,694,o),
(513,624,o),
(513,524,cs),
(513,463,o),
(465,401,o),
(351,326,cs),
(329,312,o),
(308,297,o),
(286,283,cs),
(130,180,o),
(70,101,o),
(70,0,c),
(545,0,l),
(545,30,l),
(106,30,l),
(108,97,o),
(184,184,o),
(318,269,cs),
(335,280,o),
(353,291,o),
(370,302,cs),
(484,375,o),
(547,454,o),
(547,524,cs),
(547,643,o),
(458,726,o),
(331,726,cs),
(197,726,o),
(101,637,o),
(83,496,c)
);
}
);
};
layerId = "EE2FFE84-06F1-4AFB-BBEC-60D09A436D14";
shapes = (
{
closed = 1;
nodes = (
(117,493,l),
(138,622,o),
(215,694,o),
(331,694,cs),
(438,694,o),
(513,624,o),
(513,524,cs),
(513,459,o),
(466,390,o),
(336,317,cs),
(156,216,o),
(70,116,o),
(70,0,c),
(545,0,l),
(545,30,l),
(106,30,l),
(109,110,o),
(204,208,o),
(355,293,cs),
(483,365,o),
(547,448,o),
(547,524,cs),
(547,643,o),
(458,726,o),
(331,726,cs),
(197,726,o),
(101,637,o),
(83,496,c)
);
}
);
width = 617;
},
{
associatedMasterId = "EE2FFE84-06F1-4AFB-BBEC-60D09A436D14";
background = {
shapes = (
{
closed = 1;
nodes = (
(178,279,o),
(34,219,o),
(34,0,c),
(533,0,l),
(533,82,l),
(88,82,l),
(133,45,l),
(124,147,o),
(198,200,o),
(293,260,cs),
(345,293,ls),
(442,355,o),
(527,420,o),
(527,524,cs),
(527,640,o),
(431,726,o),
(301,726,cs),
(139,726,o),
(40,599,o),
(43,440,c),
(-4,501,l),
(176,489,l),
(131,434,l),
(131,545,o),
(191,644,o),
(301,644,cs),
(379,644,o),
(437,599,o),
(437,524,cs),
(437,469,o),
(379,417,o),
(316,374,cs),
(251,329,ls)
);
}
);
};
layerId = "E03EF528-E65A-45B9-8975-F20273B8112F";
name = "24 de feb. de 23 11:29";
shapes = (
{
closed = 1;
nodes = (
(87,493,l),
(108,622,o),
(185,694,o),
(301,694,cs),
(408,694,o),
(483,624,o),
(483,524,cs),
(483,463,o),
(435,401,o),
(321,326,cs),
(256,283,ls),
(100,180,o),
(40,101,o),
(40,0,c),
(515,0,l),
(515,30,l),
(64,30,l),
(76,25,l),
(74,93,o),
(151,182,o),
(288,269,cs),
(340,302,ls),
(454,375,o),
(517,454,o),
(517,524,cs),
(517,643,o),
(428,726,o),
(301,726,cs),
(167,726,o),
(71,637,o),
(53,496,c)
);
}
);
width = 557;
},
{
layerId = "6C190511-B94A-4F5A-B519-D6E9DB0E7B93";
shapes = (
{
closed = 1;
nodes = (
(163,492,l),
(182,588,o),
(241,642,o),
(327,642,cs),
(407,642,o),
(463,593,o),
(463,524,cs),
(463,469,o),
(408,414,o),
(333,366,cs),
(212,289,o),
(60,212,o),
(60,0,c),
(559,0,l),
(559,84,l),
(167,84,l),
(170,155,o),
(307,252,o),
(364,284,cs),
(471,351,o),
(553,421,o),
(553,524,cs),
(553,640,o),
(457,726,o),
(327,726,cs),
(185,726,o),
(92,629,o),
(73,498,c)
);
}
);
width = 618.93333;
},
{
layerId = "3507EE3D-0D92-4546-A145-3A991F0A2B71";
shapes = (
{
closed = 1;
nodes = (
(256,463,l),
(265,532,o),
(296,569,o),
(346,569,cs),
(390,569,o),
(421,541,o),
(421,504,cs),
(421,464,o),
(382,439,o),
(311,398,cs),
(150,313,o),
(57,206,o),
(57,0,c),
(621,0,l),
(621,157,l),
(293,157,l),
(299,207,o),
(414,266,o),
(441,280,cs),
(531,329,o),
(621,387,o),
(621,501,cs),
(621,632,o),
(507,726,o),
(346,726,cs),
(179,726,o),
(63,621,o),
(56,474,c)
);
}
);
width = 675.7277;
}
);
unicode = 50;
}
{
glyphname = three;
kernLeft = three;
kernRight = three;
layers = (
{
background = {
shapes = (
{
closed = 1;
nodes = (
(248,336,l),
(302,337,l),
(385,337,o),
(474,297,o),
(474,202,cs),
(474,107,o),
(385,66,o),
(302,66,cs),
(228,66,o),
(135,109,o),
(140,210,c),
(187,192,l),
(6,180,l),
(51,207,l),
(44,70,o),
(155,-16,o),
(302,-16,cs),
(455,-16,o),
(564,65,o),
(564,195,cs),
(564,303,o),
(488,377,o),
(356,396,c),
(357,373,l),
(478,390,o),
(540,447,o),
(540,541,cs),
(540,643,o),
(445,726,o),
(302,726,cs),
(184,726,o),
(79,657,o),
(74,535,c),
(39,557,l),
(225,545,l),
(161,535,l),
(165,621,o),
(246,644,o),
(302,644,cs),
(379,644,o),
(452,614,o),
(452,541,cs),
(452,449,o),
(368,418,o),
(302,418,c),
(248,419,l)
);
}
);
};
layerId = "EE2FFE84-06F1-4AFB-BBEC-60D09A436D14";
shapes = (
{
closed = 1;
nodes = (
(445,-16,o),
(549,71,o),
(549,195,cs),
(549,296,o),
(467,378,o),
(341,395,c),
(341,372,l),
(453,386,o),
(525,457,o),
(525,541,cs),
(525,650,o),
(434,726,o),
(300,726,cs),
(195,726,o),
(108,659,o),
(90,564,c),
(124,561,l),
(139,639,o),
(211,694,o),
(300,694,cs),
(414,694,o),
(491,631,o),
(491,541,cs),
(491,456,o),
(411,397,o),
(297,397,c),
(231,398,l),
(231,367,l),
(297,368,l),
(425,368,o),
(515,298,o),
(515,199,cs),
(515,88,o),
(425,16,o),
(297,16,cs),
(182,16,o),
(101,81,o),
(91,177,c),
(60,174,l),
(70,61,o),
(164,-16,o),
(297,-16,cs)
);
}
);
width = 609;
},
{
layerId = "6C190511-B94A-4F5A-B519-D6E9DB0E7B93";
shapes = (
{
closed = 1;
nodes = (
(455,-16,o),
(563,71,o),
(563,195,cs),
(563,297,o),
(494,370,o),
(372,392,c),
(371,375,l),
(481,395,o),
(539,451,o),
(539,541,cs),
(539,650,o),
(441,726,o),
(301,726,cs),
(182,726,o),
(89,655,o),
(76,555,c),
(166,549,l),
(175,606,o),
(227,642,o),
(301,642,cs),
(392,642,o),
(448,603,o),
(448,541,cs),
(448,449,o),
(368,418,o),
(301,419,c),
(246,420,l),
(246,335,l),
(301,336,l),
(385,338,o),
(473,297,o),
(473,202,cs),
(473,106,o),
(385,68,o),
(301,68,cs),
(230,68,o),
(147,102,o),
(139,189,c),
(50,183,l),
(56,66,o),
(159,-16,o),
(301,-16,cs)
);
}
);
width = 612.86667;
},
{
layerId = "3507EE3D-0D92-4546-A145-3A991F0A2B71";
shapes = (
{
closed = 1;
nodes = (
(525,-16,o),
(637,63,o),
(637,195,cs),
(637,296,o),
(569,364,o),
(447,384,c),
(447,384,l),
(554,403,o),
(613,458,o),
(613,541,cs),
(613,657,o),
(510,726,o),
(335,726,cs),
(178,726,o),
(67,645,o),
(53,519,c),
(249,510,l),
(253,545,o),
(283,569,o),
(330,569,cs),
(381,569,o),
(412,543,o),
(412,506,cs),
(412,457,o),
(375,432,o),
(330,433,cs),
(265,434,l),
(265,314,l),
(330,315,ls),
(387,316,o),
(435,286,o),
(435,230,cs),
(435,173,o),
(390,141,o),
(338,141,cs),
(292,141,o),
(248,174,o),
(242,231,c),
(43,225,l),
(50,78,o),
(165,-16,o),
(335,-16,cs)
);
}
);
width = 679.76526;
}
);
unicode = 51;
}
{
glyphname = four;
kernLeft = four;
kernRight = four;
layers = (
{
background = {
shapes = (
{
closed = 1;
nodes = (
(342,710,l),
(425,745,l),
(20,207,l),
(38,287,l),
(38,145,l),
(407,145,l),
(407,0,l),
(493,0,l),
(493,145,l),
(574,145,l),
(574,227,l),
(493,227,l),
(493,710,l)
);
},
{
closed = 1;
nodes = (
(449,638,l),
(407,648,l),
(407,227,l),
(69,227,l),
(99,172,l)
);
}
);
};
layerId = "EE2FFE84-06F1-4AFB-BBEC-60D09A436D14";
shapes = (
{
closed = 1;
nodes = (
(475,0,l),
(475,165,l),
(560,165,l),
(560,195,l),
(475,195,l),
(475,710,l),
(443,710,l),
(60,191,l),
(60,165,l),
(443,165,l),
(443,0,l)
);
},
{
closed = 1;
nodes = (
(443,657,l),
(443,195,l),
(102,195,l)
);
}
);
width = 620;
},
{
layerId = "3507EE3D-0D92-4546-A145-3A991F0A2B71";
shapes = (
{
closed = 1;
nodes = (
(593,0,l),
(593,117,l),
(667,117,l),
(667,274,l),
(593,274,l),
(593,710,l),
(350,710,l),
(43,273,l),
(43,117,l),
(396,117,l),
(396,0,l)
);
},
{
closed = 1;
nodes = (
(396,478,l),
(396,274,l),
(250,274,l)
);
}
);
width = 709.83568;
},
{
layerId = "6C190511-B94A-4F5A-B519-D6E9DB0E7B93";
shapes = (
{
closed = 1;
nodes = (
(504,0,l),
(504,146,l),
(585,146,l),
(585,230,l),
(504,230,l),
(504,710,l),
(412,710,l),
(50,230,l),
(50,146,l),
(418,146,l),
(418,0,l)
);
},
{
closed = 1;
nodes = (
(418,578,l),
(418,230,l),
(156,230,l)
);
}
);
width = 635.46667;
}
);
unicode = 52;
}
{
glyphname = five;
kernLeft = five;
kernRight = five;
layers = (
{
background = {
shapes = (
{
closed = 1;
nodes = (
(94,710,l),
(35,279,l),
(6,310,l),
(176,310,l),
(129,295,l),
(141,349,o),
(204,389,o),
(276,389,cs),
(376,389,o),
(443,324,o),
(443,228,cs),
(443,136,o),
(377,66,o),
(289,66,cs),
(173,66,o),
(103,136,o),
(116,237,c),
(160,192,l),
(-19,180,l),
(27,227,l),
(15,83,o),
(117,-16,o),
(279,-16,cs),
(434,-16,o),
(533,80,o),
(533,228,cs),
(533,370,o),
(436,471,o),
(299,471,cs),
(216,471,o),
(130,434,o),
(117,359,c),
(133,359,l),
(175,673,l),
(123,628,l),
(485,628,l),
(485,710,l)
);
}
);
};
layerId = "EE2FFE84-06F1-4AFB-BBEC-60D09A436D14";
shapes = (
{
closed = 1;
nodes = (
(446,-16,o),
(543,85,o),
(543,228,cs),
(543,371,o),
(445,471,o),
(306,471,cs),
(222,471,o),
(133,418,o),
(104,348,c),
(111,334,l),
(160,680,l),
(497,680,l),
(497,710,l),
(132,710,l),
(78,327,l),
(117,327,l),
(152,396,o),
(225,439,o),
(306,439,cs),
(425,439,o),
(509,352,o),
(509,228,cs),
(509,104,o),
(429,16,o),
(316,16,cs),
(200,16,o),
(117,78,o),
(102,176,c),
(70,173,l),
(82,62,o),
(181,-16,o),
(309,-16,cs)
);
}
);
width = 613;
},
{
layerId = "6C190511-B94A-4F5A-B519-D6E9DB0E7B93";
shapes = (
{
closed = 1;
nodes = (
(461,-16,o),
(565,85,o),
(565,228,cs),
(565,370,o),
(468,473,o),
(331,473,cs),
(258,473,o),
(182,441,o),
(157,385,c),
(167,363,l),
(203,626,l),
(517,626,l),
(517,710,l),
(127,710,l),
(72,311,l),
(165,311,l),
(188,361,o),
(243,391,o),
(309,391,cs),
(411,391,o),
(475,328,o),
(475,228,cs),
(475,134,o),
(412,68,o),
(318,68,cs),
(233,68,o),
(161,112,o),
(150,189,c),
(60,183,l),
(70,66,o),
(176,-16,o),
(318,-16,cs)
);
}
);
width = 625.56667;
},
{
layerId = "3507EE3D-0D92-4546-A145-3A991F0A2B71";
shapes = (
{
closed = 1;
nodes = (
(537,-16,o),
(648,89,o),
(648,250,cs),
(648,380,o),
(558,473,o),
(430,473,cs),
(353,473,o),
(279,438,o),
(251,386,c),
(252,380,l),
(276,553,l),
(599,553,l),
(599,710,l),
(113,710,l),
(59,284,l),
(250,284,l),
(261,318,o),
(302,342,o),
(347,342,cs),
(407,342,o),
(448,301,o),
(448,244,cs),
(448,186,o),
(407,142,o),
(350,142,cs),
(305,142,o),
(262,170,o),
(249,212,c),
(53,204,l),
(65,73,o),
(189,-16,o),
(357,-16,cs)
);
}
);
width = 700.58216;
}
);
unicode = 53;
}
{
glyphname = six;
kernLeft = O;
kernRight = six;
layers = (
{
background = {
shapes = (
{
closed = 1;
nodes = (
(243,484,o),
(182,442,o),
(147,373,c),
(154,502,o),
(189,644,o),
(337,644,cs),
(417,644,o),
(472,598,o),
(487,520,c),
(433,547,l),
(610,562,l),
(573,524,l),
(550,655,o),
(456,726,o),
(337,726,cs),
(253,726,o),
(161,681,o),
(109,575,cs),
(80,516,o),
(64,430,o),
(64,313,cs),
(64,202,o),
(89,112,o),
(140,59,cs),
(192,6,o),
(255,-16,o),
(317,-16,cs),
(464,-16,o),
(568,81,o),
(568,236,cs),
(568,386,o),
(471,484,o),
(317,484,cs)
);
},
{
closed = 1;
nodes = (
(478,135,o),
(411,66,o),
(317,66,cs),
(221,66,o),
(154,136,o),
(156,236,cs),
(157,333,o),
(224,402,o),
(317,402,cs),
(411,402,o),
(478,333,o),
(478,236,cs)
);
}
);
};
layerId = "EE2FFE84-06F1-4AFB-BBEC-60D09A436D14";
shapes = (
{
closed = 1;
nodes = (
(453,-16,o),
(548,88,o),
(548,236,cs),
(548,376,o),
(453,474,o),
(317,474,cs),
(214,474,o),
(123,410,o),
(91,309,c),
(100,292,l),
(104,562,o),
(192,694,o),
(343,694,cs),
(410,694,o),
(477,638,o),
(505,559,c),
(538,563,l),
(506,663,o),
(428,726,o),
(337,726,cs),
(142,726,o),
(70,512,o),
(70,313,cs),
(70,194,o),
(90,119,o),
(135,65,cs),
(179,13,o),
(245,-16,o),
(317,-16,cs)
);
},
{
closed = 1;
nodes = (
(195,16,o),
(104,113,o),
(107,236,cs),
(108,357,o),
(194,442,o),
(317,442,cs),
(433,442,o),
(514,357,o),
(514,236,cs),
(514,107,o),
(433,16,o),
(317,16,cs)
);
}
);
width = 618;
},
{
layerId = "6C190511-B94A-4F5A-B519-D6E9DB0E7B93";
shapes = (
{
closed = 1;
nodes = (
(460,-16,o),
(563,81,o),
(563,236,cs),
(563,382,o),
(468,484,o),
(328,484,cs),
(236,484,o),
(164,433,o),
(130,344,c),
(146,340,l),
(151,534,o),
(218,642,o),
(333,642,cs),
(399,642,o),
(449,609,o),
(470,551,c),
(560,558,l),
(528,667,o),
(441,726,o),
(333,726,cs),
(128,726,o),
(60,526,o),
(60,313,cs),
(60,202,o),
(85,112,o),
(136,60,cs),
(188,6,o),
(251,-16,o),
(313,-16,cs)
);
},
{
closed = 1;
nodes = (
(219,68,o),
(152,138,o),
(154,236,cs),
(155,332,o),
(225,399,o),
(322,399,cs),
(411,399,o),
(473,332,o),
(473,236,cs),
(473,138,o),
(408,68,o),
(315,68,cs)
);
}
);
width = 623.8;
},
{
layerId = "3507EE3D-0D92-4546-A145-3A991F0A2B71";
shapes = (
{
closed = 1;
nodes = (
(506,-16,o),
(632,69,o),
(632,230,cs),
(632,366,o),
(536,457,o),
(395,457,cs),
(324,457,o),
(263,427,o),
(223,362,c),
(225,361,l),
(226,482,o),
(270,573,o),
(362,573,cs),
(408,573,o),
(438,555,o),
(455,519,c),
(628,528,l),
(603,652,o),
(493,726,o),
(367,726,cs),
(152,726,o),
(53,544,o),
(53,321,cs),
(53,225,o),
(77,144,o),
(123,87,cs),
(176,20,o),
(252,-16,o),
(340,-16,cs)
);
},
{
closed = 1;
nodes = (
(284,124,o),
(244,170,o),
(245,230,cs),
(246,289,o),
(285,334,o),
(345,334,cs),
(402,334,o),
(440,289,o),
(440,230,cs),
(440,170,o),
(401,124,o),
(343,124,cs)
);
}
);
width = 685;
}
);
unicode = 54;
}
{
glyphname = seven;
kernLeft = T;
kernRight = seven;
layers = (
{
background = {
shapes = (
{
closed = 1;
nodes = (
(52,628,l),
(507,628,l),
(483,656,l),
(327,468,o),
(224,244,o),
(224,0,c),
(314,0,l),
(314,232,o),
(415,445,o),
(557,628,c),
(557,710,l),
(52,710,l)
);
}
);
};
layerId = "EE2FFE84-06F1-4AFB-BBEC-60D09A436D14";
shapes = (
{
closed = 1;
nodes = (
(268,0,l),
(268,240,o),
(365,500,o),
(519,672,c),
(519,710,l),
(50,710,l),
(50,680,l),
(487,680,l),
(332,505,o),
(234,243,o),
(234,0,c)
);
}
);
width = 569;
},
{
layerId = "6C190511-B94A-4F5A-B519-D6E9DB0E7B93";
shapes = (
{
closed = 1;
nodes = (
(302,0,l),
(302,232,o),
(402,447,o),
(544,629,c),
(544,710,l),
(40,710,l),
(40,626,l),
(446,626,l),
(304,445,o),
(212,230,o),
(212,0,c)
);
}
);
width = 584.46667;
},
{
layerId = "3507EE3D-0D92-4546-A145-3A991F0A2B71";
shapes = (
{
closed = 1;
nodes = (
(388,0,l),
(375,249,o),
(448,441,o),
(571,574,c),
(571,710,l),
(33,710,l),
(33,553,l),
(402,553,l),
(269,405,o),
(190,203,o),
(190,0,c)
);
}
);
width = 603.52582;
}
);
unicode = 55;
}
{
glyphname = eight;
kernLeft = eight;
kernRight = eight;
layers = (
{
background = {
shapes = (
{
closed = 1;
nodes = (
(448,-16,o),
(557,65,o),
(557,195,cs),
(557,293,o),
(493,366,o),
(389,396,c),
(390,373,l),
(472,399,o),
(523,448,o),
(523,531,cs),
(523,643,o),
(428,726,o),
(295,726,cs),
(163,726,o),
(67,643,o),
(67,531,cs),
(67,448,o),
(117,399,o),
(202,373,c),
(202,396,l),
(97,367,o),
(33,294,o),
(33,195,cs),
(33,65,o),
(142,-16,o),
(295,-16,cs)
);
},
{
closed = 1;
nodes = (
(212,66,o),
(123,107,o),
(123,202,cs),
(123,297,o),
(212,338,o),
(295,338,cs),
(378,338,o),
(467,297,o),
(467,202,cs),
(467,107,o),
(378,66,o),
(295,66,cs)
);
},
{
closed = 1;
nodes = (
(228,418,o),
(155,449,o),
(155,531,cs),
(155,614,o),
(227,644,o),
(295,644,cs),
(363,644,o),
(435,614,o),
(435,531,cs),
(435,449,o),
(362,418,o),
(295,418,cs)
);
}
);
};
layerId = "EE2FFE84-06F1-4AFB-BBEC-60D09A436D14";
shapes = (
{
closed = 1;
nodes = (
(447,-16,o),
(550,71,o),
(550,195,cs),
(550,283,o),
(490,355,o),
(394,387,c),
(469,415,o),
(516,472,o),
(516,535,cs),
(516,647,o),
(427,726,o),
(300,726,cs),
(173,726,o),
(84,647,o),
(84,535,cs),
(84,473,o),
(131,416,o),
(207,387,c),
(110,356,o),
(50,284,o),
(50,195,cs),
(50,71,o),
(153,-16,o),
(300,-16,cs)
);
},
{
closed = 1;
nodes = (
(167,16,o),
(84,86,o),
(84,200,cs),
(84,297,o),
(173,368,o),
(300,368,cs),
(427,368,o),
(516,297,o),
(516,200,cs),
(516,86,o),
(433,16,o),
(300,16,cs)
);
},
{
closed = 1;
nodes = (
(193,403,o),
(118,458,o),
(118,537,cs),
(118,630,o),
(193,694,o),
(300,694,cs),
(407,694,o),
(482,630,o),
(482,537,cs),
(482,458,o),
(407,403,o),
(300,403,cs)
);
}
);
width = 600;
},
{
layerId = "6C190511-B94A-4F5A-B519-D6E9DB0E7B93";
shapes = (
{
closed = 1;
nodes = (
(455,-16,o),
(564,65,o),
(564,195,cs),
(564,282,o),
(512,350,o),
(427,385,c),
(491,413,o),
(530,459,o),
(530,531,cs),
(530,643,o),
(435,726,o),
(302,726,cs),
(170,726,o),
(74,643,o),
(74,531,cs),
(74,459,o),
(112,413,o),
(177,385,c),
(92,351,o),
(40,283,o),
(40,195,cs),
(40,65,o),
(149,-16,o),
(302,-16,cs)
);
},
{
closed = 1;
nodes = (
(197,68,o),
(130,120,o),
(130,202,cs),
(130,283,o),
(197,335,o),
(302,335,cs),
(407,335,o),
(473,283,o),
(473,202,cs),
(473,120,o),
(407,68,o),
(302,68,cs)
);
},
{
closed = 1;
nodes = (
(217,421,o),
(164,464,o),
(164,531,cs),
(164,599,o),
(217,642,o),
(302,642,cs),
(387,642,o),
(439,599,o),
(439,531,cs),
(439,464,o),
(387,421,o),
(302,421,cs)
);
}
);
width = 603.86667;
},
{
layerId = "3507EE3D-0D92-4546-A145-3A991F0A2B71";
shapes = (
{
closed = 1;
nodes = (
(556,-16,o),
(677,65,o),
(677,195,cs),
(677,287,o),
(616,359,o),
(507,385,c),
(595,408,o),
(643,461,o),
(643,531,cs),
(643,649,o),
(535,726,o),
(355,726,cs),
(176,726,o),
(67,649,o),
(67,531,cs),
(67,460,o),
(115,407,o),
(204,385,c),
(94,360,o),
(33,288,o),
(33,195,cs),
(33,65,o),
(155,-16,o),
(355,-16,cs)
);
},
{
closed = 1;
nodes = (
(283,141,o),
(234,176,o),
(234,227,cs),
(234,280,o),
(283,316,o),
(355,316,cs),
(427,316,o),
(476,280,o),
(476,227,cs),
(476,176,o),
(427,141,o),
(355,141,cs)
);
},
{
closed = 1;
nodes = (
(300,440,o),
(266,465,o),
(266,504,cs),
(266,544,o),
(300,569,o),
(355,569,cs),
(410,569,o),
(444,544,o),
(444,504,cs),
(444,465,o),
(410,440,o),
(355,440,cs)
);
}
);
width = 710.2723;
}
);
unicode = 56;
}
{
glyphname = nine;
kernLeft = nine;
kernRight = O;
layers = (
{
background = {
shapes = (
{
closed = 1;
nodes = (
(377,214,o),
(438,257,o),
(473,328,c),
(466,169,o),
(416,66,o),
(303,66,cs),
(227,66,o),
(177,93,o),
(154,140,c),
(66,133,l),
(98,36,o),
(184,-16,o),
(303,-16,cs),
(365,-16,o),
(442,13,o),
(488,81,cs),
(544,163,o),
(560,272,o),
(560,379,cs),
(560,503,o),
(529,599,o),
(478,653,cs),
(426,707,o),
(365,726,o),
(303,726,cs),
(162,726,o),
(52,613,o),
(52,458,cs),
(52,314,o),
(149,214,o),
(303,214,cs)
);
},
{
closed = 1;
nodes = (
(142,571,o),
(209,642,o),
(303,642,cs),
(399,642,o),
(466,570,o),
(464,468,cs),
(463,369,o),
(396,298,o),
(303,298,cs),
(209,298,o),
(142,369,o),
(142,468,cs)
);
}
);
};
layerId = "EE2FFE84-06F1-4AFB-BBEC-60D09A436D14";
shapes = (
{
closed = 1;
nodes = (
(492,-16,o),
(548,202,o),
(548,397,cs),
(548,516,o),
(528,591,o),
(482,645,cs),
(439,697,o),
(374,726,o),
(301,726,cs),
(165,726,o),
(70,622,o),
(70,474,cs),
(70,334,o),
(165,236,o),
(301,236,cs),
(404,236,o),
(495,300,o),
(527,401,c),
(515,415,l),
(526,171,o),
(444,16,o),
(297,16,cs),
(218,16,o),
(153,58,o),
(129,126,c),
(96,122,l),
(123,37,o),
(201,-16,o),
(297,-16,cs)
);
},
{
closed = 1;
nodes = (
(185,268,o),
(104,353,o),
(104,474,cs),
(104,603,o),
(185,694,o),
(301,694,cs),
(422,694,o),
(514,597,o),
(511,474,cs),
(510,353,o),
(424,268,o),
(301,268,cs)
);
}
);
width = 618;
},
{
layerId = "6C190511-B94A-4F5A-B519-D6E9DB0E7B93";
shapes = (
{
closed = 1;
nodes = (
(496,-16,o),
(563,185,o),
(563,397,cs),
(563,508,o),
(539,598,o),
(488,651,cs),
(436,704,o),
(373,726,o),
(311,726,cs),
(164,726,o),
(60,629,o),
(60,474,cs),
(60,328,o),
(155,226,o),
(296,226,cs),
(388,226,o),
(460,277,o),
(494,366,c),
(477,370,l),
(473,177,o),
(406,68,o),
(291,68,cs),
(231,68,o),
(183,96,o),
(160,144,c),
(69,137,l),
(104,38,o),
(188,-16,o),
(291,-16,cs)
);
},
{
closed = 1;
nodes = (
(213,311,o),
(150,378,o),
(150,474,cs),
(150,572,o),
(216,642,o),
(309,642,cs),
(405,642,o),
(471,572,o),
(469,474,cs),
(468,378,o),
(399,311,o),
(302,311,cs)
);
}
);
width = 623.8;
},
{
layerId = "3507EE3D-0D92-4546-A145-3A991F0A2B71";
shapes = (
{
closed = 1;
nodes = (
(556,-16,o),
(639,149,o),
(639,368,cs),
(639,472,o),
(615,556,o),
(571,614,cs),
(516,689,o),
(435,726,o),
(345,726,cs),
(182,726,o),
(53,632,o),
(53,467,cs),
(53,324,o),
(159,233,o),
(292,233,cs),
(399,233,o),
(445,283,o),
(473,326,c),
(471,328,l),
(470,217,o),
(431,137,o),
(332,137,cs),
(294,137,o),
(263,154,o),
(246,185,c),
(70,175,l),
(105,55,o),
(200,-16,o),
(339,-16,cs)
);
},
{
closed = 1;
nodes = (
(280,356,o),
(245,408,o),
(245,470,cs),
(245,532,o),
(281,586,o),
(342,586,cs),
(404,586,o),
(441,533,o),
(440,470,cs),
(439,408,o),
(403,356,o),
(340,356,cs)
);
}
);
width = 692.1831;
}
);
unicode = 57;
}
{
glyphname = equal;
layers = (
{
background = {
shapes = (
{
closed = 1;
nodes = (
(70,342,l),
(546,342,l),
(546,422,l),
(70,422,l)
);
},
{
closed = 1;
nodes = (
(70,136,l),
(546,136,l),
(546,216,l),
(70,216,l)
);
}
);
};
guides = (
{
pos = (379,422);
},
{
pos = (366,136);
}
);
layerId = "EE2FFE84-06F1-4AFB-BBEC-60D09A436D14";
shapes = (
{
closed = 1;
nodes = (
(572,377,l),
(572,407,l),
(96,407,l),
(96,377,l)
);
},
{
closed = 1;
nodes = (
(572,171,l),
(572,201,l),
(96,201,l),
(96,171,l)
);
}
);
width = 668;
},
{
layerId = "3507EE3D-0D92-4546-A145-3A991F0A2B71";
shapes = (
{
closed = 1;
nodes = (
(538,336,l),
(538,487,l),
(62,487,l),
(62,336,l)
);
},
{
closed = 1;
nodes = (
(538,92,l),
(538,243,l),
(62,243,l),
(62,92,l)
);
}
);
width = 599.73709;
},
{
layerId = "6C190511-B94A-4F5A-B519-D6E9DB0E7B93";
shapes = (
{
closed = 1;
nodes = (
(568,363,l),
(568,441,l),
(92,441,l),
(92,363,l)
);
},
{
closed = 1;
nodes = (
(568,157,l),
(568,235,l),
(92,235,l),
(92,157,l)
);
}
);
width = 660.26667;
}
);
metricLeft = H;
metricRight = H;
unicode = 61;
}
{
glyphname = greater;
layers = (
{
background = {
shapes = (
{
closed = 1;
nodes = (
(50,515,l),
(474,307,l),
(474,317,l),
(50,109,l),
(50,75,l),
(495,293,l),
(495,331,l),
(50,549,l)
);
}
);
};
guides = (
{
angle = 270;
pos = (32,460);
}
);
layerId = "EE2FFE84-06F1-4AFB-BBEC-60D09A436D14";
shapes = (
{
closed = 1;
nodes = (
(495,273,l),
(495,311,l),
(50,529,l),
(50,495,l),
(474,287,l),
(474,297,l),
(50,89,l),
(50,55,l)
);
}
);
width = 545;
},
{
layerId = "6C190511-B94A-4F5A-B519-D6E9DB0E7B93";
shapes = (
{
closed = 1;
nodes = (
(504,236,l),
(504,342,l),
(49,545,l),
(49,459,l),
(442,283,l),
(442,295,l),
(49,119,l),
(49,33,l)
);
}
);
width = 552.73333;
},
{
layerId = "3507EE3D-0D92-4546-A145-3A991F0A2B71";
shapes = (
{
closed = 1;
nodes = (
(498,205,l),
(498,384,l),
(35,573,l),
(35,412,l),
(435,249,l),
(435,340,l),
(35,178,l),
(35,16,l)
);
}
);
width = 532.81221;
}
);
metricLeft = O;
metricRight = O;
unicode = 62;
}
{
glyphname = at;
layers = (
{
background = {
shapes = (
{
closed = 1;
nodes = (
(620,9,l),
(310,-106,o),
(74,19,o),
(84,300,cs),
(92,511,o),
(272,678,o),
(492,678,cs),
(695,678,o),
(842,523,o),
(842,325,cs),
(842,86,o),
(674,106,o),
(648,175,cs),
(638,202,o),
(638,238,o),
(640,260,cs),
(658,490,l),
(628,490,l),
(617,364,l),
(623,368,l),
(601,445,o),
(532,499,o),
(453,499,cs),
(348,499,o),
(253,407,o),
(240,290,cs),
(226,173,o),
(301,81,o),
(412,81,cs),
(515,81,o),
(595,141,o),
(619,237,c),
(611,218,l),
(611,47,o),
(880,34,o),
(876,334,cs),
(873,543,o),
(715,710,o),
(494,710,cs),
(253,710,o),
(58,530,o),
(50,300,cs),
(38,-8,o),
(309,-144,o),
(630,-21,c)
);
},
{
closed = 1;
nodes = (
(322,111,o),
(262,180,o),
(272,290,cs),
(282,389,o),
(363,467,o),
(458,467,cs),
(553,467,o),
(618,383,o),
(609,282,cs),
(599,184,o),
(521,111,o),
(429,111,cs)
);
}
);
};
layerId = "EE2FFE84-06F1-4AFB-BBEC-60D09A436D14";
shapes = (
{
closed = 1;
nodes = (
(620,9,l),
(542,-20,o),
(469,-34,o),
(403,-34,cs),
(212,-34,o),
(84,83,o),
(84,283,cs),
(84,502,o),
(266,678,o),
(492,678,cs),
(695,678,o),
(842,523,o),
(842,325,cs),
(842,178,o),
(779,129,o),
(724,129,cs),
(662,129,o),
(639,171,o),
(639,236,cs),
(639,245,o),
(639,253,o),
(640,260,cs),
(658,490,l),
(628,490,l),
(617,364,l),
(623,368,l),
(601,445,o),
(532,499,o),
(453,499,cs),
(340,499,o),
(238,392,o),
(238,262,cs),
(238,159,o),
(310,81,o),
(412,81,cs),
(515,81,o),
(595,141,o),
(619,237,c),
(611,218,l),
(611,142,o),
(664,97,o),
(723,97,cs),
(795,97,o),
(876,165,o),
(876,327,cs),
(876,539,o),
(718,710,o),
(494,710,cs),
(246,710,o),
(50,520,o),
(50,280,cs),
(50,61,o),
(198,-66,o),
(404,-66,cs),
(474,-66,o),
(550,-51,o),
(630,-21,c)
);
},
{
closed = 1;
nodes = (
(330,111,o),
(271,170,o),
(271,267,cs),
(271,376,o),
(356,467,o),
(458,467,cs),
(547,467,o),
(610,393,o),
(610,301,cs),
(610,193,o),
(527,111,o),
(429,111,cs)
);
}
);
width = 926;
},
{
background = {
shapes = (
{
closed = 1;
nodes = (
(679,62,l),
(403,-40,o),
(196,65,o),
(208,300,cs),
(217,461,o),
(355,579,o),
(537,579,cs),
(711,579,o),
(821,470,o),
(812,311,cs),
(806,211,o),
(756,167,o),
(724,184,cs),
(700,188,o),
(693,228,o),
(698,289,cs),
(715,490,l),
(609,490,l),
(602,414,l),
(630,409,l),
(619,467,o),
(567,507,o),
(497,507,cs),
(370,507,o),
(286,411,o),
(275,290,cs),
(263,175,o),
(331,85,o),
(459,85,cs),
(535,85,o),
(594,131,o),
(609,205,c),
(598,200,l),
(609,29,o),
(921,47,o),
(953,308,cs),
(984,534,o),
(805,710,o),
(545,710,cs),
(275,710,o),
(51,530,o),
(36,300,cs),
(14,-24,o),
(341,-202,o),
(708,-66,c)
);
},
{
closed = 1;
nodes = (
(446,192,o),
(425,236,o),
(429,290,cs),
(434,346,o),
(463,390,o),
(510,390,cs),
(557,390,o),
(579,346,o),
(575,290,cs),
(570,236,o),
(541,192,o),
(494,192,cs)
);
}
);
};
layerId = "3507EE3D-0D92-4546-A145-3A991F0A2B71";
shapes = (
{
closed = 1;
nodes = (
(679,62,l),
(608,36,o),
(541,23,o),
(481,23,cs),
(317,23,o),
(208,118,o),
(208,281,cs),
(208,452,o),
(348,579,o),
(537,579,cs),
(704,579,o),
(813,478,o),
(813,329,cs),
(813,231,o),
(771,180,o),
(738,180,cs),
(704,180,o),
(696,221,o),
(696,255,cs),
(696,265,o),
(697,277,o),
(698,289,cs),
(715,490,l),
(609,490,l),
(602,414,l),
(630,409,l),
(619,467,o),
(567,507,o),
(497,507,cs),
(361,507,o),
(274,398,o),
(274,264,cs),
(274,162,o),
(341,85,o),
(459,85,cs),
(535,85,o),
(594,131,o),
(609,205,c),
(598,200,l),
(603,127,o),
(662,89,o),
(731,89,cs),
(856,89,o),
(956,195,o),
(956,358,cs),
(956,560,o),
(785,710,o),
(545,710,cs),
(273,710,o),
(35,527,o),
(35,269,cs),
(35,38,o),
(220,-112,o),
(464,-112,cs),
(541,-112,o),
(623,-97,o),
(708,-66,c)
);
},
{
closed = 1;
nodes = (
(450,192,o),
(429,229,o),
(429,277,cs),
(429,339,o),
(460,390,o),
(510,390,cs),
(553,390,o),
(575,353,o),
(575,303,cs),
(575,243,o),
(545,192,o),
(494,192,cs)
);
}
);
width = 991;
},
{
background = {
shapes = (
{
closed = 1;
nodes = (
(619,12,l),
(331,-94,o),
(112,33,o),
(122,300,cs),
(129,489,o),
(290,637,o),
(491,637,cs),
(666,637,o),
(799,497,o),
(793,325,cs),
(788,174,o),
(686,115,o),
(647,175,cs),
(635,192,o),
(638,238,o),
(640,260,cs),
(658,490,l),
(585,490,l),
(578,407,l),
(588,417,l),
(574,467,o),
(520,499,o),
(450,499,cs),
(322,499,o),
(251,399,o),
(239,290,cs),
(226,180,o),
(283,81,o),
(411,81,cs),
(486,81,o),
(560,127,o),
(577,183,c),
(572,173,l),
(584,34,o),
(856,30,o),
(865,330,cs),
(872,543,o),
(709,710,o),
(493,710,cs),
(253,710,o),
(57,530,o),
(49,300,cs),
(37,-17,o),
(309,-183,o),
(636,-58,c)
);
},
{
closed = 1;
nodes = (
(338,141,o),
(309,214,o),
(316,290,cs),
(325,369,o),
(367,441,o),
(459,441,cs),
(550,441,o),
(580,368,o),
(573,290,cs),
(565,215,o),
(522,141,o),
(431,141,cs)
);
}
);
};
layerId = "6C190511-B94A-4F5A-B519-D6E9DB0E7B93";
shapes = (
{
closed = 1;
nodes = (
(619,10,l),
(569,-12,o),
(499,-30,o),
(416,-30,cs),
(234,-30,o),
(121,68,o),
(121,252,cs),
(121,480,o),
(267,640,o),
(490,640,cs),
(689,640,o),
(793,518,o),
(793,340,cs),
(793,201,o),
(736,148,o),
(690,148,cs),
(652,148,o),
(638,173,o),
(638,201,cs),
(638,225,o),
(639,251,o),
(640,260,cs),
(658,490,l),
(585,490,l),
(578,407,l),
(588,417,l),
(574,467,o),
(520,500,o),
(450,500,cs),
(322,500,o),
(234,394,o),
(234,260,cs),
(234,162,o),
(294,80,o),
(410,80,cs),
(485,80,o),
(560,129,o),
(585,188,c),
(570,180,l),
(574,118,o),
(619,82,o),
(682,82,cs),
(765,82,o),
(865,156,o),
(865,343,cs),
(865,551,o),
(722,710,o),
(493,710,cs),
(241,710,o),
(49,530,o),
(49,250,cs),
(49,16,o),
(202,-100,o),
(414,-100,cs),
(498,-100,o),
(570,-86,o),
(636,-58,c)
);
},
{
closed = 1;
nodes = (
(346,142,o),
(316,202,o),
(316,270,cs),
(316,359,o),
(368,438,o),
(458,438,cs),
(541,438,o),
(574,381,o),
(574,311,cs),
(574,229,o),
(529,142,o),
(430,142,cs)
);
}
);
width = 914;
}
);
metricLeft = O;
metricRight = O;
unicode = 64;
}
{
glyphname = B;
kernLeft = b;
kernRight = B;
layers = (
{
background = {
shapes = (
{
closed = 1;
nodes = (
(344,0,ls),
(499,0,o),
(586,72,o),
(586,201,cs),
(586,305,o),
(511,370,o),
(391,370,c),
(392,364,l),
(488,364,o),
(556,426,o),
(556,513,cs),
(556,645,o),
(472,710,o),
(304,710,cs),
(79,710,l),
(79,0,l)
);
},
{
closed = 1;
nodes = (
(167,318,l),
(344,318,ls),
(440,318,o),
(494,276,o),
(494,201,cs),
(494,127,o),
(440,86,o),
(344,86,cs),
(167,86,l)
);
},
{
closed = 1;
nodes = (
(167,624,l),
(304,624,ls),
(411,624,o),
(464,587,o),
(464,513,cs),
(464,443,o),
(407,404,o),
(304,404,cs),
(167,404,l)
);
}
);
};
layerId = "EE2FFE84-06F1-4AFB-BBEC-60D09A436D14";
shapes = (
{
closed = 1;
nodes = (
(353,0,ls),
(507,0,o),
(583,63,o),
(583,189,cs),
(583,294,o),
(504,360,o),
(378,360,c),
(378,354,l),
(481,354,o),
(553,423,o),
(553,520,cs),
(553,647,o),
(473,710,o),
(313,710,cs),
(96,710,l),
(96,0,l)
);
},
{
closed = 1;
nodes = (
(128,339,l),
(353,339,ls),
(473,339,o),
(549,281,o),
(549,189,cs),
(549,83,o),
(484,30,o),
(353,30,cs),
(128,30,l)
);
},
{
closed = 1;
nodes = (
(128,680,l),
(313,680,ls),
(451,680,o),
(519,627,o),
(519,520,cs),
(519,423,o),
(445,369,o),
(313,369,cs),
(128,369,l)
);
}
);
width = 638;
},
{
layerId = "3507EE3D-0D92-4546-A145-3A991F0A2B71";
shapes = (
{
closed = 1;
nodes = (
(370,0,ls),
(573,0,o),
(675,68,o),
(675,201,cs),
(675,300,o),
(617,354,o),
(498,366,c),
(498,368,l),
(594,380,o),
(645,430,o),
(645,513,cs),
(645,651,o),
(541,710,o),
(330,710,cs),
(62,710,l),
(62,0,l)
);
},
{
closed = 1;
nodes = (
(258,297,l),
(377,297,ls),
(435,297,o),
(479,274,o),
(479,223,cs),
(479,172,o),
(434,150,o),
(377,150,cs),
(258,150,l)
);
},
{
closed = 1;
nodes = (
(258,560,l),
(352,560,ls),
(409,560,o),
(449,540,o),
(449,492,cs),
(449,446,o),
(408,425,o),
(352,425,cs),
(258,425,l)
);
}
);
width = 717.94836;
},
{
layerId = "6C190511-B94A-4F5A-B519-D6E9DB0E7B93";
shapes = (
{
closed = 1;
nodes = (
(376,0,ls),
(531,0,o),
(618,72,o),
(618,201,cs),
(618,305,o),
(543,370,o),
(422,370,c),
(423,364,l),
(525,364,o),
(588,421,o),
(588,513,cs),
(588,645,o),
(504,710,o),
(336,710,cs),
(92,710,l),
(92,0,l)
);
},
{
closed = 1;
nodes = (
(178,319,l),
(376,319,ls),
(473,319,o),
(528,276,o),
(528,201,cs),
(528,126,o),
(473,84,o),
(376,84,cs),
(178,84,l)
);
},
{
closed = 1;
nodes = (
(178,626,l),
(336,626,ls),
(444,626,o),
(498,588,o),
(498,513,cs),
(498,442,o),
(440,403,o),
(336,403,cs),
(178,403,l)
);
}
);
width = 679.56667;
}
);
metricLeft = H;
metricRight = R;
unicode = 66;
}
{
glyphname = D;
kernLeft = b;
kernRight = O;
layers = (
{
anchors = (
{
name = bottom;
pos = (349,0);
},
{
name = top;
pos = (349,710);
}
);
background = {
shapes = (
{
closed = 1;
nodes = (
(52,0,l),
(278,0,ls),
(479,0,o),
(614,151,o),
(614,354,cs),
(614,560,o),
(478,710,o),
(272,710,cs),
(52,710,l)
);
},
{
closed = 1;
nodes = (
(140,624,l),
(272,624,ls),
(454,624,o),
(522,506,o),
(522,354,cs),
(522,203,o),
(453,86,o),
(272,86,cs),
(140,86,l)
);
}
);
};
layerId = "EE2FFE84-06F1-4AFB-BBEC-60D09A436D14";
shapes = (
{
closed = 1;
nodes = (
(304,0,ls),
(511,0,o),
(626,127,o),
(626,354,cs),
(626,582,o),
(508,710,o),
(298,710,cs),
(96,710,l),
(96,0,l)
);
},
{
closed = 1;
nodes = (
(128,680,l),
(298,680,ls),
(487,680,o),
(592,563,o),
(592,354,cs),
(592,146,o),
(487,30,o),
(298,30,cs),
(128,30,l)
);
}
);
width = 676;
},
{
anchors = (
{
name = bottom;
pos = (333,0);
},
{
name = top;
pos = (327,710);
}
);
layerId = "3507EE3D-0D92-4546-A145-3A991F0A2B71";
shapes = (
{
closed = 1;
nodes = (
(329,0,ls),
(563,0,o),
(694,127,o),
(694,354,cs),
(694,582,o),
(561,710,o),
(323,710,cs),
(62,710,l),
(62,0,l)
);
},
{
closed = 1;
nodes = (
(258,553,l),
(323,553,ls),
(442,553,o),
(496,491,o),
(496,355,cs),
(496,219,o),
(442,157,o),
(323,157,cs),
(258,157,l)
);
}
);
width = 729.32394;
},
{
anchors = (
{
name = bottom;
pos = (329,0);
},
{
name = top;
pos = (323,710);
}
);
layerId = "6C190511-B94A-4F5A-B519-D6E9DB0E7B93";
shapes = (
{
closed = 1;
nodes = (
(318,0,ls),
(533,0,o),
(653,127,o),
(653,354,cs),
(653,582,o),
(530,710,o),
(312,710,cs),
(92,710,l),
(92,0,l)
);
},
{
closed = 1;
nodes = (
(178,626,l),
(312,626,ls),
(479,626,o),
(563,536,o),
(563,354,cs),
(563,174,o),
(479,84,o),
(312,84,cs),
(178,84,l)
);
}
);
width = 702.1;
}
);
metricLeft = H;
metricRight = O;
unicode = 68;
}
{
glyphname = E;
kernLeft = H;
kernRight = E;
layers = (
{
anchors = (
{
name = bottom;
pos = (306,0);
},
{
name = ogonek;
pos = (523,0);
},
{
name = top;
pos = (306,710);
}
);
background = {
shapes = (
{
closed = 1;
nodes = (
(70,0,l),
(525,0,l),
(525,86,l),
(158,86,l),
(158,314,l),
(505,314,l),
(505,398,l),
(158,398,l),
(158,624,l),
(517,624,l),
(517,710,l),
(70,710,l)
);
}
);
};
layerId = "EE2FFE84-06F1-4AFB-BBEC-60D09A436D14";
shapes = (
{
closed = 1;
nodes = (
(96,0,l),
(523,0,l),
(523,30,l),
(128,30,l),
(128,339,l),
(503,339,l),
(503,369,l),
(128,369,l),
(128,680,l),
(515,680,l),
(515,710,l),
(96,710,l)
);
}
);
width = 573;
},
{
anchors = (
{
name = bottom;
pos = (319,0);
},
{
name = ogonek;
pos = (546,0);
},
{
name = top;
pos = (317,711);
}
);
layerId = "6C190511-B94A-4F5A-B519-D6E9DB0E7B93";
shapes = (
{
closed = 1;
nodes = (
(92,0,l),
(546,0,l),
(546,84,l),
(178,84,l),
(178,315,l),
(526,315,l),
(526,397,l),
(178,397,l),
(178,626,l),
(538,626,l),
(538,710,l),
(92,710,l)
);
}
);
width = 602.96667;
},
{
anchors = (
{
name = bottom;
pos = (325,0);
},
{
name = ogonek;
pos = (596,0);
},
{
name = top;
pos = (325,711);
}
);
layerId = "3507EE3D-0D92-4546-A145-3A991F0A2B71";
shapes = (
{
closed = 1;
nodes = (
(62,0,l),
(596,0,l),
(596,157,l),
(258,157,l),
(258,278,l),
(576,278,l),
(576,434,l),
(258,434,l),
(258,553,l),
(588,553,l),
(588,710,l),
(62,710,l)
);
}
);
width = 633.87793;
}
);
metricLeft = H;
unicode = 69;
}
{
glyphname = G;
kernLeft = O;
kernRight = G;
layers = (
{
anchors = (
{
name = bottom;
pos = (354,0);
},
{
name = top;
pos = (354,710);
}
);
background = {
shapes = (
{
pos = (-2,0);
ref = C;
}
);
};
layerId = "EE2FFE84-06F1-4AFB-BBEC-60D09A436D14";
shapes = (
{
closed = 1;
nodes = (
(620,330,l),
(354,330,l),
(354,300,l),
(586,300,l),
(576,126,o),
(486,16,o),
(354,16,cs),
(188,16,o),
(84,146,o),
(84,354,cs),
(84,563,o),
(188,694,o),
(354,694,cs),
(468,694,o),
(550,616,o),
(583,477,c),
(616,481,l),
(583,639,o),
(482,726,o),
(354,726,cs),
(167,726,o),
(50,583,o),
(50,354,cs),
(50,127,o),
(167,-16,o),
(354,-16,cs),
(474,-16,o),
(564,58,o),
(589,177,c),
(583,195,l),
(588,0,l),
(620,0,l)
);
}
);
width = 675;
},
{
anchors = (
{
name = bottom;
pos = (370,0);
},
{
name = top;
pos = (370,710);
}
);
layerId = "6C190511-B94A-4F5A-B519-D6E9DB0E7B93";
shapes = (
{
closed = 1;
nodes = (
(654,359,l),
(370,359,l),
(370,275,l),
(571,275,l),
(563,158,o),
(494,68,o),
(370,68,cs),
(209,68,o),
(139,201,o),
(139,354,cs),
(139,508,o),
(208,642,o),
(370,642,cs),
(473,642,o),
(537,582,o),
(561,486,c),
(651,492,l),
(620,632,o),
(521,726,o),
(370,726,cs),
(165,726,o),
(49,561,o),
(49,354,cs),
(49,148,o),
(166,-16,o),
(370,-16,cs),
(475,-16,o),
(572,51,o),
(591,143,c),
(580,161,l),
(591,0,l),
(654,0,l)
);
}
);
width = 707.86667;
},
{
anchors = (
{
name = bottom;
pos = (390,0);
},
{
name = top;
pos = (392,710);
}
);
layerId = "3507EE3D-0D92-4546-A145-3A991F0A2B71";
shapes = (
{
closed = 1;
nodes = (
(714,377,l),
(385,377,l),
(385,246,l),
(513,246,l),
(498,180,o),
(457,141,o),
(387,141,cs),
(287,141,o),
(236,226,o),
(236,354,cs),
(236,483,o),
(286,569,o),
(387,569,cs),
(451,569,o),
(493,530,o),
(509,459,c),
(712,467,l),
(677,631,o),
(560,726,o),
(392,726,cs),
(178,726,o),
(35,568,o),
(35,354,cs),
(35,140,o),
(178,-16,o),
(377,-16,cs),
(494,-16,o),
(581,40,o),
(607,130,c),
(589,134,l),
(601,0,l),
(714,0,l)
);
}
);
width = 753.93427;
}
);
metricLeft = O;
metricRight = "=O+5";
unicode = 71;
}
{
glyphname = H;
kernLeft = b;
kernRight = d;
layers = (
{
anchors = (
{
name = top;
pos = (338,710);
}
);
background = {
shapes = (
{
closed = 1;
nodes = (
(160,0,l),
(160,349,l),
(115,314,l),
(549,314,l),
(504,349,l),
(504,0,l),
(592,0,l),
(592,710,l),
(504,710,l),
(504,365,l),
(549,400,l),
(115,400,l),
(160,365,l),
(160,710,l),
(72,710,l),
(72,0,l)
);
}
);
};
layerId = "EE2FFE84-06F1-4AFB-BBEC-60D09A436D14";
shapes = (
{
closed = 1;
nodes = (
(128,0,l),
(128,359,l),
(119,349,l),
(556,349,l),
(548,359,l),
(548,0,l),
(580,0,l),
(580,710,l),
(548,710,l),
(548,370,l),
(556,379,l),
(119,379,l),
(128,370,l),
(128,710,l),
(96,710,l),
(96,0,l)
);
}
);
width = 676;
},
{
anchors = (
{
name = top;
pos = (363,710);
}
);
layerId = "3507EE3D-0D92-4546-A145-3A991F0A2B71";
shapes = (
{
closed = 1;
nodes = (
(258,0,l),
(258,335,l),
(175,279,l),
(552,279,l),
(469,335,l),
(469,0,l),
(665,0,l),
(665,710,l),
(469,710,l),
(469,379,l),
(552,436,l),
(175,436,l),
(258,379,l),
(258,710,l),
(62,710,l),
(62,0,l)
);
}
);
width = 726.723;
},
{
anchors = (
{
name = top;
pos = (356,710);
}
);
layerId = "6C190511-B94A-4F5A-B519-D6E9DB0E7B93";
shapes = (
{
closed = 1;
nodes = (
(178,0,l),
(178,349,l),
(134,315,l),
(579,315,l),
(535,349,l),
(535,0,l),
(621,0,l),
(621,710,l),
(535,710,l),
(535,365,l),
(579,399,l),
(134,399,l),
(178,365,l),
(178,710,l),
(92,710,l),
(92,0,l)
);
}
);
width = 713;
}
);
unicode = 72;
}
{
glyphname = I;
kernLeft = b;
kernRight = d;
layers = (
{
anchors = (
{
name = bottom;
pos = (112,0);
},
{
name = ogonek;
pos = (128,0);
},
{
name = top;
pos = (112,710);
}
);
layerId = "EE2FFE84-06F1-4AFB-BBEC-60D09A436D14";
shapes = (
{
closed = 1;
nodes = (
(96,0,l),
(128,0,l),
(128,710,l),
(96,710,l)
);
}
);
width = 224;
},
{
anchors = (
{
name = bottom;
pos = (135,0);
},
{
name = ogonek;
pos = (178,0);
},
{
name = top;
pos = (135,710);
}
);
layerId = "6C190511-B94A-4F5A-B519-D6E9DB0E7B93";
shapes = (
{
closed = 1;
nodes = (
(92,0,l),
(178,0,l),
(178,710,l),
(92,710,l)
);
}
);
width = 270.4;
},
{
anchors = (
{
name = bottom;
pos = (160,0);
},
{
name = ogonek;
pos = (258,0);
},
{
name = top;
pos = (160,710);
}
);
layerId = "3507EE3D-0D92-4546-A145-3A991F0A2B71";
shapes = (
{
closed = 1;
nodes = (
(62,0,l),
(258,0,l),
(258,710,l),
(62,710,l)
);
}
);
width = 320.39437;
}
);
metricLeft = H;
metricRight = H;
unicode = 73;
}
{
glyphname = J;
kernLeft = J;
kernRight = U;
layers = (
{
anchors = (
{
name = top;
pos = (473,710);
}
);
background = {
shapes = (
{
closed = 1;
nodes = (
(27,230,l),
(28,86,o),
(121,-16,o),
(253,-16,cs),
(393,-16,o),
(481,86,o),
(481,248,cs),
(481,710,l),
(393,710,l),
(393,248,ls),
(393,134,o),
(343,70,o),
(253,70,cs),
(167,70,o),
(118,130,o),
(117,238,c)
);
}
);
};
layerId = "EE2FFE84-06F1-4AFB-BBEC-60D09A436D14";
shapes = (
{
closed = 1;
nodes = (
(408,-16,o),
(489,86,o),
(489,248,cs),
(489,710,l),
(457,710,l),
(457,248,ls),
(457,101,o),
(388,16,o),
(279,16,cs),
(178,16,o),
(106,107,o),
(105,236,c),
(71,233,l),
(72,87,o),
(158,-16,o),
(279,-16,cs)
);
}
);
width = 570;
},
{
anchors = (
{
name = top;
pos = (502,710);
}
);
layerId = "3507EE3D-0D92-4546-A145-3A991F0A2B71";
shapes = (
{
closed = 1;
nodes = (
(482,-16,o),
(600,96,o),
(600,260,cs),
(600,710,l),
(403,710,l),
(403,260,ls),
(403,182,o),
(374,141,o),
(318,141,cs),
(263,141,o),
(234,186,o),
(233,275,c),
(37,267,l),
(38,100,o),
(151,-16,o),
(312,-16,cs)
);
}
);
width = 646.58216;
},
{
anchors = (
{
name = top;
pos = (478,710);
}
);
layerId = "6C190511-B94A-4F5A-B519-D6E9DB0E7B93";
shapes = (
{
closed = 1;
nodes = (
(432,-16,o),
(520,86,o),
(520,248,cs),
(520,710,l),
(434,710,l),
(434,248,ls),
(434,133,o),
(383,68,o),
(293,68,cs),
(206,68,o),
(156,129,o),
(155,238,c),
(67,232,l),
(68,86,o),
(161,-16,o),
(293,-16,cs)
);
}
);
width = 597.06667;
}
);
metricLeft = "=U-10";
metricRight = U;
unicode = 74;
}
{
glyphname = L;
kernLeft = H;
kernRight = L;
layers = (
{
anchors = (
{
name = bottom;
pos = (303,0);
},
{
name = top;
pos = (112,710);
}
);
background = {
shapes = (
{
ref = E;
}
);
};
layerId = "EE2FFE84-06F1-4AFB-BBEC-60D09A436D14";
shapes = (
{
closed = 1;
nodes = (
(510,0,l),
(510,30,l),
(121,30,l),
(128,21,l),
(128,710,l),
(96,710,l),
(96,0,l)
);
}
);
width = 550;
},
{
anchors = (
{
name = bottom;
pos = (313,0);
},
{
name = top;
pos = (135,710);
}
);
layerId = "6C190511-B94A-4F5A-B519-D6E9DB0E7B93";
shapes = (
{
closed = 1;
nodes = (
(533,0,l),
(533,84,l),
(135,84,l),
(178,40,l),
(178,710,l),
(92,710,l),
(92,0,l)
);
}
);
width = 579.96667;
},
{
anchors = (
{
name = bottom;
pos = (314,0);
},
{
name = top;
pos = (160,710);
}
);
layerId = "3507EE3D-0D92-4546-A145-3A991F0A2B71";
shapes = (
{
closed = 1;
nodes = (
(567,0,l),
(567,157,l),
(146,157,l),
(258,41,l),
(258,710,l),
(62,710,l),
(62,0,l)
);
}
);
width = 595;
}
);
metricLeft = H;
metricRight = "=E-10";
unicode = 76;
}
{
glyphname = N;
kernLeft = H;
kernRight = H;
layers = (
{
anchors = (
{
name = bottom;
pos = (356,0);
},
{
name = top;
pos = (356,710);
}
);
background = {
shapes = (
{
closed = 1;
nodes = (
(52,0,l),
(140,0,l),
(140,603,l),
(484,0,l),
(607,0,l),
(607,710,l),
(519,710,l),
(519,104,l),
(174,710,l),
(52,710,l)
);
}
);
};
layerId = "EE2FFE84-06F1-4AFB-BBEC-60D09A436D14";
shapes = (
{
closed = 1;
nodes = (
(96,0,l),
(128,0,l),
(128,678,l),
(568,0,l),
(615,0,l),
(615,710,l),
(583,710,l),
(583,32,l),
(143,710,l),
(96,710,l)
);
}
);
width = 711;
},
{
anchors = (
{
name = bottom;
pos = (373,0);
},
{
name = top;
pos = (386,710);
}
);
layerId = "6C190511-B94A-4F5A-B519-D6E9DB0E7B93";
shapes = (
{
closed = 1;
nodes = (
(92,0,l),
(178,0,l),
(178,602,l),
(523,0,l),
(651,0,l),
(651,710,l),
(565,710,l),
(565,96,l),
(214,710,l),
(92,710,l)
);
}
);
width = 743;
},
{
anchors = (
{
name = bottom;
pos = (373,0);
},
{
name = top;
pos = (378,710);
}
);
layerId = "3507EE3D-0D92-4546-A145-3A991F0A2B71";
shapes = (
{
closed = 1;
nodes = (
(62,0,l),
(258,0,l),
(258,385,l),
(488,0,l),
(693,0,l),
(693,710,l),
(496,710,l),
(496,305,l),
(261,710,l),
(62,710,l)
);
}
);
width = 754.53991;
}
);
metricLeft = H;
metricRight = H;
unicode = 78;
}
{
glyphname = O;
kernLeft = O;
kernRight = O;
layers = (
{
anchors = (
{
name = bottom;
pos = (357,0);
},
{
name = top;
pos = (357,710);
}
);
background = {
shapes = (
{
closed = 1;
nodes = (
(570,-16,o),
(687,149,o),
(687,354,cs),
(687,560,o),
(571,726,o),
(365,726,cs),
(159,726,o),
(43,560,o),
(43,354,cs),
(43,149,o),
(160,-16,o),
(365,-16,cs)
);
},
{
closed = 1;
nodes = (
(211,70,o),
(135,200,o),
(135,354,cs),
(135,509,o),
(210,640,o),
(365,640,cs),
(520,640,o),
(595,509,o),
(595,354,cs),
(595,200,o),
(519,70,o),
(365,70,cs)
);
}
);
};
layerId = "EE2FFE84-06F1-4AFB-BBEC-60D09A436D14";
shapes = (
{
closed = 1;
nodes = (
(547,-16,o),
(664,127,o),
(664,354,cs),
(664,583,o),
(547,726,o),
(357,726,cs),
(167,726,o),
(50,583,o),
(50,354,cs),
(50,127,o),
(167,-16,o),
(357,-16,cs)
);
},
{
closed = 1;
nodes = (
(188,16,o),
(84,146,o),
(84,354,cs),
(84,563,o),
(188,694,o),
(357,694,cs),
(526,694,o),
(630,563,o),
(630,354,cs),
(630,146,o),
(526,16,o),
(357,16,cs)
);
}
);
width = 714;
},
{
anchors = (
{
name = bottom;
pos = (395,0);
},
{
name = top;
pos = (395,710);
}
);
layerId = "3507EE3D-0D92-4546-A145-3A991F0A2B71";
shapes = (
{
closed = 1;
nodes = (
(620,-16,o),
(754,126,o),
(754,354,cs),
(754,584,o),
(620,726,o),
(395,726,cs),
(170,726,o),
(35,584,o),
(35,354,cs),
(35,126,o),
(170,-16,o),
(395,-16,cs)
);
},
{
closed = 1;
nodes = (
(295,141,o),
(238,219,o),
(238,354,cs),
(238,490,o),
(295,569,o),
(395,569,cs),
(496,569,o),
(553,490,o),
(553,354,cs),
(553,219,o),
(496,141,o),
(395,141,cs)
);
}
);
width = 789.34272;
},
{
anchors = (
{
name = bottom;
pos = (373,0);
},
{
name = top;
pos = (373,710);
}
);
layerId = "6C190511-B94A-4F5A-B519-D6E9DB0E7B93";
shapes = (
{
closed = 1;
nodes = (
(576,-16,o),
(698,125,o),
(698,354,cs),
(698,585,o),
(576,726,o),
(373,726,cs),
(171,726,o),
(49,585,o),
(49,354,cs),
(49,125,o),
(171,-16,o),
(373,-16,cs)
);
},
{
closed = 1;
nodes = (
(227,68,o),
(139,177,o),
(139,354,cs),
(139,533,o),
(227,642,o),
(373,642,cs),
(520,642,o),
(608,533,o),
(608,354,cs),
(608,177,o),
(520,68,o),
(373,68,cs)
);
}
);
width = 746.86667;
}
);
unicode = 79;
}
{
glyphname = P;
kernLeft = H;
kernRight = P;
layers = (
{
background = {
shapes = (
{
closed = 1;
nodes = (
(96,0,l),
(184,0,l),
(184,275,l),
(351,275,l),
(510,275,o),
(603,357,o),
(603,495,cs),
(603,630,o),
(510,710,o),
(351,710,c),
(96,710,l)
);
},
{
closed = 1;
nodes = (
(184,624,l),
(351,624,l),
(458,624,o),
(511,581,o),
(511,495,cs),
(511,406,o),
(458,361,o),
(351,361,cs),
(184,361,l)
);
}
);
};
layerId = "EE2FFE84-06F1-4AFB-BBEC-60D09A436D14";
shapes = (
{
closed = 1;
nodes = (
(128,0,l),
(128,305,l),
(333,305,l),
(480,305,o),
(573,382,o),
(573,505,cs),
(573,631,o),
(480,710,o),
(333,710,c),
(96,710,l),
(96,0,l)
);
},
{
closed = 1;
nodes = (
(128,680,l),
(333,680,l),
(465,680,o),
(539,617,o),
(539,505,cs),
(539,396,o),
(465,335,o),
(333,335,cs),
(128,335,l)
);
}
);
width = 618;
},
{
layerId = "6C190511-B94A-4F5A-B519-D6E9DB0E7B93";
shapes = (
{
closed = 1;
nodes = (
(178,0,l),
(178,276,l),
(347,276,l),
(505,276,o),
(598,358,o),
(598,495,cs),
(598,630,o),
(505,710,o),
(347,710,c),
(92,710,l),
(92,0,l)
);
},
{
closed = 1;
nodes = (
(178,626,l),
(347,626,l),
(454,626,o),
(508,582,o),
(508,495,cs),
(508,406,o),
(454,360,o),
(347,360,cs),
(178,360,l)
);
}
);
width = 649.9;
},
{
layerId = "3507EE3D-0D92-4546-A145-3A991F0A2B71";
shapes = (
{
closed = 1;
nodes = (
(258,0,l),
(258,225,l),
(366,225,l),
(544,225,o),
(653,318,o),
(653,467,cs),
(653,617,o),
(544,710,o),
(366,710,c),
(62,710,l),
(62,0,l)
);
},
{
closed = 1;
nodes = (
(258,553,l),
(351,553,ls),
(413,553,o),
(453,523,o),
(453,467,cs),
(453,411,o),
(412,382,o),
(351,382,cs),
(258,382,l)
);
}
);
width = 685.88732;
}
);
metricLeft = H;
metricRight = F;
unicode = 80;
}
{
color = 4;
glyphname = Q;
kernLeft = O;
kernRight = O;
layers = (
{
anchors = (
{
name = bottom;
pos = (354,0);
},
{
name = top;
pos = (354,710);
}
);
background = {
anchors = (
{
name = bottom;
pos = (354,0);
},
{
name = top;
pos = (354,710);
}
);
shapes = (
{
closed = 1;
nodes = (
(606,-69,l),
(524,37,l),
(608,99,o),
(658,211,o),
(658,354,cs),
(658,579,o),
(538,726,o),
(354,726,cs),
(170,726,o),
(50,579,o),
(50,354,cs),
(50,131,o),
(171,-16,o),
(354,-16,cs),
(409,-16,o),
(458,-3,o),
(500,22,c),
(570,-69,l)
);
},
{
closed = 1;
nodes = (
(188,16,o),
(84,146,o),
(84,354,cs),
(84,563,o),
(188,694,o),
(354,694,cs),
(520,694,o),
(624,563,o),
(624,354,cs),
(624,219,o),
(580,117,o),
(505,62,c),
(392,208,l),
(356,208,l),
(481,47,l),
(444,27,o),
(402,16,o),
(354,16,cs)
);
}
);
};
layerId = "EE2FFE84-06F1-4AFB-BBEC-60D09A436D14";
shapes = (
{
closed = 1;
nodes = (
(608,-69,l),
(524,37,l),
(608,99,o),
(658,206,o),
(658,354,cs),
(658,579,o),
(538,726,o),
(354,726,cs),
(170,726,o),
(50,579,o),
(50,354,cs),
(50,131,o),
(171,-16,o),
(354,-16,cs),
(409,-16,o),
(458,-3,o),
(500,22,c),
(570,-69,l)
);
},
{
closed = 1;
nodes = (
(188,16,o),
(84,146,o),
(84,354,cs),
(84,563,o),
(188,694,o),
(354,694,cs),
(520,694,o),
(624,563,o),
(624,354,cs),
(624,220,o),
(580,117,o),
(505,62,c),
(392,208,l),
(354,208,l),
(481,47,l),
(444,27,o),
(402,16,o),
(354,16,cs)
);
}
);
width = 708;
},
{
associatedMasterId = "EE2FFE84-06F1-4AFB-BBEC-60D09A436D14";
background = {
shapes = (
{
closed = 1;
nodes = (
(567,-16,o),
(684,149,o),
(684,354,cs),
(684,560,o),
(568,726,o),
(362,726,cs),
(156,726,o),
(40,560,o),
(40,354,cs),
(40,149,o),
(157,-16,o),
(362,-16,cs)
);
},
{
closed = 1;
nodes = (
(208,70,o),
(132,200,o),
(132,354,cs),
(132,509,o),
(207,640,o),
(362,640,cs),
(517,640,o),
(592,509,o),
(592,354,cs),
(592,200,o),
(516,70,o),
(362,70,cs)
);
},
{
closed = 1;
nodes = (
(420,208,l),
(328,208,l),
(542,-69,l),
(634,-69,l)
);
}
);
};
layerId = "57B8AADA-883A-4D88-865F-303C17FF5ECC";
name = "24 de feb. de 23 09:24";
shapes = (
{
ref = O;
},
{
closed = 1;
nodes = (
(402,208,l),
(366,208,l),
(580,-69,l),
(616,-69,l)
);
}
);
width = 728;
},
{
associatedMasterId = "EE2FFE84-06F1-4AFB-BBEC-60D09A436D14";
background = {
shapes = (
{
closed = 1;
nodes = (
(567,-16,o),
(684,149,o),
(684,354,cs),
(684,560,o),
(568,726,o),
(362,726,cs),
(156,726,o),
(40,560,o),
(40,354,cs),
(40,149,o),
(157,-16,o),
(362,-16,cs)
);
},
{
closed = 1;
nodes = (
(208,70,o),
(132,200,o),
(132,354,cs),
(132,509,o),
(207,640,o),
(362,640,cs),
(517,640,o),
(592,509,o),
(592,354,cs),
(592,200,o),
(516,70,o),
(362,70,cs)
);
},
{
closed = 1;
nodes = (
(420,208,l),
(328,208,l),
(542,-69,l),
(634,-69,l)
);
}
);
};
layerId = "64775533-39F8-426A-91C6-DD7A69A21DE2";
name = "24 de feb. de 23 09:25";
shapes = (
{
ref = O;
},
{
closed = 1;
nodes = (
(402,208,l),
(366,208,l),
(580,-69,l),
(616,-69,l)
);
}
);
width = 728;
},
{
anchors = (
{
name = bottom;
pos = (392,0);
},
{
name = top;
pos = (392,710);
}
);
background = {
anchors = (
{
name = bottom;
pos = (392,0);
},
{
name = top;
pos = (392,710);
}
);
shapes = (
{
closed = 1;
nodes = (
(722,-57,l),
(624,64,l),
(702,130,o),
(748,233,o),
(748,354,cs),
(748,568,o),
(605,726,o),
(392,726,cs),
(178,726,o),
(35,568,o),
(35,354,cs),
(35,140,o),
(178,-16,o),
(392,-16,cs),
(443,-16,o),
(490,-7,o),
(532,9,c),
(586,-57,l)
);
},
{
closed = 1;
nodes = (
(281,141,o),
(236,243,o),
(236,354,cs),
(236,466,o),
(280,569,o),
(392,569,cs),
(503,569,o),
(547,466,o),
(547,354,cs),
(547,297,o),
(534,244,o),
(506,207,c),
(462,261,l),
(327,261,l),
(421,145,l),
(412,142,o),
(402,141,o),
(392,141,cs)
);
}
);
};
layerId = "3507EE3D-0D92-4546-A145-3A991F0A2B71";
shapes = (
{
closed = 1;
nodes = (
(722,-57,l),
(624,64,l),
(702,130,o),
(748,222,o),
(748,354,cs),
(748,568,o),
(624,726,o),
(392,726,cs),
(159,726,o),
(35,568,o),
(35,354,cs),
(35,131,o),
(178,-16,o),
(392,-16,cs),
(448,-16,o),
(492,-8,o),
(522,7,c),
(574,-57,l)
);
},
{
closed = 1;
nodes = (
(281,141,o),
(236,243,o),
(236,354,cs),
(236,466,o),
(280,569,o),
(392,569,cs),
(503,569,o),
(547,466,o),
(547,354,cs),
(547,280,o),
(532,241,o),
(510,213,c),
(474,261,l),
(326,261,l),
(421,145,l),
(412,142,o),
(402,141,o),
(392,141,cs)
);
}
);
width = 783;
},
{
anchors = (
{
name = bottom;
pos = (370,0);
},
{
name = top;
pos = (370,710);
}
);
background = {
anchors = (
{
name = bottom;
pos = (370,0);
},
{
name = top;
pos = (370,710);
}
);
shapes = (
{
closed = 1;
nodes = (
(642,-69,l),
(556,42,l),
(644,108,o),
(692,223,o),
(692,354,cs),
(692,561,o),
(576,726,o),
(370,726,cs),
(165,726,o),
(49,561,o),
(49,354,cs),
(49,148,o),
(166,-16,o),
(370,-16,cs),
(416,-16,o),
(457,-8,o),
(493,7,c),
(552,-69,l)
);
},
{
closed = 1;
nodes = (
(216,68,o),
(139,198,o),
(139,354,cs),
(139,511,o),
(215,642,o),
(370,642,cs),
(526,642,o),
(602,511,o),
(602,354,cs),
(602,252,o),
(568,161,o),
(503,110,c),
(428,208,l),
(338,208,l),
(438,78,l),
(418,71,o),
(395,68,o),
(370,68,cs)
);
}
);
};
layerId = "6C190511-B94A-4F5A-B519-D6E9DB0E7B93";
shapes = (
{
closed = 1;
nodes = (
(644,-69,l),
(556,42,l),
(644,108,o),
(692,223,o),
(692,354,cs),
(692,561,o),
(578,726,o),
(370,726,cs),
(165,726,o),
(49,561,o),
(49,354,cs),
(49,148,o),
(166,-16,o),
(370,-16,cs),
(416,-16,o),
(461,-7,o),
(493,7,c),
(552,-69,l)
);
},
{
closed = 1;
nodes = (
(216,68,o),
(139,198,o),
(139,354,cs),
(139,511,o),
(214,642,o),
(370,642,cs),
(526,642,o),
(602,511,o),
(602,354,cs),
(602,244,o),
(569,160,o),
(504,108,c),
(428,208,l),
(336,208,l),
(439,79,l),
(422,71,o),
(399,68,o),
(370,68,cs)
);
}
);
width = 741;
}
);
metricLeft = O;
metricRight = O;
unicode = 81;
}
{
color = 4;
glyphname = R;
kernLeft = b;
kernRight = R;
layers = (
{
associatedMasterId = "EE2FFE84-06F1-4AFB-BBEC-60D09A436D14";
layerId = "9EE13298-BF92-4B00-8E5D-8782EE099A36";
name = "26 de feb. de 23 23:27";
shapes = (
{
closed = 1;
nodes = (
(517,631,o),
(424,710,o),
(277,710,cs),
(70,710,l),
(70,0,l),
(102,0,l),
(102,311,l),
(277,311,ls),
(518,311,o),
(442,146,o),
(503,0,c),
(536,0,l),
(484,144,o),
(525,285,o),
(379,327,c),
(463,350,o),
(517,415,o),
(517,505,cs)
);
},
{
closed = 1;
nodes = (
(102,680,l),
(277,680,ls),
(409,680,o),
(483,617,o),
(483,505,cs),
(483,400,o),
(409,341,o),
(277,341,cs),
(102,341,l)
);
}
);
width = 606;
},
{
anchors = (
{
name = bottom;
pos = (306,0);
},
{
name = top;
pos = (312,710);
}
);
associatedMasterId = "EE2FFE84-06F1-4AFB-BBEC-60D09A436D14";
background = {
shapes = (
{
closed = 1;
nodes = (
(96,0,l),
(128,0,l),
(128,305,l),
(333,305,l),
(480,305,o),
(573,382,o),
(573,505,cs),
(573,631,o),
(480,710,o),
(333,710,c),
(96,710,l)
);
},
{
closed = 1;
nodes = (
(128,680,l),
(333,680,l),
(465,680,o),
(539,617,o),
(539,505,cs),
(539,396,o),
(465,335,o),
(333,335,cs),
(128,335,l)
);
}
);
};
layerId = "A962C063-6C0C-461E-9F2C-0D2D3C0B8A7D";
name = "16 de may. de 23 13:25";
shapes = (
{
closed = 1;
nodes = (
(96,0,l),
(128,0,l),
(128,311,l),
(333,311,ls),
(594,311,o),
(494,146,o),
(555,0,c),
(588,0,l),
(536,144,o),
(601,285,o),
(435,327,c),
(519,350,o),
(573,415,o),
(573,505,cs),
(573,636,o),
(487,710,o),
(333,710,cs),
(96,710,l)
);
},
{
closed = 1;
nodes = (
(128,680,l),
(333,680,ls),
(471,680,o),
(539,622,o),
(539,505,cs),
(539,400,o),
(465,341,o),
(333,341,cs),
(128,341,l)
);
}
);
width = 643;
},
{
anchors = (
{
name = bottom;
pos = (318,0);
},
{
name = top;
pos = (324,710);
}
);
background = {
anchors = (
{
name = bottom;
pos = (318,0);
},
{
name = top;
pos = (324,710);
}
);
shapes = (
{
closed = 1;
nodes = (
(128,0,l),
(128,311,l),
(335,311,ls),
(462,311,o),
(520,280,o),
(526,208,cs),
(542,0,l),
(575,0,l),
(558,209,ls),
(551,289,o),
(487,334,o),
(380,333,c),
(405,323,l),
(507,337,o),
(575,404,o),
(575,505,cs),
(575,636,o),
(489,710,o),
(335,710,cs),
(96,710,l),
(96,0,l)
);
},
{
closed = 1;
nodes = (
(128,680,l),
(335,680,ls),
(473,680,o),
(541,622,o),
(541,505,cs),
(541,400,o),
(467,341,o),
(335,341,cs),
(128,341,l)
);
}
);
};
layerId = "EE2FFE84-06F1-4AFB-BBEC-60D09A436D14";
name = Thin;
shapes = (
{
closed = 1;
nodes = (
(128,0,l),
(128,311,l),
(364,311,ls),
(472,311,o),
(521,274,o),
(527,194,cs),
(542,0,l),
(575,0,l),
(559,195,ls),
(552,285,o),
(498,333,o),
(392,333,c),
(397,323,l),
(503,335,o),
(575,404,o),
(575,507,cs),
(575,636,o),
(491,710,o),
(337,710,cs),
(96,710,l),
(96,0,l)
);
},
{
closed = 1;
nodes = (
(128,680,l),
(335,680,ls),
(473,680,o),
(541,622,o),
(541,507,cs),
(541,400,o),
(467,341,o),
(348,341,cs),
(128,341,l)
);
}
);
width = 630;
},
{
anchors = (
{
name = bottom;
pos = (367,0);
},
{
name = top;
pos = (350,710);
}
);
background = {
anchors = (
{
name = bottom;
pos = (367,0);
},
{
name = top;
pos = (350,710);
}
);
shapes = (
{
closed = 1;
nodes = (
(258,0,l),
(258,242,l),
(363,242,ls),
(432,242,o),
(459,223,o),
(463,164,cs),
(474,0,l),
(671,0,l),
(655,200,ls),
(649,288,o),
(601,324,o),
(500,324,c),
(506,317,l),
(608,335,o),
(665,395,o),
(665,498,cs),
(665,638,o),
(546,710,o),
(401,710,cs),
(62,710,l),
(62,0,l)
);
},
{
closed = 1;
nodes = (
(258,553,l),
(365,553,ls),
(430,553,o),
(465,526,o),
(465,475,cs),
(465,426,o),
(430,399,o),
(365,399,cs),
(258,399,l)
);
}
);
};
layerId = "3507EE3D-0D92-4546-A145-3A991F0A2B71";
name = "Ultra Black";
shapes = (
{
closed = 1;
nodes = (
(258,0,l),
(258,242,l),
(373,242,ls),
(437,242,o),
(458,218,o),
(461,166,cs),
(471,0,l),
(671,0,l),
(655,200,ls),
(649,281,o),
(602,324,o),
(502,324,c),
(504,314,l),
(606,332,o),
(665,400,o),
(665,500,cs),
(665,627,o),
(561,710,o),
(401,710,cs),
(62,710,l),
(62,0,l)
);
},
{
closed = 1;
nodes = (
(258,553,l),
(365,553,ls),
(430,553,o),
(465,528,o),
(465,477,cs),
(465,428,o),
(430,399,o),
(365,399,cs),
(258,399,l)
);
}
);
width = 714;
},
{
anchors = (
{
name = bottom;
pos = (350,0);
},
{
name = top;
pos = (337,710);
}
);
background = {
anchors = (
{
name = bottom;
pos = (350,0);
},
{
name = top;
pos = (337,710);
}
);
shapes = (
{
closed = 1;
nodes = (
(178,0,l),
(178,286,l),
(352,286,ls),
(456,286,o),
(499,262,o),
(505,197,cs),
(523,0,l),
(610,0,l),
(590,209,ls),
(581,302,o),
(536,335,o),
(424,335,c),
(454,326,l),
(527,330,o),
(603,399,o),
(603,495,cs),
(603,627,o),
(510,710,o),
(361,710,cs),
(92,710,l),
(92,0,l)
);
},
{
closed = 1;
nodes = (
(178,626,l),
(361,626,ls),
(459,626,o),
(513,579,o),
(513,497,cs),
(513,415,o),
(458,370,o),
(361,370,cs),
(178,370,l)
);
}
);
};
layerId = "6C190511-B94A-4F5A-B519-D6E9DB0E7B93";
name = Thin;
shapes = (
{
closed = 1;
nodes = (
(178,0,l),
(178,286,l),
(384,286,ls),
(466,286,o),
(500,259,o),
(505,200,cs),
(523,0,l),
(610,0,l),
(590,209,ls),
(582,297,o),
(530,335,o),
(444,335,c),
(450,326,l),
(525,330,o),
(603,399,o),
(603,495,cs),
(603,627,o),
(510,710,o),
(361,710,cs),
(92,710,l),
(92,0,l)
);
},
{
closed = 1;
nodes = (
(178,626,l),
(361,626,ls),
(459,626,o),
(513,579,o),
(513,497,cs),
(513,415,o),
(458,370,o),
(372,370,cs),
(178,370,l)
);
}
);
width = 672;
}
);
metricLeft = H;
metricRight = "=P+10";
unicode = 82;
}
{
glyphname = S;
kernLeft = O;
kernRight = O;
layers = (
{
anchors = (
{
name = bottom;
pos = (310,0);
},
{
name = top;
pos = (310,710);
}
);
background = {
shapes = (
{
closed = 1;
nodes = (
(45,109,o),
(157,-12,o),
(326,-12,cs),
(460,-12,o),
(581,52,o),
(581,184,cs),
(581,311,o),
(477,357,o),
(334,398,cs),
(200,436,o),
(163,466,o),
(163,527,cs),
(163,593,o),
(222,640,o),
(308,640,cs),
(400,640,o),
(480,562,o),
(485,458,c),
(435,491,l),
(618,503,l),
(575,469,l),
(571,632,o),
(426,726,o),
(320,726,cs),
(167,726,o),
(71,649,o),
(71,527,cs),
(71,419,o),
(140,364,o),
(306,321,cs),
(427,290,o),
(489,240,o),
(489,184,cs),
(489,116,o),
(429,74,o),
(331,74,cs),
(194,74,o),
(147,144,o),
(137,269,c),
(186,236,l),
(3,224,l),
(47,256,l)
);
}
);
};
layerId = "EE2FFE84-06F1-4AFB-BBEC-60D09A436D14";
shapes = (
{
closed = 1;
nodes = (
(459,-12,o),
(563,70,o),
(563,174,cs),
(563,267,o),
(491,328,o),
(326,375,cs),
(162,423,o),
(107,464,o),
(107,540,cs),
(107,635,o),
(181,694,o),
(300,694,cs),
(423,694,o),
(510,616,o),
(510,505,c),
(544,508,l),
(544,630,o),
(439,726,o),
(310,726,cs),
(164,726,o),
(73,654,o),
(73,540,cs),
(73,450,o),
(141,394,o),
(298,352,cs),
(459,309,o),
(529,255,o),
(529,174,cs),
(529,88,o),
(438,20,o),
(323,20,cs),
(194,20,o),
(93,109,o),
(93,222,c),
(60,219,l),
(60,90,o),
(174,-12,o),
(318,-12,cs)
);
}
);
width = 623;
},
{
anchors = (
{
name = bottom;
pos = (359,0);
},
{
name = top;
pos = (359,710);
}
);
layerId = "3507EE3D-0D92-4546-A145-3A991F0A2B71";
shapes = (
{
closed = 1;
nodes = (
(536,-12,o),
(654,70,o),
(654,207,cs),
(654,323,o),
(554,394,o),
(376,428,cs),
(309,443,o),
(260,460,o),
(257,502,cs),
(252,544,o),
(290,572,o),
(347,572,cs),
(407,572,o),
(447,533,o),
(452,468,c),
(645,476,l),
(628,627,o),
(515,726,o),
(352,726,cs),
(174,726,o),
(58,641,o),
(58,506,cs),
(58,392,o),
(152,326,o),
(332,284,cs),
(422,263,o),
(454,243,o),
(456,204,cs),
(457,165,o),
(421,144,o),
(369,144,cs),
(295,144,o),
(250,184,o),
(240,247,c),
(45,238,l),
(55,84,o),
(181,-12,o),
(366,-12,cs)
);
}
);
width = 699.03756;
},
{
anchors = (
{
name = bottom;
pos = (331,0);
},
{
name = top;
pos = (330,710);
}
);
layerId = "6C190511-B94A-4F5A-B519-D6E9DB0E7B93";
shapes = (
{
closed = 1;
nodes = (
(469,-12,o),
(589,56,o),
(589,188,cs),
(589,284,o),
(512,353,o),
(357,396,cs),
(267,421,o),
(164,445,o),
(164,531,cs),
(164,599,o),
(224,642,o),
(305,642,cs),
(403,642,o),
(471,583,o),
(484,494,c),
(574,500,l),
(559,631,o),
(458,726,o),
(306,726,cs),
(170,726,o),
(74,651,o),
(74,531,cs),
(74,434,o),
(147,367,o),
(295,330,cs),
(431,295,o),
(499,245,o),
(499,179,cs),
(499,108,o),
(438,72,o),
(347,72,cs),
(235,72,o),
(166,125,o),
(149,233,c),
(59,227,l),
(71,83,o),
(185,-12,o),
(340,-12,cs)
);
}
);
width = 648.13333;
}
);
metricLeft = "=O+10";
metricRight = "=O+10";
unicode = 83;
}
{
glyphname = T;
kernLeft = T;
kernRight = T;
layers = (
{
anchors = (
{
name = bottom;
pos = (286,0);
},
{
name = top;
pos = (286,710);
}
);
background = {
shapes = (
{
closed = 1;
nodes = (
(274,0,l),
(362,0,l),
(362,710,l),
(274,710,l)
);
},
{
closed = 1;
nodes = (
(74,624,l),
(562,624,l),
(562,710,l),
(74,710,l)
);
}
);
};
layerId = "EE2FFE84-06F1-4AFB-BBEC-60D09A436D14";
shapes = (
{
closed = 1;
nodes = (
(302,0,l),
(302,680,l),
(544,680,l),
(544,710,l),
(28,710,l),
(28,680,l),
(270,680,l),
(270,0,l)
);
}
);
width = 572;
},
{
anchors = (
{
name = bottom;
pos = (334,0);
},
{
name = top;
pos = (334,710);
}
);
layerId = "3507EE3D-0D92-4546-A145-3A991F0A2B71";
shapes = (
{
closed = 1;
nodes = (
(433,0,l),
(433,553,l),
(640,553,l),
(640,710,l),
(29,710,l),
(29,553,l),
(236,553,l),
(236,0,l)
);
}
);
width = 668.4507;
},
{
anchors = (
{
name = bottom;
pos = (289,0);
},
{
name = top;
pos = (289,710);
}
);
layerId = "6C190511-B94A-4F5A-B519-D6E9DB0E7B93";
shapes = (
{
closed = 1;
nodes = (
(332,0,l),
(332,626,l),
(553,626,l),
(553,710,l),
(25,710,l),
(25,626,l),
(246,626,l),
(246,0,l)
);
}
);
width = 577.8;
}
);
unicode = 84;
}
{
glyphname = U;
kernLeft = U;
kernRight = U;
layers = (
{
anchors = (
{
name = bottom;
pos = (331,0);
},
{
name = ogonek;
pos = (428,0);
},
{
name = top;
pos = (331,710);
}
);
background = {
shapes = (
{
closed = 1;
nodes = (
(563,711,l),
(475,711,l),
(475,248,ls),
(475,134,o),
(414,70,o),
(305,70,cs),
(196,70,o),
(135,134,o),
(135,248,cs),
(135,711,l),
(47,711,l),
(47,248,ls),
(47,86,o),
(147,-16,o),
(305,-16,cs),
(463,-16,o),
(563,86,o),
(563,248,cs)
);
}
);
};
layerId = "EE2FFE84-06F1-4AFB-BBEC-60D09A436D14";
shapes = (
{
closed = 1;
nodes = (
(491,-16,o),
(581,79,o),
(581,248,cs),
(581,711,l),
(549,711,l),
(549,248,ls),
(549,99,o),
(471,16,o),
(331,16,cs),
(191,16,o),
(113,99,o),
(113,248,cs),
(113,711,l),
(81,711,l),
(81,248,ls),
(81,79,o),
(171,-16,o),
(331,-16,cs)
);
}
);
width = 662;
},
{
anchors = (
{
name = bottom;
pos = (345,0);
},
{
name = ogonek;
pos = (444,0);
},
{
name = top;
pos = (345,710);
}
);
layerId = "6C190511-B94A-4F5A-B519-D6E9DB0E7B93";
shapes = (
{
closed = 1;
nodes = (
(509,-16,o),
(612,86,o),
(612,248,cs),
(612,711,l),
(526,711,l),
(526,248,ls),
(526,133,o),
(460,68,o),
(345,68,cs),
(229,68,o),
(163,133,o),
(163,248,cs),
(163,711,l),
(77,711,l),
(77,248,ls),
(77,86,o),
(180,-16,o),
(345,-16,cs)
);
}
);
width = 689.06667;
},
{
anchors = (
{
name = bottom;
pos = (356,0);
},
{
name = ogonek;
pos = (463,0);
},
{
name = top;
pos = (356,710);
}
);
layerId = "3507EE3D-0D92-4546-A145-3A991F0A2B71";
shapes = (
{
closed = 1;
nodes = (
(546,-16,o),
(666,92,o),
(666,262,cs),
(666,711,l),
(469,711,l),
(469,262,ls),
(469,181,o),
(427,141,o),
(356,141,cs),
(286,141,o),
(243,181,o),
(243,262,cs),
(243,711,l),
(47,711,l),
(47,262,ls),
(47,92,o),
(166,-16,o),
(356,-16,cs)
);
}
);
width = 712.723;
}
);
metricLeft = "=H-15";
metricRight = "=H-15";
unicode = 85;
}
{
glyphname = V;
kernLeft = V;
kernRight = V;
layers = (
{
background = {
shapes = (
{
closed = 1;
nodes = (
(303,0,l),
(411,0,l),
(667,710,l),
(572,710,l),
(344,62,l),
(369,62,l),
(141,710,l),
(47,710,l)
);
}
);
};
layerId = "EE2FFE84-06F1-4AFB-BBEC-60D09A436D14";
shapes = (
{
closed = 1;
nodes = (
(339,0,l),
(618,710,l),
(583,710,l),
(321,34,l),
(59,710,l),
(24,710,l),
(303,0,l)
);
}
);
width = 642;
},
{
layerId = "6C190511-B94A-4F5A-B519-D6E9DB0E7B93";
shapes = (
{
closed = 1;
nodes = (
(391,0,l),
(648,710,l),
(553,710,l),
(335,96,l),
(115,710,l),
(21,710,l),
(278,0,l)
);
}
);
width = 669.06667;
},
{
layerId = "3507EE3D-0D92-4546-A145-3A991F0A2B71";
shapes = (
{
closed = 1;
nodes = (
(505,0,l),
(761,710,l),
(562,710,l),
(395,222,l),
(226,710,l),
(27,710,l),
(284,0,l)
);
}
);
width = 788.97653;
}
);
unicode = 86;
}
{
glyphname = W;
kernLeft = V;
kernRight = V;
layers = (
{
anchors = (
{
name = bottom;
pos = (439,0);
},
{
name = top;
pos = (439,710);
}
);
background = {
shapes = (
{
closed = 1;
nodes = (
(228,0,l),
(336,0,l),
(475,531,l),
(614,0,l),
(722,0,l),
(908,710,l),
(813,710,l),
(668,121,l),
(522,710,l),
(427,710,l),
(282,121,l),
(136,710,l),
(42,710,l)
);
}
);
};
layerId = "EE2FFE84-06F1-4AFB-BBEC-60D09A436D14";
shapes = (
{
closed = 1;
nodes = (
(223,0,l),
(271,0,l),
(439,676,l),
(607,0,l),
(655,0,l),
(854,710,l),
(821,710,l),
(632,33,l),
(461,710,l),
(417,710,l),
(246,33,l),
(57,710,l),
(24,710,l)
);
}
);
width = 878;
},
{
anchors = (
{
name = bottom;
pos = (455,0);
},
{
name = top;
pos = (455,710);
}
);
layerId = "6C190511-B94A-4F5A-B519-D6E9DB0E7B93";
shapes = (
{
closed = 1;
nodes = (
(208,0,l),
(315,0,l),
(455,536,l),
(595,0,l),
(703,0,l),
(890,710,l),
(795,710,l),
(650,118,l),
(504,710,l),
(406,710,l),
(261,118,l),
(115,710,l),
(21,710,l)
);
}
);
width = 910.86667;
},
{
anchors = (
{
name = bottom;
pos = (522,0);
},
{
name = top;
pos = (522,710);
}
);
layerId = "3507EE3D-0D92-4546-A145-3A991F0A2B71";
shapes = (
{
closed = 1;
nodes = (
(223,0,l),
(421,0,l),
(522,385,l),
(622,0,l),
(821,0,l),
(1016,710,l),
(815,710,l),
(709,272,l),
(600,710,l),
(443,710,l),
(335,272,l),
(228,710,l),
(27,710,l)
);
}
);
width = 1043.84977;
}
);
metricLeft = V;
metricRight = V;
unicode = 87;
}
{
color = 4;
glyphname = X;
kernLeft = X;
kernRight = X;
layers = (
{
background = {
shapes = (
{
closed = 1;
nodes = (
(69,0,l),
(309,332,l),
(549,0,l),
(588,0,l),
(331,357,l),
(581,710,l),
(542,710,l),
(309,382,l),
(76,710,l),
(37,710,l),
(287,357,l),
(30,0,l)
);
}
);
};
guides = (
{
angle = -90;
pos = (588,0);
}
);
layerId = "EE2FFE84-06F1-4AFB-BBEC-60D09A436D14";
shapes = (
{
closed = 1;
nodes = (
(69,0,l),
(310,332,l),
(549,0,l),
(588,0,l),
(330,356,l),
(581,710,l),
(542,710,l),
(308,382,l),
(76,710,l),
(37,710,l),
(288,358,l),
(30,0,l)
);
}
);
width = 618;
},
{
associatedMasterId = "EE2FFE84-06F1-4AFB-BBEC-60D09A436D14";
background = {
shapes = (
{
closed = 1;
nodes = (
(280,368,l),
(264,359,l),
(30,0,l),
(130,0,l),
(350,337,l),
(367,348,l),
(603,710,l),
(503,710,l)
);
},
{
closed = 1;
nodes = (
(32,710,l),
(277,335,l),
(292,324,l),
(503,0,l),
(605,0,l),
(351,389,l),
(337,399,l),
(134,710,l)
);
}
);
};
layerId = "C47B0997-5802-47AD-AE45-D8AD767F0936";
name = "5 de feb. de 23 12:24";
shapes = (
{
closed = 1;
nodes = (
(322,368,l),
(284,359,l),
(50,0,l),
(88,0,l),
(308,337,l),
(347,348,l),
(583,710,l),
(545,710,l)
);
},
{
closed = 1;
nodes = (
(52,710,l),
(297,335,l),
(336,324,l),
(547,0,l),
(585,0,l),
(331,389,l),
(293,399,l),
(90,710,l)
);
}
);
width = 600;
},
{
background = {
shapes = (
{
closed = 1;
nodes = (
(255,0,l),
(390,213,l),
(525,0,l),
(751,0,l),
(502,357,l),
(749,710,l),
(525,710,l),
(391,502,l),
(256,710,l),
(31,710,l),
(278,357,l),
(29,0,l)
);
}
);
};
layerId = "3507EE3D-0D92-4546-A145-3A991F0A2B71";
shapes = (
{
closed = 1;
nodes = (
(257,0,l),
(390,212,l),
(525,0,l),
(751,0,l),
(505,358,l),
(749,710,l),
(521,710,l),
(392,502,l),
(257,710,l),
(31,710,l),
(276,356,l),
(29,0,l)
);
}
);
width = 780.46009;
},
{
background = {
shapes = (
{
closed = 1;
nodes = (
(125,0,l),
(314,288,l),
(502,0,l),
(602,0,l),
(368,356,l),
(599,710,l),
(501,710,l),
(316,426,l),
(129,710,l),
(29,710,l),
(261,357,l),
(27,0,l)
);
}
);
};
layerId = "6C190511-B94A-4F5A-B519-D6E9DB0E7B93";
shapes = (
{
closed = 1;
nodes = (
(127,0,l),
(314,290,l),
(501,0,l),
(603,0,l),
(368,358,l),
(599,710,l),
(499,710,l),
(316,424,l),
(131,710,l),
(29,710,l),
(260,356,l),
(27,0,l)
);
}
);
width = 630;
}
);
unicode = 88;
}
{
glyphname = Y;
kernLeft = V;
kernRight = V;
layers = (
{
anchors = (
{
name = bottom;
pos = (297,0);
},
{
name = top;
pos = (297,710);
}
);
background = {
shapes = (
{
closed = 1;
nodes = (
(365,287,l),
(623,710,l),
(525,710,l),
(333,389,l),
(140,710,l),
(42,710,l),
(301,287,l)
);
},
{
closed = 1;
nodes = (
(289,0,l),
(377,0,l),
(377,360,l),
(289,360,l)
);
}
);
};
layerId = "EE2FFE84-06F1-4AFB-BBEC-60D09A436D14";
shapes = (
{
closed = 1;
nodes = (
(313,0,l),
(313,290,l),
(569,710,l),
(532,710,l),
(297,321,l),
(62,710,l),
(24,710,l),
(281,290,l),
(281,0,l)
);
}
);
width = 593;
},
{
anchors = (
{
name = bottom;
pos = (315,0);
},
{
name = top;
pos = (315,710);
}
);
layerId = "6C190511-B94A-4F5A-B519-D6E9DB0E7B93";
shapes = (
{
closed = 1;
nodes = (
(358,0,l),
(358,290,l),
(609,710,l),
(507,710,l),
(315,381,l),
(123,710,l),
(21,710,l),
(272,290,l),
(272,0,l)
);
}
);
width = 629.73333;
},
{
anchors = (
{
name = bottom;
pos = (370,0);
},
{
name = top;
pos = (370,710);
}
);
layerId = "3507EE3D-0D92-4546-A145-3A991F0A2B71";
shapes = (
{
closed = 1;
nodes = (
(468,0,l),
(468,266,l),
(711,710,l),
(501,710,l),
(370,447,l),
(238,710,l),
(27,710,l),
(271,266,l),
(271,0,l)
);
}
);
width = 739;
}
);
metricLeft = V;
metricRight = V;
unicode = 89;
}
{
glyphname = Z;
kernLeft = Z;
kernRight = Z;
layers = (
{
anchors = (
{
name = bottom;
pos = (266,0);
},
{
name = top;
pos = (266,710);
}
);
background = {
shapes = (
{
closed = 1;
nodes = (
(493,710,l),
(45,710,l),
(45,624,l),
(397,624,l),
(28,97,l),
(28,0,l),
(501,0,l),
(501,86,l),
(123,86,l),
(493,614,l)
);
}
);
};
layerId = "EE2FFE84-06F1-4AFB-BBEC-60D09A436D14";
shapes = (
{
closed = 1;
nodes = (
(485,710,l),
(47,710,l),
(47,680,l),
(450,680,l),
(30,30,l),
(30,0,l),
(493,0,l),
(493,30,l),
(65,30,l),
(485,680,l)
);
}
);
width = 523;
},
{
anchors = (
{
name = bottom;
pos = (279,0);
},
{
name = top;
pos = (279,710);
}
);
layerId = "6C190511-B94A-4F5A-B519-D6E9DB0E7B93";
shapes = (
{
closed = 1;
nodes = (
(507,710,l),
(44,710,l),
(44,626,l),
(407,626,l),
(27,89,l),
(27,0,l),
(515,0,l),
(515,84,l),
(124,84,l),
(507,624,l)
);
}
);
width = 542.33333;
},
{
anchors = (
{
name = bottom;
pos = (326,0);
},
{
name = top;
pos = (326,710);
}
);
layerId = "3507EE3D-0D92-4546-A145-3A991F0A2B71";
shapes = (
{
closed = 1;
nodes = (
(596,710,l),
(53,710,l),
(53,553,l),
(349,553,l),
(29,152,l),
(29,0,l),
(604,0,l),
(604,157,l),
(261,157,l),
(596,574,l)
);
}
);
width = 633.31925;
}
);
unicode = 90;
}
{
glyphname = bracketleft;
layers = (
{
background = {
shapes = (
{
closed = 1;
nodes = (
(22,-150,l),
(265,-150,l),
(265,-70,l),
(104,-70,l),
(104,630,l),
(265,630,l),
(265,710,l),
(22,710,l)
);
}
);
};
layerId = "EE2FFE84-06F1-4AFB-BBEC-60D09A436D14";
shapes = (
{
alignment = 1;
pos = (279,0);
ref = bracketright;
scale = (-1,1);
}
);
width = 279;
},
{
layerId = "6C190511-B94A-4F5A-B519-D6E9DB0E7B93";
shapes = (
{
alignment = 1;
pos = (359,0);
ref = bracketright;
scale = (-1,1);
}
);
width = 359;
},
{
layerId = "3507EE3D-0D92-4546-A145-3A991F0A2B71";
shapes = (
{
alignment = 1;
pos = (438,0);
ref = bracketright;
scale = (-1,1);
}
);
width = 438;
}
);
metricLeft = O;
metricRight = o;
unicode = 91;
}
{
glyphname = bracketright;
layers = (
{
layerId = "EE2FFE84-06F1-4AFB-BBEC-60D09A436D14";
shapes = (
{
closed = 1;
nodes = (
(183,-110,l),
(183,750,l),
(30,750,l),
(30,720,l),
(151,720,l),
(151,-80,l),
(30,-80,l),
(30,-110,l)
);
}
);
width = 279;
},
{
layerId = "6C190511-B94A-4F5A-B519-D6E9DB0E7B93";
shapes = (
{
closed = 1;
nodes = (
(267,-110,l),
(267,750,l),
(27,750,l),
(27,674,l),
(187,674,l),
(187,-34,l),
(27,-34,l),
(27,-110,l)
);
}
);
width = 359;
},
{
layerId = "3507EE3D-0D92-4546-A145-3A991F0A2B71";
shapes = (
{
closed = 1;
nodes = (
(376,-110,l),
(376,750,l),
(29,750,l),
(29,594,l),
(190,594,l),
(190,46,l),
(29,46,l),
(29,-110,l)
);
}
);
width = 438;
}
);
metricLeft = X;
metricRight = H;
unicode = 93;
}
{
glyphname = asciicircum;
layers = (
{
guides = (
{
pos = (57,383);
}
);
layerId = "EE2FFE84-06F1-4AFB-BBEC-60D09A436D14";
shapes = (
{
closed = 1;
nodes = (
(84,383,l),
(176,658,l),
(172,658,l),
(264,383,l),
(298,383,l),
(198,673,l),
(150,673,l),
(50,383,l)
);
}
);
width = 348;
},
{
layerId = "3507EE3D-0D92-4546-A145-3A991F0A2B71";
shapes = (
{
closed = 1;
nodes = (
(160,383,l),
(236,611,l),
(195,611,l),
(272,383,l),
(398,383,l),
(298,673,l),
(133,673,l),
(33,383,l)
);
}
);
width = 431;
},
{
layerId = "6C190511-B94A-4F5A-B519-D6E9DB0E7B93";
shapes = (
{
closed = 1;
nodes = (
(129,383,l),
(206,612,l),
(194,612,l),
(271,383,l),
(353,383,l),
(253,673,l),
(147,673,l),
(47,383,l)
);
}
);
width = 400.2;
}
);
metricLeft = o;
metricRight = o;
unicode = 94;
}
{
glyphname = underscore;
layers = (
{
background = {
shapes = (
{
closed = 1;
nodes = (
(22,-124,l),
(492,-124,l),
(492,-44,l),
(22,-44,l)
);
}
);
};
layerId = "EE2FFE84-06F1-4AFB-BBEC-60D09A436D14";
shapes = (
{
closed = 1;
nodes = (
(50,-74,l),
(484,-74,l),
(484,-44,l),
(50,-44,l)
);
}
);
width = 534;
},
{
layerId = "6C190511-B94A-4F5A-B519-D6E9DB0E7B93";
shapes = (
{
closed = 1;
nodes = (
(47,-122,l),
(516,-122,l),
(516,-44,l),
(47,-44,l)
);
}
);
width = 563;
},
{
layerId = "3507EE3D-0D92-4546-A145-3A991F0A2B71";
shapes = (
{
closed = 1;
nodes = (
(33,-183,l),
(532,-183,l),
(532,-32,l),
(33,-32,l)
);
}
);
width = 565.15493;
}
);
metricLeft = o;
metricRight = o;
unicode = 95;
}
{
color = 7;
glyphname = a;
kernLeft = a;
kernRight = l;
layers = (
{
anchors = (
{
name = bottom;
pos = (264,0);
},
{
name = ogonek;
pos = (510,0);
},
{
name = top;
pos = (264,530);
}
);
background = {
shapes = (
{
closed = 1;
nodes = (
(328,-12,o),
(392,48,o),
(401,102,c),
(392,110,l),
(391,49,o),
(430,0,o),
(507,0,cs),
(534,0,l),
(534,76,l),
(512,76,ls),
(490,76,o),
(480,86,o),
(480,108,cs),
(480,320,ls),
(480,468,o),
(394,542,o),
(266,542,cs),
(156,542,o),
(69,474,o),
(49,374,c),
(141,367,l),
(154,421,o),
(201,460,o),
(266,460,cs),
(354,460,o),
(407,404,o),
(391,287,c),
(438,338,l),
(240,299,ls),
(122,276,o),
(40,249,o),
(40,139,cs),
(40,44,o),
(126,-12,o),
(231,-12,cs)
);
},
{
closed = 1;
nodes = (
(130,213,o),
(194,216,o),
(272,230,cs),
(440,261,l),
(396,267,l),
(396,228,ls),
(396,124,o),
(328,64,o),
(242,64,cs),
(165,64,o),
(130,98,o),
(130,139,cs)
);
}
);
};
layerId = "EE2FFE84-06F1-4AFB-BBEC-60D09A436D14";
shapes = (
{
closed = 1;
nodes = (
(312,-10,o),
(388,34,o),
(424,115,c),
(419,25,o),
(451,0,o),
(498,0,cs),
(510,0,l),
(510,30,l),
(498,30,ls),
(467,30,o),
(454,48,o),
(454,90,cs),
(454,320,ls),
(454,468,o),
(389,542,o),
(258,542,cs),
(149,542,o),
(77,481,o),
(59,373,c),
(92,370,l),
(107,461,o),
(166,512,o),
(258,512,cs),
(372,512,o),
(422,452,o),
(422,315,c),
(232,280,ls),
(139,263,o),
(50,226,o),
(50,131,cs),
(50,48,o),
(116,-10,o),
(223,-12,cs)
);
},
{
closed = 1;
nodes = (
(141,13,o),
(82,60,o),
(82,131,cs),
(82,219,o),
(177,241,o),
(264,257,cs),
(424,287,l),
(425,219,ls),
(427,108,o),
(347,23,o),
(234,18,cs)
);
}
);
width = 545;
},
{
anchors = (
{
name = bottom;
pos = (243,0);
},
{
name = ogonek;
pos = (386,0);
},
{
name = top;
pos = (243,530);
}
);
associatedMasterId = "EE2FFE84-06F1-4AFB-BBEC-60D09A436D14";
background = {
shapes = (
{
closed = 1;
nodes = (
(323,-12,o),
(387,48,o),
(396,102,c),
(387,110,l),
(386,49,o),
(425,0,o),
(502,0,cs),
(529,0,l),
(529,76,l),
(507,76,ls),
(485,76,o),
(475,86,o),
(475,108,cs),
(475,320,ls),
(475,468,o),
(389,542,o),
(261,542,cs),
(151,542,o),
(64,474,o),
(44,374,c),
(136,367,l),
(149,421,o),
(196,460,o),
(261,460,cs),
(349,460,o),
(402,404,o),
(386,287,c),
(433,338,l),
(235,299,ls),
(117,276,o),
(35,249,o),
(35,139,cs),
(35,44,o),
(121,-12,o),
(226,-12,cs)
);
},
{
closed = 1;
nodes = (
(125,213,o),
(189,216,o),
(267,230,cs),
(435,261,l),
(391,267,l),
(391,228,ls),
(391,124,o),
(323,64,o),
(237,64,cs),
(160,64,o),
(125,98,o),
(125,139,cs)
);
}
);
};
layerId = "456932B6-354B-4A2F-81B9-CE7212349174";
name = "30 de mar. de 23 15:28";
shapes = (
{
closed = 1;
nodes = (
(217,280,ls),
(124,263,o),
(35,226,o),
(35,131,cs),
(35,48,o),
(101,-10,o),
(208,-12,cs),
(322,-10,o),
(414,62,o),
(430,192,c),
(411,192,l),
(410,155,o),
(409,127,o),
(409,90,cs),
(409,38,o),
(442,-2,o),
(483,0,cs),
(488,0,o),
(492,0,o),
(496,0,c),
(496,30,l),
(491,30,o),
(488,30,o),
(483,30,cs),
(457,31,o),
(439,56,o),
(439,90,cs),
(439,320,ls),
(439,468,o),
(371,542,o),
(243,542,cs),
(121,542,o),
(46,459,o),
(40,339,c),
(-6,376,l),
(134,366,l),
(77,338,l),
(79,446,o),
(142,512,o),
(243,512,cs),
(346,512,o),
(407,442,o),
(407,327,cs),
(407,303,l),
(430,319,l)
);
},
{
closed = 1;
nodes = (
(67,219,o),
(162,241,o),
(249,257,cs),
(425,290,l),
(409,295,l),
(410,219,ls),
(411,108,o),
(332,23,o),
(219,18,cs),
(126,13,o),
(67,60,o),
(67,131,cs)
);
}
);
width = 526;
},
{
anchors = (
{
name = bottom;
pos = (310,0);
},
{
name = ogonek;
pos = (615,0);
},
{
name = top;
pos = (310,530);
}
);
background = {
shapes = (
{
pos = (-14,0);
ref = e;
}
);
};
guides = (
{
pos = (25,358);
},
{
pos = (234,353);
}
);
layerId = "3507EE3D-0D92-4546-A145-3A991F0A2B71";
shapes = (
{
closed = 1;
nodes = (
(328,-12,o),
(389,21,o),
(418,80,c),
(442,-32,o),
(582,-6,o),
(604,-2,cs),
(615,0,l),
(615,121,l),
(606,121,ls),
(589,121,o),
(572,127,o),
(572,170,cs),
(572,306,ls),
(572,464,o),
(486,542,o),
(308,542,cs),
(151,542,o),
(62,481,o),
(42,358,c),
(234,352,l),
(240,394,o),
(264,415,o),
(307,415,cs),
(352,415,o),
(375,387,o),
(375,330,c),
(236,302,ls),
(101,275,o),
(33,231,o),
(33,140,cs),
(33,47,o),
(114,-12,o),
(223,-12,cs)
);
},
{
closed = 1;
nodes = (
(256,108,o),
(232,123,o),
(232,148,cs),
(232,179,o),
(257,198,o),
(314,210,cs),
(378,223,l),
(378,218,l),
(377,153,o),
(344,111,o),
(292,109,cs)
);
}
);
width = 639;
},
{
anchors = (
{
name = bottom;
pos = (270,0);
},
{
name = ogonek;
pos = (535,0);
},
{
name = top;
pos = (281,530);
}
);
layerId = "6C190511-B94A-4F5A-B519-D6E9DB0E7B93";
shapes = (
{
closed = 1;
nodes = (
(305,-12,o),
(377,27,o),
(403,82,c),
(403,29,o),
(439,0,o),
(504,0,cs),
(535,0,l),
(535,74,l),
(518,74,ls),
(496,74,o),
(486,85,o),
(486,107,cs),
(486,320,ls),
(486,462,o),
(409,542,o),
(273,542,cs),
(160,542,o),
(77,477,o),
(56,374,c),
(145,367,l),
(161,428,o),
(206,462,o),
(273,462,cs),
(358,462,o),
(401,418,o),
(402,329,c),
(247,301,ls),
(129,280,o),
(47,248,o),
(47,139,cs),
(47,46,o),
(117,-12,o),
(228,-12,cs)
);
},
{
closed = 1;
nodes = (
(174,63,o),
(135,92,o),
(135,139,cs),
(135,213,o),
(200,218,o),
(279,232,cs),
(404,254,l),
(404,247,ls),
(404,135,o),
(344,64,o),
(236,63,cs)
);
}
);
width = 570;
}
);
metricLeft = o;
metricRight = "=l-5";
unicode = 97;
}
{
glyphname = b;
kernLeft = b;
kernRight = o;
layers = (
{
background = {
shapes = (
{
closed = 1;
nodes = (
(27,0,l),
(105,0,l),
(109,108,l),
(100,91,l),
(126,26,o),
(185,-12,o),
(275,-12,cs),
(429,-12,o),
(499,120,o),
(499,265,cs),
(499,410,o),
(429,542,o),
(275,542,cs),
(185,542,o),
(126,504,o),
(101,436,c),
(113,422,l),
(113,710,l),
(27,710,l)
);
},
{
closed = 1;
nodes = (
(105,367,o),
(148,464,o),
(257,464,cs),
(367,464,o),
(409,368,o),
(409,265,cs),
(409,166,o),
(367,70,o),
(257,70,cs),
(148,70,o),
(105,167,o),
(105,265,cs)
);
}
);
};
layerId = "EE2FFE84-06F1-4AFB-BBEC-60D09A436D14";
shapes = (
{
closed = 1;
nodes = (
(435,-12,o),
(520,95,o),
(520,265,cs),
(520,433,o),
(435,539,o),
(299,539,cs),
(219,539,o),
(143,482,o),
(115,402,c),
(115,710,l),
(85,710,l),
(85,0,l),
(107,0,l),
(110,130,l),
(146,43,o),
(219,-12,o),
(299,-12,cs)
);
},
{
closed = 1;
nodes = (
(189,17,o),
(112,119,o),
(112,265,cs),
(112,408,o),
(189,509,o),
(299,509,cs),
(415,509,o),
(488,415,o),
(488,265,cs),
(488,113,o),
(415,17,o),
(299,17,cs)
);
}
);
width = 570;
},
{
layerId = "6C190511-B94A-4F5A-B519-D6E9DB0E7B93";
shapes = (
{
closed = 1;
nodes = (
(465,-12,o),
(551,95,o),
(551,265,cs),
(551,435,o),
(465,542,o),
(327,542,cs),
(256,542,o),
(193,510,o),
(164,460,c),
(164,710,l),
(80,710,l),
(80,0,l),
(156,0,l),
(159,76,l),
(189,22,o),
(253,-12,o),
(327,-12,cs)
);
},
{
closed = 1;
nodes = (
(216,68,o),
(156,144,o),
(156,265,cs),
(156,388,o),
(216,466,o),
(310,466,cs),
(403,466,o),
(463,388,o),
(463,265,cs),
(463,144,o),
(403,68,o),
(310,68,cs)
);
}
);
width = 598.03333;
},
{
layerId = "3507EE3D-0D92-4546-A145-3A991F0A2B71";
shapes = (
{
closed = 1;
nodes = (
(542,-12,o),
(628,95,o),
(628,265,cs),
(628,435,o),
(542,542,o),
(404,542,cs),
(339,542,o),
(283,510,o),
(250,454,c),
(250,710,l),
(56,710,l),
(56,0,l),
(245,0,l),
(248,77,l),
(278,21,o),
(334,-12,o),
(404,-12,cs)
);
},
{
closed = 1;
nodes = (
(278,125,o),
(241,181,o),
(241,265,cs),
(241,351,o),
(278,406,o),
(336,406,cs),
(393,406,o),
(430,351,o),
(430,265,cs),
(430,181,o),
(390,125,o),
(336,125,cs)
);
}
);
width = 661.22066;
}
);
metricLeft = n;
metricRight = o;
unicode = 98;
}
{
glyphname = c;
kernLeft = o;
kernRight = o;
layers = (
{
anchors = (
{
name = bottom;
pos = (275,0);
},
{
name = top;
pos = (275,530);
}
);
background = {
shapes = (
{
closed = 1;
nodes = (
(532,360,l),
(506,340,l),
(500,464,o),
(397,542,o),
(283,542,cs),
(136,542,o),
(40,434,o),
(40,265,cs),
(40,96,o),
(136,-12,o),
(283,-12,cs),
(409,-12,o),
(516,82,o),
(511,228,c),
(535,180,l),
(396,190,l),
(420,228,l),
(425,129,o),
(360,70,o),
(283,70,cs),
(186,70,o),
(130,143,o),
(130,265,cs),
(130,387,o),
(186,460,o),
(283,460,cs),
(351,460,o),
(413,413,o),
(416,333,c),
(393,350,l)
);
}
);
};
layerId = "EE2FFE84-06F1-4AFB-BBEC-60D09A436D14";
shapes = (
{
closed = 1;
nodes = (
(396,-12,o),
(467,66,o),
(491,175,c),
(458,178,l),
(434,80,o),
(367,18,o),
(275,18,cs),
(157,18,o),
(82,113,o),
(82,265,cs),
(82,417,o),
(157,512,o),
(275,512,cs),
(364,512,o),
(429,455,o),
(455,363,c),
(488,365,l),
(462,471,o),
(391,542,o),
(275,542,cs),
(125,542,o),
(50,415,o),
(50,265,cs),
(50,115,o),
(125,-12,o),
(275,-12,cs)
);
}
);
width = 531;
},
{
anchors = (
{
name = bottom;
pos = (290,0);
},
{
name = top;
pos = (290,530);
}
);
layerId = "6C190511-B94A-4F5A-B519-D6E9DB0E7B93";
shapes = (
{
closed = 1;
nodes = (
(402,-12,o),
(498,62,o),
(515,182,c),
(426,188,l),
(414,112,o),
(356,68,o),
(290,68,cs),
(192,68,o),
(135,142,o),
(135,265,cs),
(135,388,o),
(192,462,o),
(290,462,cs),
(353,462,o),
(411,421,o),
(422,352,c),
(510,358,l),
(496,472,o),
(398,542,o),
(290,542,cs),
(142,542,o),
(47,433,o),
(47,265,cs),
(47,97,o),
(142,-12,o),
(290,-12,cs)
);
}
);
width = 552.26667;
},
{
anchors = (
{
name = bottom;
pos = (325,0);
},
{
name = top;
pos = (325,530);
}
);
layerId = "3507EE3D-0D92-4546-A145-3A991F0A2B71";
shapes = (
{
closed = 1;
nodes = (
(486,-12,o),
(599,76,o),
(611,216,c),
(412,222,l),
(405,157,o),
(374,127,o),
(325,127,cs),
(265,127,o),
(232,176,o),
(232,265,cs),
(232,354,o),
(265,403,o),
(325,403,cs),
(371,403,o),
(403,371,o),
(411,310,c),
(609,318,l),
(595,457,o),
(482,542,o),
(325,542,cs),
(149,542,o),
(33,432,o),
(33,265,cs),
(33,98,o),
(149,-12,o),
(325,-12,cs)
);
}
);
width = 634;
}
);
metricLeft = o;
metricRight = "=o-10";
unicode = 99;
}
{
glyphname = e;
kernLeft = o;
kernRight = o;
layers = (
{
anchors = (
{
name = bottom;
pos = (275,0);
},
{
name = ogonek;
pos = (338,0);
},
{
name = top;
pos = (275,530);
}
);
background = {
shapes = (
{
closed = 1;
nodes = (
(395,-12,o),
(493,63,o),
(514,181,c),
(533,148,l),
(394,158,l),
(422,180,l),
(403,111,o),
(347,70,o),
(283,70,cs),
(186,70,o),
(130,143,o),
(130,265,cs),
(130,387,o),
(186,460,o),
(283,460,cs),
(355,460,o),
(421,413,o),
(424,265,c),
(514,265,l),
(508,464,o),
(401,542,o),
(283,542,cs),
(136,542,o),
(40,434,o),
(40,265,cs),
(40,96,o),
(136,-12,o),
(283,-12,cs)
);
},
{
closed = 1;
nodes = (
(514,238,l),
(514,275,l),
(509,297,l),
(463,297,l),
(463,314,l),
(84,314,l),
(84,238,l)
);
}
);
};
layerId = "EE2FFE84-06F1-4AFB-BBEC-60D09A436D14";
shapes = (
{
closed = 1;
nodes = (
(50,115,o),
(125,-12,o),
(275,-12,cs),
(373,-12,o),
(454,48,o),
(485,143,c),
(452,145,l),
(423,67,o),
(355,18,o),
(275,18,cs),
(159,18,o),
(84,110,o),
(82,258,c),
(500,258,l),
(500,265,l),
(500,415,o),
(425,542,o),
(275,542,cs),
(125,542,o),
(50,415,o),
(50,265,cs)
);
},
{
closed = 1;
nodes = (
(90,427,o),
(163,512,o),
(275,512,cs),
(387,512,o),
(460,427,o),
(467,288,c),
(83,288,l)
);
}
);
width = 550;
},
{
anchors = (
{
name = bottom;
pos = (265,0);
},
{
name = ogonek;
pos = (328,0);
},
{
name = top;
pos = (265,530);
}
);
associatedMasterId = "EE2FFE84-06F1-4AFB-BBEC-60D09A436D14";
background = {
shapes = (
{
closed = 1;
nodes = (
(395,-12,o),
(493,63,o),
(514,181,c),
(533,148,l),
(394,158,l),
(422,180,l),
(403,111,o),
(347,70,o),
(283,70,cs),
(186,70,o),
(130,143,o),
(130,265,cs),
(130,387,o),
(186,460,o),
(283,460,cs),
(355,460,o),
(421,413,o),
(424,265,c),
(514,265,l),
(508,464,o),
(401,542,o),
(283,542,cs),
(136,542,o),
(40,434,o),
(40,265,cs),
(40,96,o),
(136,-12,o),
(283,-12,cs)
);
},
{
closed = 1;
nodes = (
(514,238,l),
(514,275,l),
(509,297,l),
(463,297,l),
(463,314,l),
(84,314,l),
(84,238,l)
);
}
);
};
layerId = "E9BBF2E6-3E46-4BD2-A166-D8A1CCFF5D66";
name = "24 de feb. de 23 10:25";
shapes = (
{
closed = 1;
nodes = (
(56,258,l),
(490,258,l),
(488,288,l),
(56,288,l)
);
},
{
closed = 1;
nodes = (
(490,259,l),
(490,261,o),
(490,263,o),
(490,265,cs),
(490,415,o),
(415,542,o),
(265,542,cs),
(115,542,o),
(40,415,o),
(40,265,cs),
(40,115,o),
(115,-12,o),
(265,-12,cs),
(363,-12,o),
(444,48,o),
(475,143,c),
(442,145,l),
(413,67,o),
(345,18,o),
(265,18,cs),
(147,18,o),
(72,113,o),
(72,265,cs),
(72,417,o),
(147,512,o),
(265,512,cs),
(383,512,o),
(458,417,o),
(458,265,cs),
(458,263,o),
(458,261,o),
(458,259,c)
);
}
);
width = 525;
},
{
anchors = (
{
name = bottom;
pos = (290,0);
},
{
name = ogonek;
pos = (365,0);
},
{
name = top;
pos = (290,528);
}
);
layerId = "6C190511-B94A-4F5A-B519-D6E9DB0E7B93";
shapes = (
{
closed = 1;
nodes = (
(47,97,o),
(142,-12,o),
(290,-12,cs),
(391,-12,o),
(481,50,o),
(512,150,c),
(422,157,l),
(398,101,o),
(346,68,o),
(290,68,cs),
(199,68,o),
(144,131,o),
(136,239,c),
(520,239,l),
(519,277,l),
(511,465,o),
(407,542,o),
(290,542,cs),
(142,542,o),
(47,433,o),
(47,265,cs)
);
},
{
closed = 1;
nodes = (
(152,407,o),
(206,462,o),
(290,462,cs),
(354,462,o),
(414,424,o),
(428,313,c),
(138,313,l)
);
}
);
width = 567.4;
},
{
anchors = (
{
name = bottom;
pos = (325,0);
},
{
name = ogonek;
pos = (401,0);
},
{
name = top;
pos = (325,529);
}
);
layerId = "3507EE3D-0D92-4546-A145-3A991F0A2B71";
shapes = (
{
closed = 1;
nodes = (
(33,98,o),
(149,-12,o),
(325,-12,cs),
(459,-12,o),
(564,54,o),
(597,161,c),
(404,171,l),
(392,141,o),
(360,120,o),
(325,120,cs),
(272,120,o),
(238,158,o),
(236,217,c),
(603,217,l),
(604,238,l),
(611,423,o),
(492,542,o),
(325,542,cs),
(149,542,o),
(33,432,o),
(33,265,cs)
);
},
{
closed = 1;
nodes = (
(240,375,o),
(274,410,o),
(325,410,cs),
(371,410,o),
(407,379,o),
(411,319,c),
(236,319,l)
);
}
);
width = 637;
}
);
metricLeft = o;
metricRight = o;
unicode = 101;
}
{
glyphname = f;
kernLeft = f;
kernRight = f;
layers = (
{
background = {
shapes = (
{
closed = 1;
nodes = (
(176,0,l),
(176,563,ls),
(176,607,o),
(200,634,o),
(234,634,c),
(316,634,l),
(316,710,l),
(234,710,l),
(135,710,o),
(90,652,o),
(90,563,c),
(90,0,l)
);
},
{
closed = 1;
nodes = (
(309,454,l),
(309,530,l),
(19,530,l),
(19,454,l)
);
}
);
};
layerId = "EE2FFE84-06F1-4AFB-BBEC-60D09A436D14";
shapes = (
{
closed = 1;
nodes = (
(176,0,l),
(176,603,ls),
(176,653,o),
(206,683,o),
(254,683,cs),
(319,683,l),
(319,710,l),
(258,710,ls),
(189,710,o),
(146,667,o),
(146,598,cs),
(146,0,l)
);
},
{
closed = 1;
nodes = (
(319,500,l),
(319,530,l),
(65,530,l),
(65,500,l)
);
}
);
width = 364;
},
{
layerId = "6C190511-B94A-4F5A-B519-D6E9DB0E7B93";
shapes = (
{
closed = 1;
nodes = (
(216,0,l),
(216,564,ls),
(216,609,o),
(240,636,o),
(274,636,cs),
(356,636,l),
(356,710,l),
(274,710,ls),
(176,710,o),
(132,653,o),
(132,564,cs),
(132,0,l)
);
},
{
closed = 1;
nodes = (
(349,456,l),
(349,530,l),
(60,530,l),
(60,456,l)
);
}
);
width = 397.83333;
},
{
layerId = "3507EE3D-0D92-4546-A145-3A991F0A2B71";
shapes = (
{
closed = 1;
nodes = (
(313,0,l),
(313,514,ls),
(313,550,o),
(334,573,o),
(367,573,c),
(454,573,l),
(454,710,l),
(328,710,l),
(182,710,o),
(118,647,o),
(118,514,c),
(118,0,l)
);
},
{
closed = 1;
nodes = (
(445,356,l),
(445,493,l),
(36,493,l),
(36,356,l)
);
}
);
width = 482;
}
);
metricLeft = "=b-20";
metricRight = "=r-5";
unicode = 102;
}
{
glyphname = g;
kernLeft = o;
kernRight = u;
layers = (
{
anchors = (
{
name = top;
pos = (271,530);
}
);
background = {
shapes = (
{
closed = 1;
nodes = (
(331,28,o),
(401,70,o),
(426,154,c),
(412,154,l),
(412,32,ls),
(412,-41,o),
(356,-80,o),
(263,-80,cs),
(182,-80,o),
(133,-35,o),
(119,38,c),
(155,0,l),
(15,-10,l),
(33,37,l),
(41,-80,o),
(132,-162,o),
(263,-162,cs),
(402,-162,o),
(498,-88,o),
(498,52,cs),
(498,530,l),
(416,530,l),
(416,406,l),
(426,406,l),
(419,485,o),
(352,542,o),
(266,542,cs),
(123,542,o),
(27,434,o),
(27,285,cs),
(27,136,o),
(120,28,o),
(266,28,cs)
);
},
{
closed = 1;
nodes = (
(117,387,o),
(173,460,o),
(266,460,cs),
(359,460,o),
(415,387,o),
(413,285,cs),
(412,183,o),
(356,110,o),
(266,110,cs),
(173,110,o),
(117,183,o),
(117,285,cs)
);
}
);
};
layerId = "EE2FFE84-06F1-4AFB-BBEC-60D09A436D14";
shapes = (
{
closed = 1;
nodes = (
(404,-163,o),
(485,-78,o),
(485,57,cs),
(485,530,l),
(455,530,l),
(455,402,l),
(427,482,o),
(351,539,o),
(271,539,cs),
(135,539,o),
(50,441,o),
(50,285,cs),
(50,125,o),
(135,25,o),
(271,25,cs),
(349,25,o),
(421,78,o),
(455,159,c),
(455,57,ls),
(455,-59,o),
(385,-133,o),
(276,-133,cs),
(182,-133,o),
(113,-80,o),
(108,-4,c),
(76,-6,l),
(76,-94,o),
(164,-163,o),
(276,-163,cs)
);
},
{
closed = 1;
nodes = (
(155,55,o),
(82,144,o),
(82,285,cs),
(82,423,o),
(155,509,o),
(271,509,cs),
(381,509,o),
(458,417,o),
(458,285,cs),
(458,150,o),
(381,55,o),
(271,55,cs)
);
}
);
width = 570;
},
{
anchors = (
{
name = top;
pos = (286,530);
}
);
layerId = "6C190511-B94A-4F5A-B519-D6E9DB0E7B93";
shapes = (
{
closed = 1;
nodes = (
(421,-162,o),
(517,-88,o),
(517,52,cs),
(517,530,l),
(437,530,l),
(437,446,l),
(413,505,o),
(352,542,o),
(280,542,cs),
(143,542,o),
(47,436,o),
(47,285,cs),
(47,134,o),
(144,28,o),
(281,28,cs),
(348,28,o),
(407,64,o),
(433,120,c),
(433,33,ls),
(433,-42,o),
(376,-82,o),
(283,-82,cs),
(217,-82,o),
(171,-52,o),
(150,-2,c),
(62,-8,l),
(86,-101,o),
(170,-162,o),
(283,-162,cs)
);
},
{
closed = 1;
nodes = (
(193,108,o),
(135,176,o),
(135,285,cs),
(135,394,o),
(193,462,o),
(286,462,cs),
(378,462,o),
(436,394,o),
(434,285,cs),
(433,176,o),
(375,108,o),
(286,108,cs)
);
}
);
width = 597.06667;
},
{
anchors = (
{
name = top;
pos = (328,530);
}
);
layerId = "3507EE3D-0D92-4546-A145-3A991F0A2B71";
shapes = (
{
closed = 1;
nodes = (
(488,-161,o),
(605,-69,o),
(605,72,cs),
(605,530,l),
(412,530,l),
(412,450,l),
(381,509,o),
(325,542,o),
(260,542,cs),
(122,542,o),
(33,435,o),
(33,271,cs),
(33,120,o),
(122,22,o),
(260,22,cs),
(324,22,o),
(384,52,o),
(409,96,c),
(409,60,ls),
(409,-10,o),
(379,-42,o),
(323,-42,cs),
(285,-42,o),
(255,-25,o),
(246,-1,c),
(50,-14,l),
(84,-104,o),
(188,-161,o),
(320,-161,cs)
);
},
{
closed = 1;
nodes = (
(271,139,o),
(231,193,o),
(231,273,cs),
(231,355,o),
(268,407,o),
(325,407,cs),
(382,407,o),
(419,355,o),
(418,273,cs),
(418,193,o),
(381,139,o),
(325,139,cs)
);
}
);
width = 660.94836;
}
);
metricLeft = o;
metricRight = d;
unicode = 103;
}
{
glyphname = h;
kernLeft = b;
kernRight = n;
layers = (
{
anchors = (
{
name = top;
pos = (100,710);
}
);
background = {
shapes = (
{
closed = 1;
nodes = (
(39,0,l),
(125,0,l),
(125,317,ls),
(125,414,o),
(180,466,o),
(264,466,cs),
(343,466,o),
(375,414,o),
(375,317,cs),
(375,0,l),
(461,0,l),
(461,341,ls),
(461,453,o),
(403,542,o),
(282,542,cs),
(199,542,o),
(130,500,o),
(110,407,c),
(121,395,l),
(117,530,l),
(39,530,l)
);
}
);
};
layerId = "EE2FFE84-06F1-4AFB-BBEC-60D09A436D14";
shapes = (
{
closed = 1;
nodes = (
(115,0,l),
(115,317,ls),
(115,431,o),
(178,512,o),
(289,512,cs),
(398,512,o),
(441,432,o),
(441,317,cs),
(441,0,l),
(471,0,l),
(471,341,ls),
(471,453,o),
(412,542,o),
(297,542,cs),
(201,542,o),
(118,494,o),
(111,385,c),
(115,385,l),
(115,710,l),
(85,710,l),
(85,0,l)
);
}
);
width = 556;
},
{
anchors = (
{
name = top;
pos = (122,710);
}
);
layerId = "6C190511-B94A-4F5A-B519-D6E9DB0E7B93";
shapes = (
{
closed = 1;
nodes = (
(164,0,l),
(164,311,ls),
(164,409,o),
(220,462,o),
(304,462,cs),
(380,462,o),
(417,412,o),
(417,311,cs),
(417,0,l),
(501,0,l),
(501,341,ls),
(501,464,o),
(432,542,o),
(322,542,cs),
(246,542,o),
(175,507,o),
(152,428,c),
(164,413,l),
(164,710,l),
(80,710,l),
(80,0,l)
);
}
);
width = 581.13333;
},
{
anchors = (
{
name = top;
pos = (153,710);
}
);
layerId = "3507EE3D-0D92-4546-A145-3A991F0A2B71";
shapes = (
{
closed = 1;
nodes = (
(250,0,l),
(250,272,ls),
(250,348,o),
(270,392,o),
(319,392,cs),
(371,392,o),
(381,348,o),
(381,272,cs),
(381,0,l),
(575,0,l),
(575,341,ls),
(575,459,o),
(508,542,o),
(397,542,cs),
(307,542,o),
(235,502,o),
(222,370,c),
(250,402,l),
(250,710,l),
(56,710,l),
(56,0,l)
);
}
);
width = 630.60094;
}
);
metricLeft = b;
metricRight = n;
unicode = 104;
}
{
glyphname = k;
kernLeft = n;
kernRight = x;
layers = (
{
anchors = (
{
name = bottom;
pos = (299,0);
},
{
name = top;
pos = (100,710);
}
);
background = {
shapes = (
{
closed = 1;
nodes = (
(39,0,l),
(125,0,l),
(125,710,l),
(39,710,l)
);
},
{
closed = 1;
nodes = (
(503,0,l),
(280,314,l),
(261,278,l),
(493,530,l),
(376,530,l),
(71,186,l),
(71,59,l),
(247,265,l),
(215,265,l),
(397,0,l)
);
}
);
};
layerId = "EE2FFE84-06F1-4AFB-BBEC-60D09A436D14";
shapes = (
{
closed = 1;
nodes = (
(115,0,l),
(115,156,l),
(245,283,l),
(484,0,l),
(521,0,l),
(265,301,l),
(501,530,l),
(459,530,l),
(115,195,l),
(115,710,l),
(85,710,l),
(85,0,l)
);
}
);
width = 570;
},
{
anchors = (
{
name = bottom;
pos = (274,0);
},
{
name = top;
pos = (274,530);
}
);
associatedMasterId = "EE2FFE84-06F1-4AFB-BBEC-60D09A436D14";
background = {
shapes = (
{
closed = 1;
nodes = (
(42,0,l),
(128,0,l),
(128,710,l),
(42,710,l)
);
},
{
closed = 1;
nodes = (
(506,0,l),
(283,314,l),
(264,278,l),
(496,530,l),
(379,530,l),
(74,186,l),
(74,59,l),
(250,265,l),
(218,265,l),
(400,0,l)
);
}
);
};
layerId = "057BC141-43A0-44B5-9F16-EF09775895DB";
name = "24 de feb. de 23 10:41";
shapes = (
{
closed = 1;
nodes = (
(60,0,l),
(90,0,l),
(90,710,l),
(60,710,l)
);
},
{
closed = 1;
nodes = (
(476,530,l),
(434,530,l),
(74,179,l),
(74,141,l)
);
},
{
closed = 1;
nodes = (
(211,294,l),
(459,0,l),
(496,0,l),
(229,314,l)
);
}
);
width = 536;
},
{
anchors = (
{
name = bottom;
pos = (331,0);
},
{
name = top;
pos = (153,710);
}
);
layerId = "3507EE3D-0D92-4546-A145-3A991F0A2B71";
shapes = (
{
closed = 1;
nodes = (
(250,0,l),
(250,158,l),
(303,215,l),
(436,0,l),
(640,0,l),
(424,319,l),
(631,530,l),
(410,530,l),
(250,361,l),
(250,710,l),
(56,710,l),
(56,0,l)
);
}
);
width = 685;
},
{
anchors = (
{
name = bottom;
pos = (298,0);
},
{
name = top;
pos = (122,710);
}
);
layerId = "6C190511-B94A-4F5A-B519-D6E9DB0E7B93";
shapes = (
{
closed = 1;
nodes = (
(164,0,l),
(164,136,l),
(267,247,l),
(440,0,l),
(543,0,l),
(325,305,l),
(533,530,l),
(418,530,l),
(164,245,l),
(164,710,l),
(80,710,l),
(80,0,l)
);
}
);
width = 590.3;
}
);
metricLeft = n;
metricRight = x;
unicode = 107;
}
{
color = 4;
glyphname = l;
kernLeft = l;
kernRight = l;
layers = (
{
anchors = (
{
name = bottom;
pos = (144,0);
},
{
name = top;
pos = (100,710);
},
{
name = topright;
pos = (165,530);
}
);
background = {
anchors = (
{
name = bottom;
pos = (144,0);
},
{
name = top;
pos = (100,710);
},
{
name = topright;
pos = (165,530);
}
);
shapes = (
{
closed = 1;
nodes = (
(203,0,l),
(203,27,l),
(171,27,l),
(135,27,o),
(115,46,o),
(115,80,cs),
(115,710,l),
(85,710,l),
(85,80,l),
(85,27,o),
(116,0,o),
(179,0,c)
);
}
);
};
layerId = "EE2FFE84-06F1-4AFB-BBEC-60D09A436D14";
shapes = (
{
closed = 1;
nodes = (
(203,0,l),
(203,28,l),
(171,28,ls),
(133,28,o),
(115,46,o),
(115,80,cs),
(115,710,l),
(85,710,l),
(85,80,ls),
(85,27,o),
(113,0,o),
(168,0,cs)
);
}
);
width = 243;
},
{
anchors = (
{
name = bottom;
pos = (196,0);
},
{
name = top;
pos = (153,710);
},
{
name = topright;
pos = (260,530);
}
);
background = {
anchors = (
{
name = bottom;
pos = (196,0);
},
{
name = top;
pos = (153,710);
},
{
name = topright;
pos = (260,530);
}
);
shapes = (
{
closed = 1;
nodes = (
(329,0,l),
(329,137,l),
(297,137,l),
(268,137,o),
(250,155,o),
(250,185,cs),
(250,710,l),
(56,710,l),
(56,177,l),
(56,61,o),
(126,0,o),
(233,0,c)
);
}
);
};
layerId = "3507EE3D-0D92-4546-A145-3A991F0A2B71";
shapes = (
{
closed = 1;
nodes = (
(329,0,l),
(329,137,l),
(300,137,ls),
(268,137,o),
(250,150,o),
(250,188,cs),
(250,710,l),
(56,710,l),
(56,166,ls),
(56,48,o),
(116,0,o),
(220,0,cs)
);
}
);
width = 358;
},
{
anchors = (
{
name = bottom;
pos = (166,0);
},
{
name = top;
pos = (122,710);
},
{
name = topright;
pos = (195,530);
}
);
background = {
anchors = (
{
name = bottom;
pos = (166,0);
},
{
name = top;
pos = (122,710);
},
{
name = topright;
pos = (195,530);
}
);
shapes = (
{
closed = 1;
nodes = (
(244,0,l),
(244,74,l),
(198,74,l),
(176,74,o),
(165,85,o),
(165,107,cs),
(165,710,l),
(81,710,l),
(81,103,l),
(81,42,o),
(123,0,o),
(185,0,c)
);
}
);
};
layerId = "6C190511-B94A-4F5A-B519-D6E9DB0E7B93";
shapes = (
{
closed = 1;
nodes = (
(244,0,l),
(244,74,l),
(198,74,ls),
(176,74,o),
(165,85,o),
(165,107,cs),
(165,710,l),
(81,710,l),
(80,100,ls),
(80,30,o),
(123,0,o),
(185,0,cs)
);
}
);
width = 284;
}
);
metricLeft = n;
unicode = 108;
}
{
glyphname = m;
kernLeft = n;
kernRight = n;
layers = (
{
anchors = (
{
name = bottom;
pos = (420,0);
},
{
name = top;
pos = (420,530);
}
);
background = {
shapes = (
{
closed = 1;
nodes = (
(28,0,l),
(114,0,l),
(114,317,ls),
(114,410,o),
(162,466,o),
(243,466,cs),
(306,466,o),
(344,410,o),
(344,317,cs),
(344,0,l),
(430,0,l),
(430,317,ls),
(430,412,o),
(477,466,o),
(559,466,cs),
(623,466,o),
(660,412,o),
(660,317,cs),
(660,0,l),
(746,0,l),
(746,341,ls),
(746,469,o),
(684,542,o),
(577,542,cs),
(482,542,o),
(424,491,o),
(408,400,c),
(424,399,l),
(409,489,o),
(349,542,o),
(261,542,cs),
(176,542,o),
(117,494,o),
(100,410,c),
(111,397,l),
(106,530,l),
(28,530,l)
);
}
);
};
layerId = "EE2FFE84-06F1-4AFB-BBEC-60D09A436D14";
shapes = (
{
closed = 1;
nodes = (
(115,0,l),
(115,317,ls),
(115,426,o),
(187,512,o),
(280,512,cs),
(359,512,o),
(405,437,o),
(405,317,cs),
(405,0,l),
(435,0,l),
(435,308,ls),
(435,422,o),
(507,512,o),
(599,512,cs),
(680,512,o),
(731,436,o),
(731,314,cs),
(731,0,l),
(761,0,l),
(761,338,ls),
(761,458,o),
(696,542,o),
(603,542,cs),
(519,542,o),
(450,487,o),
(428,399,c),
(410,487,o),
(355,542,o),
(286,542,cs),
(202,542,o),
(133,488,o),
(115,415,c),
(113,530,l),
(85,530,l),
(85,0,l)
);
}
);
width = 846;
},
{
associatedMasterId = "EE2FFE84-06F1-4AFB-BBEC-60D09A436D14";
background = {
shapes = (
{
closed = 1;
nodes = (
(11,0,l),
(97,0,l),
(97,317,ls),
(97,410,o),
(145,466,o),
(226,466,cs),
(289,466,o),
(327,410,o),
(327,317,cs),
(327,0,l),
(413,0,l),
(413,317,ls),
(413,412,o),
(460,466,o),
(542,466,cs),
(606,466,o),
(643,412,o),
(643,317,cs),
(643,0,l),
(729,0,l),
(729,341,ls),
(729,469,o),
(667,542,o),
(560,542,cs),
(465,542,o),
(407,491,o),
(391,400,c),
(407,399,l),
(392,489,o),
(332,542,o),
(244,542,cs),
(159,542,o),
(100,494,o),
(83,410,c),
(94,397,l),
(89,530,l),
(11,530,l)
);
}
);
};
layerId = "09ED80C9-A39B-4FA7-92C4-302824AFB0B4";
name = "8 de feb. de 23 15:09";
shapes = (
{
closed = 1;
nodes = (
(40,0,l),
(70,0,l),
(70,317,ls),
(70,426,o),
(142,512,o),
(235,512,cs),
(314,512,o),
(360,437,o),
(360,317,cs),
(360,0,l),
(390,0,l),
(390,341,ls),
(390,459,o),
(327,542,o),
(238,542,cs),
(154,542,o),
(88,488,o),
(70,415,c),
(68,530,l),
(40,530,l)
);
},
{
closed = 1;
nodes = (
(390,308,l),
(390,422,o),
(462,512,o),
(554,512,cs),
(635,512,o),
(686,436,o),
(686,314,cs),
(686,0,l),
(716,0,l),
(716,338,ls),
(716,458,o),
(651,542,o),
(558,542,cs),
(473,542,o),
(406,486,o),
(384,397,c)
);
}
);
width = 756;
},
{
anchors = (
{
name = bottom;
pos = (438,0);
},
{
name = top;
pos = (438,530);
}
);
layerId = "6C190511-B94A-4F5A-B519-D6E9DB0E7B93";
shapes = (
{
closed = 1;
nodes = (
(164,0,l),
(164,317,ls),
(164,411,o),
(213,468,o),
(295,468,cs),
(358,468,o),
(396,411,o),
(396,317,cs),
(396,0,l),
(480,0,l),
(480,317,ls),
(480,412,o),
(528,468,o),
(611,468,cs),
(675,468,o),
(713,413,o),
(713,317,cs),
(713,0,l),
(797,0,l),
(797,341,ls),
(797,469,o),
(735,542,o),
(628,542,cs),
(545,542,o),
(490,502,o),
(467,431,c),
(444,502,o),
(389,542,o),
(312,542,cs),
(239,542,o),
(184,505,o),
(159,441,c),
(157,530,l),
(80,530,l),
(80,0,l)
);
}
);
width = 876.93333;
},
{
anchors = (
{
name = bottom;
pos = (457,0);
},
{
name = top;
pos = (457,530);
}
);
layerId = "3507EE3D-0D92-4546-A145-3A991F0A2B71";
shapes = (
{
closed = 1;
nodes = (
(250,0,l),
(250,274,ls),
(250,354,o),
(270,393,o),
(317,393,cs),
(359,393,o),
(374,358,o),
(374,274,cs),
(374,0,l),
(540,0,l),
(540,274,ls),
(540,354,o),
(560,393,o),
(607,393,cs),
(649,393,o),
(665,356,o),
(665,274,cs),
(665,0,l),
(859,0,l),
(859,341,ls),
(859,475,o),
(785,542,o),
(678,542,cs),
(611,542,o),
(556,507,o),
(527,434,c),
(503,502,o),
(451,542,o),
(379,542,cs),
(314,542,o),
(262,508,o),
(234,450,c),
(230,530,l),
(56,530,l),
(56,0,l)
);
}
);
width = 915.05164;
}
);
metricLeft = n;
metricRight = n;
unicode = 109;
}
{
color = 4;
glyphname = n;
kernLeft = n;
kernRight = n;
layers = (
{
anchors = (
{
name = bottom;
pos = (278,0);
},
{
name = top;
pos = (278,530);
}
);
background = {
anchors = (
{
name = bottom;
pos = (278,0);
},
{
name = top;
pos = (278,530);
}
);
shapes = (
{
closed = 1;
nodes = (
(115,0,l),
(115,317,ls),
(115,431,o),
(178,512,o),
(289,512,cs),
(398,512,o),
(441,432,o),
(441,317,cs),
(441,0,l),
(471,0,l),
(471,341,ls),
(471,453,o),
(412,542,o),
(297,542,cs),
(201,542,o),
(118,494,o),
(111,385,c),
(116,385,l),
(113,530,l),
(85,530,l),
(85,0,l)
);
}
);
};
layerId = "EE2FFE84-06F1-4AFB-BBEC-60D09A436D14";
shapes = (
{
closed = 1;
nodes = (
(115,0,l),
(115,317,ls),
(115,431,o),
(180,512,o),
(290,512,cs),
(400,512,o),
(441,431,o),
(441,317,cs),
(441,0,l),
(471,0,l),
(471,341,ls),
(471,453,o),
(416,542,o),
(296,542,cs),
(201,542,o),
(120,488,o),
(110,384,c),
(115,384,l),
(113,530,l),
(85,530,l),
(85,0,l)
);
}
);
width = 556;
},
{
anchors = (
{
name = bottom;
pos = (315,0);
},
{
name = top;
pos = (315,540);
}
);
background = {
anchors = (
{
name = bottom;
pos = (315,0);
},
{
name = top;
pos = (315,540);
}
);
shapes = (
{
closed = 1;
nodes = (
(250,0,l),
(250,280,ls),
(250,358,o),
(270,403,o),
(319,403,cs),
(371,403,o),
(380,358,o),
(380,280,cs),
(380,0,l),
(575,0,l),
(575,347,ls),
(575,479,o),
(502,552,o),
(390,552,cs),
(298,552,o),
(226,509,o),
(214,372,c),
(239,369,l),
(230,540,l),
(56,540,l),
(56,0,l)
);
}
);
};
layerId = "3507EE3D-0D92-4546-A145-3A991F0A2B71";
shapes = (
{
closed = 1;
nodes = (
(250,0,l),
(250,280,ls),
(250,358,o),
(270,403,o),
(319,403,cs),
(371,403,o),
(381,358,o),
(381,280,cs),
(381,0,l),
(575,0,l),
(575,347,ls),
(575,479,o),
(502,552,o),
(390,552,cs),
(298,552,o),
(226,507,o),
(214,370,c),
(238,368,l),
(230,540,l),
(56,540,l),
(56,0,l)
);
}
);
width = 631;
},
{
anchors = (
{
name = bottom;
pos = (291,0);
},
{
name = top;
pos = (291,530);
}
);
background = {
anchors = (
{
name = bottom;
pos = (291,0);
},
{
name = top;
pos = (291,530);
}
);
shapes = (
{
closed = 1;
nodes = (
(164,0,l),
(164,317,ls),
(164,415,o),
(220,468,o),
(304,468,cs),
(384,468,o),
(417,415,o),
(417,317,cs),
(417,0,l),
(501,0,l),
(501,341,ls),
(501,453,o),
(443,542,o),
(322,542,cs),
(239,542,o),
(169,500,o),
(150,406,c),
(160,395,l),
(157,530,l),
(80,530,l),
(80,0,l)
);
}
);
};
layerId = "6C190511-B94A-4F5A-B519-D6E9DB0E7B93";
shapes = (
{
closed = 1;
nodes = (
(164,0,l),
(164,317,ls),
(164,415,o),
(222,468,o),
(304,468,cs),
(384,468,o),
(417,415,o),
(417,317,cs),
(417,0,l),
(501,0,l),
(501,341,ls),
(501,453,o),
(443,542,o),
(322,542,cs),
(239,542,o),
(170,498,o),
(150,404,c),
(160,395,l),
(157,530,l),
(80,530,l),
(80,0,l)
);
}
);
width = 581;
}
);
unicode = 110;
}
{
glyphname = o;
kernLeft = o;
kernRight = o;
layers = (
{
anchors = (
{
name = bottom;
pos = (275,0);
},
{
name = top;
pos = (275,530);
}
);
background = {
shapes = (
{
closed = 1;
nodes = (
(412,-12,o),
(508,96,o),
(508,265,cs),
(508,434,o),
(412,542,o),
(265,542,cs),
(118,542,o),
(22,434,o),
(22,265,cs),
(22,96,o),
(118,-12,o),
(265,-12,cs)
);
},
{
closed = 1;
nodes = (
(168,70,o),
(112,143,o),
(112,265,cs),
(112,387,o),
(168,460,o),
(265,460,cs),
(362,460,o),
(418,387,o),
(418,265,cs),
(418,143,o),
(362,70,o),
(265,70,cs)
);
}
);
};
layerId = "EE2FFE84-06F1-4AFB-BBEC-60D09A436D14";
shapes = (
{
closed = 1;
nodes = (
(413,-12,o),
(500,95,o),
(500,265,cs),
(500,435,o),
(413,542,o),
(275,542,cs),
(137,542,o),
(50,435,o),
(50,265,cs),
(50,95,o),
(137,-12,o),
(275,-12,cs)
);
},
{
closed = 1;
nodes = (
(156,18,o),
(82,113,o),
(82,265,cs),
(82,417,o),
(156,512,o),
(275,512,cs),
(394,512,o),
(468,417,o),
(468,265,cs),
(468,113,o),
(394,18,o),
(275,18,cs)
);
}
);
width = 550;
},
{
anchors = (
{
name = bottom;
pos = (290,0);
},
{
name = top;
pos = (290,530);
}
);
layerId = "6C190511-B94A-4F5A-B519-D6E9DB0E7B93";
shapes = (
{
closed = 1;
nodes = (
(436,-12,o),
(532,96,o),
(532,265,cs),
(532,434,o),
(436,542,o),
(290,542,cs),
(143,542,o),
(47,434,o),
(47,265,cs),
(47,96,o),
(143,-12,o),
(290,-12,cs)
);
},
{
closed = 1;
nodes = (
(192,68,o),
(135,142,o),
(135,265,cs),
(135,388,o),
(192,462,o),
(290,462,cs),
(387,462,o),
(444,388,o),
(444,265,cs),
(444,142,o),
(387,68,o),
(290,68,cs)
);
}
);
width = 579;
},
{
anchors = (
{
name = bottom;
pos = (325,0);
},
{
name = top;
pos = (325,530);
}
);
layerId = "3507EE3D-0D92-4546-A145-3A991F0A2B71";
shapes = (
{
closed = 1;
nodes = (
(501,-12,o),
(617,98,o),
(617,265,cs),
(617,432,o),
(501,542,o),
(325,542,cs),
(149,542,o),
(33,432,o),
(33,265,cs),
(33,98,o),
(149,-12,o),
(325,-12,cs)
);
},
{
closed = 1;
nodes = (
(265,127,o),
(232,176,o),
(232,265,cs),
(232,354,o),
(265,403,o),
(325,403,cs),
(385,403,o),
(418,354,o),
(418,265,cs),
(418,176,o),
(385,127,o),
(325,127,cs)
);
}
);
width = 650.11268;
}
);
unicode = 111;
}
{
glyphname = p;
kernLeft = n;
kernRight = o;
layers = (
{
background = {
shapes = (
{
closed = 1;
nodes = (
(123,-150,l),
(123,112,l),
(111,98,l),
(136,26,o),
(195,-12,o),
(280,-12,cs),
(439,-12,o),
(509,120,o),
(509,265,cs),
(509,410,o),
(439,542,o),
(280,542,cs),
(195,542,o),
(136,504,o),
(110,435,c),
(119,418,l),
(115,530,l),
(37,530,l),
(37,-150,l)
);
},
{
closed = 1;
nodes = (
(113,363,o),
(157,460,o),
(265,460,cs),
(374,460,o),
(417,364,o),
(417,265,cs),
(417,166,o),
(374,70,o),
(265,70,cs),
(157,70,o),
(113,167,o),
(113,265,cs)
);
}
);
};
layerId = "EE2FFE84-06F1-4AFB-BBEC-60D09A436D14";
shapes = (
{
closed = 1;
nodes = (
(115,-150,l),
(115,173,l),
(107,158,l),
(124,63,o),
(209,-9,o),
(299,-9,cs),
(435,-9,o),
(520,97,o),
(520,265,cs),
(520,435,o),
(435,542,o),
(299,542,cs),
(209,542,o),
(129,473,o),
(99,367,c),
(111,355,l),
(107,530,l),
(85,530,l),
(85,-150,l)
);
},
{
closed = 1;
nodes = (
(112,404,o),
(194,513,o),
(299,513,cs),
(415,513,o),
(488,417,o),
(488,265,cs),
(488,115,o),
(415,21,o),
(299,21,cs),
(194,21,o),
(112,128,o),
(112,265,cs)
);
}
);
width = 570;
},
{
layerId = "6C190511-B94A-4F5A-B519-D6E9DB0E7B93";
shapes = (
{
closed = 1;
nodes = (
(164,-150,l),
(164,114,l),
(152,100,l),
(177,27,o),
(237,-12,o),
(322,-12,cs),
(480,-12,o),
(551,119,o),
(551,265,cs),
(551,411,o),
(480,542,o),
(322,542,cs),
(237,542,o),
(177,503,o),
(151,433,c),
(160,416,l),
(156,530,l),
(80,530,l),
(80,-150,l)
);
},
{
closed = 1;
nodes = (
(155,364,o),
(200,462,o),
(308,462,cs),
(417,462,o),
(461,366,o),
(461,265,cs),
(461,164,o),
(417,68,o),
(308,68,cs),
(200,68,o),
(155,166,o),
(155,265,cs)
);
}
);
width = 598.03333;
},
{
layerId = "3507EE3D-0D92-4546-A145-3A991F0A2B71";
shapes = (
{
closed = 1;
nodes = (
(250,-150,l),
(250,110,l),
(237,106,l),
(267,30,o),
(326,-12,o),
(402,-12,cs),
(546,-12,o),
(628,102,o),
(628,265,cs),
(628,428,o),
(546,542,o),
(402,542,cs),
(322,542,o),
(262,500,o),
(236,424,c),
(249,420,l),
(245,530,l),
(56,530,l),
(56,-150,l)
);
},
{
closed = 1;
nodes = (
(240,342,o),
(273,405,o),
(335,405,cs),
(394,405,o),
(429,343,o),
(429,265,cs),
(429,185,o),
(397,125,o),
(335,125,cs),
(274,125,o),
(240,185,o),
(240,265,cs)
);
}
);
width = 661.22066;
}
);
metricLeft = n;
metricRight = o;
unicode = 112;
}
{
glyphname = r;
kernLeft = n;
kernRight = r;
layers = (
{
anchors = (
{
name = bottom;
pos = (100,0);
},
{
name = top;
pos = (179,530);
}
);
background = {
shapes = (
{
closed = 1;
nodes = (
(56,0,l),
(142,0,l),
(142,316,ls),
(142,407,o),
(179,454,o),
(260,454,cs),
(312,454,l),
(312,530,l),
(260,530,ls),
(177,530,o),
(141,488,o),
(129,410,c),
(136,402,l),
(132,530,l),
(56,530,l)
);
}
);
};
layerId = "EE2FFE84-06F1-4AFB-BBEC-60D09A436D14";
shapes = (
{
closed = 1;
nodes = (
(115,0,l),
(115,316,ls),
(115,421,o),
(173,503,o),
(259,503,cs),
(293,503,l),
(293,530,l),
(259,530,ls),
(176,530,o),
(125,472,o),
(100,370,c),
(112,360,l),
(107,530,l),
(85,530,l),
(85,0,l)
);
}
);
width = 343;
},
{
anchors = (
{
name = bottom;
pos = (153,0);
},
{
name = top;
pos = (255,530);
}
);
layerId = "3507EE3D-0D92-4546-A145-3A991F0A2B71";
shapes = (
{
closed = 1;
nodes = (
(250,0,l),
(250,280,ls),
(250,357,o),
(284,393,o),
(375,393,cs),
(423,393,l),
(423,530,l),
(377,530,ls),
(297,530,o),
(254,472,o),
(237,365,c),
(250,363,l),
(245,530,l),
(56,530,l),
(56,0,l)
);
}
);
width = 456;
},
{
anchors = (
{
name = bottom;
pos = (122,0);
},
{
name = top;
pos = (196,530);
}
);
layerId = "6C190511-B94A-4F5A-B519-D6E9DB0E7B93";
shapes = (
{
closed = 1;
nodes = (
(164,0,l),
(164,316,ls),
(164,407,o),
(202,456,o),
(283,456,cs),
(335,456,l),
(335,530,l),
(283,530,ls),
(203,530,o),
(163,489,o),
(150,399,c),
(158,391,l),
(154,530,l),
(80,530,l),
(80,0,l)
);
}
);
width = 381.66667;
}
);
metricLeft = n;
metricRight = o;
unicode = 114;
}
{
color = 7;
glyphname = s;
kernLeft = o;
kernRight = o;
layers = (
{
anchors = (
{
name = bottom;
pos = (262,0);
},
{
name = top;
pos = (252,530);
}
);
background = {
shapes = (
{
closed = 1;
nodes = (
(458,458,o),
(367,542,o),
(242,542,cs),
(134,542,o),
(38,482,o),
(38,374,cs),
(38,276,o),
(142,242,o),
(238,219,cs),
(294,206,o),
(368,198,o),
(368,140,cs),
(368,84,o),
(307,70,o),
(251,70,cs),
(162,70,o),
(97,129,o),
(110,217,c),
(174,178,l),
(-18,164,l),
(23,217,l),
(1,79,o),
(111,-12,o),
(251,-12,cs),
(355,-12,o),
(458,31,o),
(458,135,cs),
(458,237,o),
(352,269,o),
(253,294,cs),
(197,309,o),
(128,321,o),
(128,379,cs),
(128,433,o),
(179,460,o),
(233,460,cs),
(312,460,o),
(376,412,o),
(372,333,c),
(340,364,l),
(478,374,l),
(458,333,l)
);
}
);
};
layerId = "EE2FFE84-06F1-4AFB-BBEC-60D09A436D14";
shapes = (
{
closed = 1;
nodes = (
(382,-12,o),
(458,40,o),
(458,130,cs),
(458,204,o),
(393,239,o),
(263,272,cs),
(145,304,o),
(103,338,o),
(100,392,cs),
(96,462,o),
(155,512,o),
(243,512,cs),
(333,512,o),
(398,461,o),
(412,379,c),
(443,385,l),
(428,477,o),
(349,542,o),
(252,542,cs),
(140,542,o),
(64,480,o),
(68,392,cs),
(71,321,o),
(125,283,o),
(248,246,cs),
(318,225,o),
(426,208,o),
(426,130,cs),
(426,55,o),
(362,18,o),
(261,18,cs),
(160,18,o),
(81,80,o),
(81,159,c),
(50,155,l),
(51,61,o),
(144,-12,o),
(261,-12,cs)
);
}
);
width = 508;
},
{
anchors = (
{
name = bottom;
pos = (268,0);
},
{
name = top;
pos = (265,530);
}
);
layerId = "6C190511-B94A-4F5A-B519-D6E9DB0E7B93";
shapes = (
{
closed = 1;
nodes = (
(377,-12,o),
(483,32,o),
(483,135,cs),
(483,240,o),
(395,273,o),
(275,296,cs),
(217,308,o),
(148,329,o),
(148,381,cs),
(148,432,o),
(196,462,o),
(255,462,cs),
(314,462,o),
(373,426,o),
(385,366,c),
(473,372,l),
(456,475,o),
(369,542,o),
(264,542,cs),
(142,542,o),
(60,478,o),
(60,377,cs),
(60,274,o),
(163,246,o),
(260,224,cs),
(320,210,o),
(395,203,o),
(395,140,cs),
(395,85,o),
(328,68,o),
(276,68,cs),
(197,68,o),
(146,109,o),
(135,173,c),
(47,167,l),
(55,57,o),
(151,-12,o),
(276,-12,cs)
);
}
);
width = 530.23333;
},
{
anchors = (
{
name = bottom;
pos = (311,0);
},
{
name = top;
pos = (310,530);
}
);
background = {
shapes = (
{
pos = (-12,0);
ref = e;
}
);
};
layerId = "3507EE3D-0D92-4546-A145-3A991F0A2B71";
shapes = (
{
closed = 1;
nodes = (
(472,-12,o),
(572,51,o),
(572,152,cs),
(572,251,o),
(504,299,o),
(326,325,cs),
(269,333,o),
(247,345,o),
(245,371,cs),
(242,400,o),
(265,419,o),
(306,419,cs),
(343,419,o),
(374,396,o),
(380,352,c),
(572,358,l),
(555,472,o),
(454,543,o),
(310,543,cs),
(148,543,o),
(46,477,o),
(46,373,cs),
(46,278,o),
(111,230,o),
(282,200,cs),
(327,191,o),
(372,186,o),
(373,153,cs),
(375,125,o),
(343,112,o),
(311,112,cs),
(264,112,o),
(235,134,o),
(227,177,c),
(33,170,l),
(42,58,o),
(150,-12,o),
(314,-12,cs)
);
}
);
width = 605;
}
);
metricLeft = o;
metricRight = o;
unicode = 115;
}
{
glyphname = t;
kernLeft = t;
kernRight = t;
layers = (
{
anchors = (
{
name = bottom;
pos = (227,0);
},
{
name = center;
pos = (176,265);
},
{
name = top;
pos = (176,530);
},
{
name = topright;
pos = (203,607);
}
);
background = {
shapes = (
{
closed = 1;
nodes = (
(85,147,l),
(85,58,o),
(130,0,o),
(239,0,c),
(301,0,l),
(301,76,l),
(239,76,l),
(195,76,o),
(171,103,o),
(171,147,cs),
(171,650,l),
(85,650,l)
);
},
{
closed = 1;
nodes = (
(14,454,l),
(314,454,l),
(314,530,l),
(14,530,l)
);
}
);
};
layerId = "EE2FFE84-06F1-4AFB-BBEC-60D09A436D14";
shapes = (
{
closed = 1;
nodes = (
(312,0,l),
(312,27,l),
(256,27,ls),
(209,27,o),
(183,56,o),
(183,107,cs),
(183,654,l),
(153,654,l),
(153,107,ls),
(153,41,o),
(193,0,o),
(256,0,cs)
);
},
{
closed = 1;
nodes = (
(312,500,l),
(312,530,l),
(60,530,l),
(60,500,l)
);
}
);
width = 352;
},
{
anchors = (
{
name = bottom;
pos = (271,0);
},
{
name = center;
pos = (241,265);
},
{
name = top;
pos = (241,530);
},
{
name = topright;
pos = (328,668);
}
);
layerId = "3507EE3D-0D92-4546-A145-3A991F0A2B71";
shapes = (
{
closed = 1;
nodes = (
(458,0,l),
(458,137,l),
(373,137,l),
(338,137,o),
(318,159,o),
(318,195,cs),
(318,655,l),
(123,655,l),
(123,195,l),
(123,62,o),
(189,0,o),
(320,0,c)
);
},
{
closed = 1;
nodes = (
(455,394,l),
(455,530,l),
(31,530,l),
(31,394,l)
);
}
);
width = 481;
},
{
anchors = (
{
name = bottom;
pos = (234,0);
},
{
name = center;
pos = (198,265);
},
{
name = top;
pos = (198,530);
},
{
name = topright;
pos = (226,616);
}
);
layerId = "6C190511-B94A-4F5A-B519-D6E9DB0E7B93";
shapes = (
{
closed = 1;
nodes = (
(356,0,l),
(356,74,l),
(280,74,ls),
(238,74,o),
(217,97,o),
(217,141,cs),
(217,654,l),
(133,654,l),
(133,141,ls),
(133,51,o),
(185,0,o),
(280,0,cs)
);
},
{
closed = 1;
nodes = (
(358,456,l),
(358,530,l),
(55,530,l),
(55,456,l)
);
}
);
width = 395;
}
);
metricLeft = "=f-5";
metricRight = c;
unicode = 116;
}
{
glyphname = u;
kernLeft = u;
kernRight = u;
layers = (
{
anchors = (
{
name = bottom;
pos = (278,0);
},
{
name = ogonek;
pos = (471,0);
},
{
name = top;
pos = (278,530);
}
);
layerId = "EE2FFE84-06F1-4AFB-BBEC-60D09A436D14";
shapes = (
{
closed = 1;
nodes = (
(355,-12,o),
(438,36,o),
(445,145,c),
(440,145,l),
(443,0,l),
(471,0,l),
(471,530,l),
(441,530,l),
(441,213,ls),
(441,99,o),
(378,18,o),
(267,18,cs),
(158,18,o),
(115,98,o),
(115,213,cs),
(115,530,l),
(85,530,l),
(85,189,ls),
(85,77,o),
(144,-12,o),
(259,-12,cs)
);
}
);
width = 556;
},
{
anchors = (
{
name = bottom;
pos = (313,0);
},
{
name = ogonek;
pos = (573,0);
},
{
name = top;
pos = (313,530);
}
);
layerId = "3507EE3D-0D92-4546-A145-3A991F0A2B71";
shapes = (
{
closed = 1;
nodes = (
(331,-12,o),
(402,30,o),
(415,165,c),
(390,168,l),
(398,0,l),
(573,0,l),
(573,530,l),
(379,530,l),
(379,256,ls),
(379,180,o),
(360,137,o),
(311,137,cs),
(259,137,o),
(250,180,o),
(250,256,cs),
(250,530,l),
(56,530,l),
(56,189,ls),
(56,59,o),
(129,-12,o),
(239,-12,cs)
);
}
);
width = 628.96714;
},
{
anchors = (
{
name = bottom;
pos = (284,0);
},
{
name = ogonek;
pos = (495,0);
},
{
name = top;
pos = (284,530);
}
);
layerId = "6C190511-B94A-4F5A-B519-D6E9DB0E7B93";
shapes = (
{
closed = 1;
nodes = (
(336,-12,o),
(405,29,o),
(425,120,c),
(415,131,l),
(415,0,l),
(495,0,l),
(495,530,l),
(411,530,l),
(411,214,ls),
(411,115,o),
(356,62,o),
(274,62,cs),
(197,62,o),
(164,115,o),
(164,214,cs),
(164,530,l),
(80,530,l),
(80,189,ls),
(80,77,o),
(138,-12,o),
(256,-12,cs)
);
}
);
width = 575.33333;
}
);
metricLeft = n;
metricRight = n;
unicode = 117;
}
{
glyphname = v;
kernLeft = v;
kernRight = v;
layers = (
{
background = {
shapes = (
{
pos = (-101,0);
ref = V;
}
);
};
layerId = "EE2FFE84-06F1-4AFB-BBEC-60D09A436D14";
shapes = (
{
closed = 1;
nodes = (
(260,0,l),
(458,530,l),
(426,530,l),
(241,31,l),
(56,530,l),
(24,530,l),
(222,0,l)
);
}
);
width = 482;
},
{
layerId = "6C190511-B94A-4F5A-B519-D6E9DB0E7B93";
shapes = (
{
closed = 1;
nodes = (
(321,0,l),
(514,530,l),
(424,530,l),
(268,88,l),
(112,530,l),
(22,530,l),
(215,0,l)
);
}
);
width = 536.13333;
},
{
layerId = "3507EE3D-0D92-4546-A145-3A991F0A2B71";
shapes = (
{
closed = 1;
nodes = (
(439,0,l),
(638,530,l),
(440,530,l),
(329,192,l),
(218,530,l),
(21,530,l),
(219,0,l)
);
}
);
width = 658.15023;
}
);
unicode = 118;
}
{
glyphname = x;
kernLeft = x;
kernRight = x;
layers = (
{
background = {
shapes = (
{
closed = 1;
nodes = (
(530,0,l),
(325,289,l),
(317,242,l),
(521,530,l),
(415,530,l),
(269,316,l),
(303,311,l),
(152,530,l),
(47,530,l),
(249,247,l),
(248,296,l),
(37,0,l),
(142,0,l),
(291,215,l),
(268,228,l),
(425,0,l)
);
}
);
};
layerId = "EE2FFE84-06F1-4AFB-BBEC-60D09A436D14";
shapes = (
{
closed = 1;
nodes = (
(86,0,l),
(268,248,l),
(450,0,l),
(487,0,l),
(290,266,l),
(480,530,l),
(443,530,l),
(268,285,l),
(93,530,l),
(56,530,l),
(246,266,l),
(49,0,l)
);
}
);
width = 536;
},
{
layerId = "3507EE3D-0D92-4546-A145-3A991F0A2B71";
shapes = (
{
closed = 1;
nodes = (
(252,0,l),
(348,151,l),
(442,0,l),
(649,0,l),
(457,268,l),
(645,531,l),
(440,531,l),
(348,386,l),
(255,531,l),
(50,531,l),
(237,268,l),
(46,0,l)
);
}
);
width = 694.26761;
},
{
layerId = "6C190511-B94A-4F5A-B519-D6E9DB0E7B93";
shapes = (
{
closed = 1;
nodes = (
(150,0,l),
(293,206,l),
(436,0,l),
(538,0,l),
(346,271,l),
(529,530,l),
(426,530,l),
(293,336,l),
(160,530,l),
(57,530,l),
(241,272,l),
(47,0,l)
);
}
);
width = 585.3;
}
);
metricLeft = "=v+25";
metricRight = "=v+25";
unicode = 120;
}
{
glyphname = y;
kernLeft = v;
kernRight = v;
layers = (
{
anchors = (
{
name = top;
pos = (256,530);
}
);
background = {
shapes = (
{
closed = 1;
nodes = (
(194,10,l),
(223,10,l),
(204,-39,ls),
(194,-64,o),
(179,-74,o),
(154,-74,cs),
(88,-74,l),
(88,-150,l),
(163,-150,ls),
(223,-150,o),
(261,-124,o),
(281,-67,cs),
(495,530,l),
(404,530,l),
(251,92,l),
(93,530,l),
(1,530,l)
);
}
);
};
layerId = "EE2FFE84-06F1-4AFB-BBEC-60D09A436D14";
shapes = (
{
closed = 1;
nodes = (
(131,-150,ls),
(193,-150,o),
(227,-125,o),
(249,-67,cs),
(473,530,l),
(441,530,l),
(256,31,l),
(56,530,l),
(24,530,l),
(233,10,l),
(249,10,l),
(230,-39,ls),
(204,-105,o),
(185,-123,o),
(132,-123,cs),
(92,-123,l),
(92,-150,l)
);
}
);
width = 497;
},
{
anchors = (
{
name = top;
pos = (269,530);
}
);
layerId = "6C190511-B94A-4F5A-B519-D6E9DB0E7B93";
shapes = (
{
closed = 1;
nodes = (
(182,-150,ls),
(242,-150,o),
(280,-124,o),
(300,-67,cs),
(515,530,l),
(426,530,l),
(271,90,l),
(112,530,l),
(22,530,l),
(216,10,l),
(244,10,l),
(225,-39,ls),
(215,-65,o),
(200,-76,o),
(174,-76,cs),
(113,-76,l),
(113,-150,l)
);
}
);
width = 536.63333;
},
{
anchors = (
{
name = top;
pos = (312,530);
}
);
layerId = "3507EE3D-0D92-4546-A145-3A991F0A2B71";
shapes = (
{
closed = 1;
nodes = (
(229,-150,ls),
(317,-150,o),
(368,-116,o),
(396,-40,cs),
(600,530,l),
(423,530,l),
(313,201,l),
(198,530,l),
(21,530,l),
(210,39,l),
(261,39,l),
(252,17,ls),
(241,-8,o),
(224,-17,o),
(187,-17,cs),
(116,-17,l),
(116,-150,l)
);
}
);
width = 620;
}
);
metricLeft = v;
metricRight = v;
unicode = 121;
}
{
glyphname = z;
kernLeft = z;
kernRight = z;
layers = (
{
anchors = (
{
name = bottom;
pos = (269,0);
},
{
name = top;
pos = (269,530);
}
);
background = {
shapes = (
{
closed = 1;
nodes = (
(502,530,l),
(84,530,l),
(84,448,l),
(461,448,l),
(441,494,l),
(42,65,l),
(74,180,l),
(74,0,l),
(510,0,l),
(510,82,l),
(117,82,l),
(138,44,l),
(533,468,l),
(502,409,l)
);
}
);
};
layerId = "EE2FFE84-06F1-4AFB-BBEC-60D09A436D14";
shapes = (
{
closed = 1;
nodes = (
(477,0,l),
(477,30,l),
(95,30,l),
(469,500,l),
(469,530,l),
(69,530,l),
(69,500,l),
(433,500,l),
(59,30,l),
(59,0,l)
);
}
);
width = 536;
},
{
anchors = (
{
name = bottom;
pos = (276,0);
},
{
name = top;
pos = (276,530);
}
);
layerId = "6C190511-B94A-4F5A-B519-D6E9DB0E7B93";
shapes = (
{
closed = 1;
nodes = (
(492,0,l),
(492,74,l),
(148,74,l),
(484,437,l),
(484,530,l),
(67,530,l),
(67,456,l),
(394,456,l),
(57,91,l),
(57,0,l)
);
}
);
width = 549;
},
{
anchors = (
{
name = bottom;
pos = (318,0);
},
{
name = top;
pos = (318,530);
}
);
layerId = "3507EE3D-0D92-4546-A145-3A991F0A2B71";
shapes = (
{
closed = 1;
nodes = (
(571,0,l),
(571,137,l),
(287,137,l),
(564,398,l),
(564,530,l),
(75,530,l),
(75,393,l),
(325,393,l),
(56,136,l),
(56,0,l)
);
}
);
width = 626;
}
);
metricLeft = "=x+10";
metricRight = "=x+10";
unicode = 122;
}
{
glyphname = braceleft;
layers = (
{
background = {
shapes = (
{
closed = 1;
nodes = (
(-2,235,l),
(58,237,o),
(101,181,o),
(101,100,cs),
(101,17,ls),
(101,-84,o),
(175,-155,o),
(281,-155,cs),
(328,-155,l),
(328,-75,l),
(222,-79,o),
(182,-54,o),
(182,15,cs),
(182,107,ls),
(182,210,o),
(119,281,o),
(30,281,c),
(30,276,l),
(119,274,o),
(182,345,o),
(182,448,cs),
(182,540,ls),
(182,609,o),
(222,634,o),
(328,630,c),
(328,710,l),
(281,710,ls),
(175,710,o),
(101,639,o),
(101,538,cs),
(101,455,ls),
(101,374,o),
(58,318,o),
(-2,320,c)
);
}
);
};
layerId = "EE2FFE84-06F1-4AFB-BBEC-60D09A436D14";
shapes = (
{
closed = 1;
nodes = (
(338,-113,l),
(338,-83,l),
(243,-83,o),
(192,-29,o),
(192,57,cs),
(192,149,ls),
(192,244,o),
(147,312,o),
(82,319,c),
(82,320,l),
(146,327,o),
(192,394,o),
(192,488,cs),
(192,580,ls),
(192,666,o),
(243,720,o),
(338,720,c),
(338,750,l),
(324,750,ls),
(223,750,o),
(160,684,o),
(160,578,cs),
(160,488,ls),
(160,393,o),
(113,334,o),
(50,334,c),
(50,303,l),
(113,303,o),
(160,244,o),
(160,149,cs),
(160,59,ls),
(160,-47,o),
(223,-113,o),
(324,-113,cs)
);
}
);
width = 368;
},
{
associatedMasterId = "EE2FFE84-06F1-4AFB-BBEC-60D09A436D14";
layerId = "27AC9A21-3019-4552-A298-52D9AE209BDC";
name = "24 de ene. de 23 14:05";
shapes = (
{
closed = 1;
nodes = (
(56,323,o),
(101,383,o),
(101,460,c),
(101,543,l),
(101,644,o),
(175,715,o),
(281,715,cs),
(313,715,l),
(313,634,l),
(219,634,o),
(183,608,o),
(183,543,c),
(183,453,l),
(183,352,o),
(121,280,o),
(32,280,cs),
(-2,280,l),
(-2,325,l)
);
},
{
closed = 1;
nodes = (
(-2,285,l),
(32,285,ls),
(121,285,o),
(183,213,o),
(183,112,c),
(183,22,l),
(183,-43,o),
(219,-69,o),
(313,-69,c),
(313,-150,l),
(281,-150,ls),
(175,-150,o),
(101,-79,o),
(101,22,c),
(101,105,l),
(101,182,o),
(56,242,o),
(-2,240,c)
);
}
);
width = 445;
},
{
layerId = "3507EE3D-0D92-4546-A145-3A991F0A2B71";
shapes = (
{
closed = 1;
nodes = (
(405,-132,l),
(405,25,l),
(337,22,o),
(302,52,o),
(302,109,cs),
(302,154,ls),
(302,244,o),
(237,308,o),
(144,312,c),
(144,321,l),
(236,325,o),
(302,389,o),
(302,479,cs),
(302,524,ls),
(302,577,o),
(337,603,o),
(405,601,c),
(405,764,l),
(358,764,ls),
(216,764,o),
(117,681,o),
(117,564,cs),
(117,481,ls),
(117,399,o),
(95,386,o),
(35,387,c),
(35,246,l),
(95,246,o),
(117,233,o),
(117,152,cs),
(117,69,ls),
(117,-48,o),
(216,-132,o),
(358,-132,cs)
);
}
);
width = 434;
},
{
layerId = "6C190511-B94A-4F5A-B519-D6E9DB0E7B93";
shapes = (
{
closed = 1;
nodes = (
(378,-115,l),
(378,-37,l),
(272,-40,o),
(232,-14,o),
(232,55,cs),
(232,147,ls),
(232,238,o),
(183,304,o),
(110,318,c),
(110,319,l),
(181,333,o),
(232,398,o),
(232,488,cs),
(232,580,ls),
(232,650,o),
(272,676,o),
(378,672,c),
(378,750,l),
(332,750,ls),
(226,750,o),
(152,679,o),
(152,578,cs),
(152,495,ls),
(152,413,o),
(109,357,o),
(49,359,c),
(49,276,l),
(109,278,o),
(152,222,o),
(152,140,cs),
(152,57,ls),
(152,-44,o),
(226,-115,o),
(332,-115,cs)
);
}
);
width = 405;
}
);
metricLeft = O;
metricRight = X;
unicode = 123;
}
{
glyphname = bar;
layers = (
{
layerId = "EE2FFE84-06F1-4AFB-BBEC-60D09A436D14";
shapes = (
{
closed = 1;
nodes = (
(96,-150,l),
(128,-150,l),
(128,710,l),
(96,710,l)
);
}
);
width = 224;
},
{
layerId = "6C190511-B94A-4F5A-B519-D6E9DB0E7B93";
shapes = (
{
closed = 1;
nodes = (
(92,-150,l),
(171,-150,l),
(171,710,l),
(92,710,l)
);
}
);
width = 262.66667;
},
{
layerId = "3507EE3D-0D92-4546-A145-3A991F0A2B71";
shapes = (
{
closed = 1;
nodes = (
(62,-150,l),
(255,-150,l),
(255,710,l),
(62,710,l)
);
}
);
width = 316.77934;
}
);
metricLeft = H;
metricRight = H;
unicode = 124;
}
{
glyphname = asciitilde;
layers = (
{
associatedMasterId = "EE2FFE84-06F1-4AFB-BBEC-60D09A436D14";
guides = (
{
angle = 270;
pos = (516,235);
},
{
pos = (112,235);
},
{
pos = (441,419);
}
);
layerId = "4F0FB2D7-28AD-46D9-9CCC-E76156F069EC";
name = "30 de ene. de 23 12:33";
shapes = (
{
closed = 1;
nodes = (
(285,370,l),
(160,478,o),
(36,407,o),
(36,245,c),
(116,245,l),
(116,387,o),
(212,360,o),
(285,270,c)
);
},
{
closed = 1;
nodes = (
(260,297,l),
(385,189,o),
(509,260,o),
(509,422,c),
(429,422,l),
(429,280,o),
(333,307,o),
(260,397,c)
);
}
);
width = 556;
},
{
associatedMasterId = "EE2FFE84-06F1-4AFB-BBEC-60D09A436D14";
guides = (
{
angle = 270;
pos = (516,235);
},
{
pos = (116,245);
},
{
pos = (441,419);
}
);
layerId = "C505FC5B-995D-4589-A342-07E0B778C222";
name = "30 de ene. de 23 13:00";
shapes = (
{
closed = 1;
nodes = (
(283,279,l),
(431,191,o),
(509,284,o),
(509,422,c),
(429,422,l),
(429,299,o),
(377,315,o),
(284,373,c),
(257,391,l),
(148,466,o),
(36,396,o),
(36,245,c),
(116,245,l),
(116,371,o),
(180,342,o),
(257,294,c)
);
}
);
width = 556;
},
{
guides = (
{
angle = 270;
pos = (517,235);
},
{
pos = (117,245);
},
{
pos = (442,421);
}
);
layerId = "EE2FFE84-06F1-4AFB-BBEC-60D09A436D14";
name = Regular;
shapes = (
{
closed = 1;
nodes = (
(407,263,o),
(447,312,o),
(452,398,c),
(420,398,l),
(417,340,o),
(387,295,o),
(339,295,cs),
(308,295,o),
(287,314,o),
(256,350,cs),
(226,384,o),
(196,404,o),
(160,404,cs),
(95,404,o),
(55,355,o),
(50,268,c),
(82,268,l),
(85,327,o),
(114,372,o),
(163,372,cs),
(191,372,o),
(215,351,o),
(245,317,cs),
(272,286,o),
(309,263,o),
(342,263,cs)
);
}
);
width = 502;
},
{
layerId = "6C190511-B94A-4F5A-B519-D6E9DB0E7B93";
name = Regular;
shapes = (
{
closed = 1;
nodes = (
(439,236,o),
(490,313,o),
(490,420,c),
(411,420,l),
(411,355,o),
(395,313,o),
(356,313,cs),
(323,313,o),
(306,339,o),
(286,366,cs),
(263,398,o),
(236,430,o),
(177,430,cs),
(98,430,o),
(47,353,o),
(47,246,c),
(126,246,l),
(126,311,o),
(142,353,o),
(180,353,cs),
(218,353,o),
(234,319,o),
(260,288,cs),
(281,261,o),
(309,236,o),
(359,236,cs)
);
}
);
width = 536.8;
},
{
layerId = "3507EE3D-0D92-4546-A145-3A991F0A2B71";
name = Regular;
shapes = (
{
closed = 1;
nodes = (
(423,242,o),
(476,309,o),
(476,421,c),
(351,421,l),
(351,380,o),
(342,356,o),
(319,356,cs),
(302,356,o),
(292,366,o),
(274,384,cs),
(245,412,o),
(215,424,o),
(179,424,cs),
(87,424,o),
(33,357,o),
(33,245,c),
(159,245,l),
(159,286,o),
(169,310,o),
(191,310,cs),
(209,310,o),
(219,298,o),
(239,279,cs),
(267,252,o),
(297,242,o),
(331,242,cs)
);
}
);
width = 509;
}
);
metricLeft = o;
metricRight = o;
unicode = 126;
}
{
glyphname = cent;
layers = (
{
layerId = "EE2FFE84-06F1-4AFB-BBEC-60D09A436D14";
shapes = (
{
ref = c;
},
{
closed = 1;
nodes = (
(216,-91,l),
(248,-91,l),
(311,629,l),
(279,629,l)
);
}
);
width = 531;
},
{
layerId = "6C190511-B94A-4F5A-B519-D6E9DB0E7B93";
shapes = (
{
alignment = -1;
ref = c;
},
{
closed = 1;
nodes = (
(210,-91,l),
(285,-91,l),
(348,629,l),
(273,629,l)
);
}
);
width = 552.26667;
},
{
layerId = "3507EE3D-0D92-4546-A145-3A991F0A2B71";
shapes = (
{
alignment = -1;
ref = c;
},
{
closed = 1;
nodes = (
(244,-91,l),
(327,-91,l),
(390,629,l),
(307,629,l)
);
}
);
width = 634;
}
);
metricLeft = c;
metricRight = c;
unicode = 162;
}
{
color = 4;
glyphname = sterling;
layers = (
{
background = {
shapes = (
{
closed = 1;
nodes = (
(558,0,l),
(558,30,l),
(95,30,l),
(210,90,o),
(253,241,o),
(227,339,c),
(421,339,l),
(421,369,l),
(221,369,l),
(198,442,o),
(188,483,o),
(188,515,cs),
(188,620,o),
(250,694,o),
(339,694,cs),
(442,694,o),
(495,633,o),
(505,555,c),
(538,559,l),
(528,657,o),
(456,726,o),
(339,726,cs),
(236,726,o),
(155,639,o),
(155,529,cs),
(155,495,o),
(162,457,o),
(177,411,c),
(189,369,l),
(60,369,l),
(60,339,l),
(196,339,l),
(199,317,o),
(201,297,o),
(201,278,cs),
(201,186,o),
(143,86,o),
(61,36,c),
(61,0,l)
);
}
);
};
layerId = "EE2FFE84-06F1-4AFB-BBEC-60D09A436D14";
shapes = (
{
closed = 1;
nodes = (
(558,0,l),
(558,30,l),
(104,30,l),
(203,102,o),
(242,207,o),
(227,339,c),
(421,339,l),
(421,369,l),
(221,369,l),
(197,436,o),
(188,485,o),
(188,527,cs),
(188,620,o),
(248,694,o),
(339,694,cs),
(445,694,o),
(494,638,o),
(505,545,c),
(538,549,l),
(528,659,o),
(463,726,o),
(339,726,cs),
(228,726,o),
(155,639,o),
(155,529,cs),
(155,468,o),
(171,430,o),
(189,369,c),
(60,369,l),
(60,339,l),
(195,339,l),
(199,317,o),
(201,297,o),
(201,269,cs),
(201,169,o),
(142,86,o),
(60,29,c),
(60,0,l)
);
}
);
width = 598;
},
{
associatedMasterId = "EE2FFE84-06F1-4AFB-BBEC-60D09A436D14";
layerId = "3CD0F278-7180-4E81-8DEF-1031C595535B";
name = "6 Feb 23 15:50";
shapes = (
{
closed = 1;
nodes = (
(129,613,o),
(108,541,o),
(152,411,cs),
(206,251,o),
(172,155,o),
(63,89,c),
(63,0,l),
(560,3,l),
(560,89,l),
(140,89,l),
(242,134,o),
(293,246,o),
(247,388,cs),
(206,514,o),
(217,571,o),
(262,609,cs),
(322,658,o),
(422,654,o),
(538,595,c),
(489,569,l),
(537,740,l),
(558,683,l),
(425,744,o),
(284,738,o),
(201,672,cs)
);
},
{
closed = 1;
nodes = (
(62,316,l),
(423,316,l),
(423,392,l),
(62,392,l)
);
}
);
width = 600;
},
{
background = {
shapes = (
{
closed = 1;
nodes = (
(626,3,l),
(626,160,l),
(249,160,l),
(308,185,o),
(344,243,o),
(349,306,c),
(478,306,l),
(478,392,l),
(341,392,l),
(326,438,o),
(302,460,o),
(302,506,cs),
(302,544,o),
(331,569,o),
(365,569,cs),
(398,569,o),
(422,548,o),
(427,508,c),
(638,515,l),
(615,647,o),
(520,726,o),
(365,726,cs),
(213,726,o),
(112,647,o),
(112,529,cs),
(112,499,o),
(121,455,o),
(135,411,cs),
(141,392,l),
(45,392,l),
(45,306,l),
(159,306,l),
(160,297,o),
(160,287,o),
(160,278,cs),
(160,219,o),
(124,164,o),
(46,132,c),
(46,0,l)
);
}
);
};
layerId = "3507EE3D-0D92-4546-A145-3A991F0A2B71";
shapes = (
{
closed = 1;
nodes = (
(626,3,l),
(626,160,l),
(249,160,l),
(308,185,o),
(344,243,o),
(349,306,c),
(478,306,l),
(478,392,l),
(341,392,l),
(327,429,o),
(302,467,o),
(302,506,cs),
(302,542,o),
(329,569,o),
(365,569,cs),
(399,569,o),
(422,547,o),
(427,508,c),
(638,515,l),
(614,650,o),
(516,726,o),
(365,726,cs),
(208,726,o),
(108,639,o),
(108,520,cs),
(108,484,o),
(121,442,o),
(141,392,c),
(45,392,l),
(45,306,l),
(159,306,l),
(161,297,o),
(163,284,o),
(163,273,cs),
(163,216,o),
(124,164,o),
(46,132,c),
(46,0,l)
);
}
);
width = 666;
},
{
background = {
shapes = (
{
closed = 1;
nodes = (
(557,3,l),
(557,87,l),
(136,87,l),
(230,130,o),
(268,222,o),
(259,317,c),
(420,317,l),
(420,391,l),
(242,391,l),
(226,444,o),
(216,484,o),
(216,515,cs),
(216,589,o),
(276,642,o),
(342,642,cs),
(400,642,o),
(451,609,o),
(468,553,c),
(568,560,l),
(553,643,o),
(480,726,o),
(338,726,cs),
(221,726,o),
(127,641,o),
(127,529,cs),
(127,495,o),
(135,457,o),
(150,411,c),
(156,391,l),
(59,391,l),
(59,317,l),
(173,317,l),
(174,303,o),
(175,290,o),
(175,278,cs),
(175,194,o),
(135,132,o),
(60,87,c),
(60,0,l)
);
}
);
};
layerId = "6C190511-B94A-4F5A-B519-D6E9DB0E7B93";
shapes = (
{
closed = 1;
nodes = (
(556,0,l),
(556,87,l),
(146,87,l),
(230,130,o),
(254,198,o),
(254,317,c),
(420,317,l),
(420,391,l),
(242,391,l),
(226,444,o),
(216,484,o),
(216,515,cs),
(216,589,o),
(266,642,o),
(342,642,cs),
(400,642,o),
(451,609,o),
(468,543,c),
(568,550,l),
(553,643,o),
(487,726,o),
(338,726,cs),
(217,726,o),
(127,641,o),
(127,529,cs),
(127,488,o),
(139,443,o),
(156,391,c),
(59,391,l),
(59,317,l),
(173,317,l),
(175,303,o),
(177,290,o),
(177,278,cs),
(177,194,o),
(135,127,o),
(60,82,c),
(60,0,l)
);
}
);
width = 615.4;
}
);
metricLeft = S;
metricRight = L;
unicode = 163;
}
{
glyphname = currency;
layers = (
{
anchors = (
{
name = top;
pos = (264,530);
}
);
layerId = "EE2FFE84-06F1-4AFB-BBEC-60D09A436D14";
shapes = (
{
closed = 1;
nodes = (
(388,97,o),
(478,187,o),
(478,297,cs),
(478,407,o),
(388,497,o),
(278,497,cs),
(168,497,o),
(78,407,o),
(78,297,cs),
(78,187,o),
(168,97,o),
(278,97,cs)
);
},
{
closed = 1;
nodes = (
(186,129,o),
(110,205,o),
(110,297,cs),
(110,389,o),
(186,465,o),
(278,465,cs),
(369,465,o),
(446,389,o),
(446,297,cs),
(446,205,o),
(369,129,o),
(278,129,cs)
);
},
{
closed = 1;
nodes = (
(393,432,l),
(414,411,l),
(507,505,l),
(486,526,l)
);
},
{
closed = 1;
nodes = (
(50,504,l),
(142,412,l),
(163,433,l),
(71,525,l)
);
},
{
closed = 1;
nodes = (
(506,90,l),
(411,185,l),
(390,164,l),
(485,69,l)
);
},
{
closed = 1;
nodes = (
(164,163,l),
(143,184,l),
(51,91,l),
(72,70,l)
);
}
);
width = 557;
},
{
anchors = (
{
name = top;
pos = (279,530);
}
);
layerId = "6C190511-B94A-4F5A-B519-D6E9DB0E7B93";
shapes = (
{
closed = 1;
nodes = (
(403,97,o),
(493,187,o),
(493,297,cs),
(493,407,o),
(403,497,o),
(293,497,cs),
(183,497,o),
(93,407,o),
(93,297,cs),
(93,187,o),
(183,97,o),
(293,97,cs)
);
},
{
closed = 1;
nodes = (
(223,170,o),
(165,227,o),
(165,297,cs),
(165,367,o),
(223,424,o),
(293,424,cs),
(361,424,o),
(420,367,o),
(420,297,cs),
(420,227,o),
(361,170,o),
(293,170,cs)
);
},
{
closed = 1;
nodes = (
(357,415,l),
(410,362,l),
(537,489,l),
(484,541,l)
);
},
{
closed = 1;
nodes = (
(49,489,l),
(176,362,l),
(229,415,l),
(102,541,l)
);
},
{
closed = 1;
nodes = (
(537,106,l),
(410,233,l),
(357,180,l),
(484,54,l)
);
},
{
closed = 1;
nodes = (
(229,180,l),
(176,233,l),
(49,106,l),
(102,54,l)
);
}
);
width = 586;
},
{
anchors = (
{
name = top;
pos = (270,530);
}
);
layerId = "3507EE3D-0D92-4546-A145-3A991F0A2B71";
shapes = (
{
closed = 1;
nodes = (
(404,80,o),
(501,178,o),
(501,297,cs),
(501,416,o),
(404,514,o),
(284,514,cs),
(165,514,o),
(68,416,o),
(68,297,cs),
(68,178,o),
(165,80,o),
(284,80,cs)
);
},
{
closed = 1;
nodes = (
(237,211,o),
(198,250,o),
(198,297,cs),
(198,344,o),
(237,383,o),
(284,383,cs),
(330,383,o),
(370,344,o),
(370,297,cs),
(370,250,o),
(330,211,o),
(284,211,cs)
);
},
{
closed = 1;
nodes = (
(343,414,l),
(401,356,l),
(534,488,l),
(475,547,l)
);
},
{
closed = 1;
nodes = (
(35,488,l),
(168,356,l),
(227,414,l),
(94,547,l)
);
},
{
closed = 1;
nodes = (
(534,107,l),
(401,239,l),
(343,181,l),
(475,48,l)
);
},
{
closed = 1;
nodes = (
(227,181,l),
(168,239,l),
(35,107,l),
(94,48,l)
);
}
);
width = 569.47887;
}
);
metricLeft = O;
metricRight = O;
unicode = 164;
}
{
glyphname = yen;
kernLeft = H;
kernRight = H;
layers = (
{
layerId = "EE2FFE84-06F1-4AFB-BBEC-60D09A436D14";
shapes = (
{
ref = Y;
},
{
closed = 1;
nodes = (
(90,279,l),
(504,279,l),
(504,309,l),
(90,309,l)
);
},
{
closed = 1;
nodes = (
(90,167,l),
(504,167,l),
(504,197,l),
(90,197,l)
);
}
);
width = 593;
},
{
layerId = "6C190511-B94A-4F5A-B519-D6E9DB0E7B93";
shapes = (
{
alignment = -1;
ref = Y;
},
{
closed = 1;
nodes = (
(108,287,l),
(522,287,l),
(522,365,l),
(108,365,l)
);
},
{
closed = 1;
nodes = (
(108,143,l),
(522,143,l),
(522,221,l),
(108,221,l)
);
}
);
width = 629.73333;
},
{
layerId = "3507EE3D-0D92-4546-A145-3A991F0A2B71";
shapes = (
{
alignment = -1;
ref = Y;
},
{
closed = 1;
nodes = (
(145,265,l),
(595,265,l),
(595,359,l),
(145,359,l)
);
},
{
closed = 1;
nodes = (
(145,121,l),
(595,121,l),
(595,215,l),
(145,215,l)
);
}
);
width = 739;
}
);
metricLeft = Y;
metricRight = Y;
unicode = 165;
}
{
glyphname = brokenbar;
layers = (
{
guides = (
{
pos = (294,355);
},
{
pos = (291,201);
}
);
layerId = "EE2FFE84-06F1-4AFB-BBEC-60D09A436D14";
shapes = (
{
closed = 1;
nodes = (
(128,355,l),
(128,710,l),
(96,710,l),
(96,355,l)
);
},
{
closed = 1;
nodes = (
(128,-150,l),
(128,205,l),
(96,205,l),
(96,-150,l)
);
}
);
width = 224;
},
{
layerId = "3507EE3D-0D92-4546-A145-3A991F0A2B71";
shapes = (
{
closed = 1;
nodes = (
(255,355,l),
(255,710,l),
(62,710,l),
(62,355,l)
);
},
{
closed = 1;
nodes = (
(255,-150,l),
(255,205,l),
(62,205,l),
(62,-150,l)
);
}
);
width = 316.77934;
},
{
layerId = "6C190511-B94A-4F5A-B519-D6E9DB0E7B93";
shapes = (
{
closed = 1;
nodes = (
(171,355,l),
(171,710,l),
(92,710,l),
(92,355,l)
);
},
{
closed = 1;
nodes = (
(171,-150,l),
(171,205,l),
(92,205,l),
(92,-150,l)
);
}
);
width = 262.66667;
}
);
metricLeft = H;
metricRight = H;
unicode = 166;
}
{
glyphname = section;
layers = (
{
background = {
shapes = (
{
closed = 1;
nodes = (
(472,620,o),
(359,681,o),
(273,681,cs),
(161,681,o),
(68,626,o),
(68,523,cs),
(68,464,o),
(116,422,o),
(214,397,c),
(204,430,l),
(106,406,o),
(65,353,o),
(65,287,cs),
(65,211,o),
(117,171,o),
(265,136,cs),
(359,113,o),
(395,85,o),
(395,45,cs),
(395,1,o),
(349,-27,o),
(278,-27,cs),
(203,-27,o),
(147,12,o),
(137,76,c),
(48,70,l),
(58,-35,o),
(157,-109,o),
(278,-109,cs),
(381,-109,o),
(485,-60,o),
(485,38,cs),
(485,102,o),
(462,151,o),
(358,183,c),
(361,151,l),
(446,171,o),
(488,212,o),
(488,274,cs),
(488,366,o),
(438,407,o),
(283,446,cs),
(185,472,o),
(158,490,o),
(158,531,cs),
(158,571,o),
(203,599,o),
(263,599,cs),
(341,599,o),
(389,563,o),
(399,505,c),
(487,511,l)
);
},
{
closed = 1;
nodes = (
(155,335,o),
(200,363,o),
(260,363,cs),
(314,363,o),
(398,343,o),
(398,281,cs),
(398,237,o),
(351,211,o),
(280,211,c),
(186,221,o),
(155,254,o),
(155,295,cs)
);
}
);
};
layerId = "EE2FFE84-06F1-4AFB-BBEC-60D09A436D14";
shapes = (
{
closed = 1;
nodes = (
(375,-109,o),
(477,-67,o),
(477,38,cs),
(477,99,o),
(432,132,o),
(350,163,c),
(417,182,o),
(480,214,o),
(480,287,cs),
(480,360,o),
(418,403,o),
(275,430,cs),
(162,451,o),
(113,482,o),
(113,540,cs),
(113,601,o),
(178,649,o),
(261,649,cs),
(344,649,o),
(411,591,o),
(425,508,c),
(459,511,l),
(446,606,o),
(360,681,o),
(265,681,cs),
(156,681,o),
(80,622,o),
(80,539,cs),
(80,478,o),
(127,434,o),
(213,412,c),
(121,398,o),
(77,348,o),
(77,287,cs),
(77,198,o),
(170,174,o),
(257,153,cs),
(397,119,o),
(444,85,o),
(444,38,cs),
(444,-43,o),
(351,-77,o),
(270,-77,cs),
(181,-77,o),
(105,-15,o),
(94,74,c),
(60,70,l),
(71,-30,o),
(162,-109,o),
(270,-109,cs)
);
},
{
closed = 1;
nodes = (
(182,187,o),
(111,228,o),
(111,287,cs),
(111,350,o),
(170,389,o),
(265,389,cs),
(367,389,o),
(447,349,o),
(447,287,cs),
(447,228,o),
(375,187,o),
(272,187,cs)
);
}
);
width = 540;
},
{
associatedMasterId = "EE2FFE84-06F1-4AFB-BBEC-60D09A436D14";
layerId = "7700FFAE-6384-4C8E-8C6C-3FD724929929";
name = "18 de feb. de 23 12:17";
shapes = (
{
closed = 1;
nodes = (
(454,620,o),
(341,681,o),
(255,681,cs),
(143,681,o),
(50,626,o),
(50,523,cs),
(50,464,o),
(98,422,o),
(196,397,c),
(186,430,l),
(88,406,o),
(47,353,o),
(47,287,cs),
(47,211,o),
(99,171,o),
(247,136,cs),
(341,113,o),
(377,85,o),
(377,45,cs),
(377,1,o),
(331,-27,o),
(260,-27,cs),
(185,-27,o),
(129,12,o),
(119,76,c),
(30,70,l),
(40,-35,o),
(139,-109,o),
(260,-109,cs),
(363,-109,o),
(467,-60,o),
(467,38,cs),
(467,102,o),
(444,151,o),
(340,183,c),
(343,151,l),
(428,171,o),
(470,212,o),
(470,274,cs),
(470,366,o),
(420,407,o),
(265,446,cs),
(167,472,o),
(140,490,o),
(140,531,cs),
(140,571,o),
(185,599,o),
(245,599,cs),
(323,599,o),
(371,563,o),
(381,505,c),
(469,511,l)
);
},
{
closed = 1;
nodes = (
(137,335,o),
(182,363,o),
(242,363,cs),
(296,363,o),
(380,343,o),
(380,281,cs),
(380,237,o),
(333,211,o),
(262,211,c),
(168,221,o),
(137,254,o),
(137,295,cs)
);
}
);
width = 500;
},
{
layerId = "3507EE3D-0D92-4546-A145-3A991F0A2B71";
shapes = (
{
closed = 1;
nodes = (
(489,-109,o),
(584,-51,o),
(584,57,cs),
(584,107,o),
(562,143,o),
(507,171,c),
(558,195,o),
(581,231,o),
(581,281,cs),
(581,388,o),
(482,437,o),
(334,454,c),
(277,466,o),
(259,480,o),
(256,507,cs),
(253,535,o),
(279,556,o),
(317,556,cs),
(359,556,o),
(387,528,o),
(393,485,c),
(585,491,l),
(567,611,o),
(468,678,o),
(321,678,cs),
(152,678,o),
(57,617,o),
(57,507,cs),
(57,462,o),
(78,427,o),
(130,398,c),
(84,373,o),
(62,337,o),
(59,295,cs),
(52,202,o),
(118,147,o),
(254,123,cs),
(296,114,o),
(385,102,o),
(385,59,cs),
(385,34,o),
(361,16,o),
(323,16,cs),
(277,16,o),
(247,39,o),
(239,82,c),
(45,74,l),
(55,-41,o),
(157,-109,o),
(330,-109,cs)
);
},
{
closed = 1;
nodes = (
(280,244,o),
(258,262,o),
(258,288,cs),
(258,313,o),
(281,330,o),
(316,330,cs),
(347,330,o),
(383,315,o),
(383,284,cs),
(383,258,o),
(358,241,o),
(322,241,cs)
);
}
);
width = 630.38028;
},
{
layerId = "6C190511-B94A-4F5A-B519-D6E9DB0E7B93";
shapes = (
{
closed = 1;
nodes = (
(391,-109,o),
(495,-60,o),
(495,38,cs),
(495,91,o),
(478,134,o),
(414,165,c),
(470,187,o),
(498,224,o),
(498,274,cs),
(498,366,o),
(448,407,o),
(293,445,cs),
(195,471,o),
(167,490,o),
(167,531,cs),
(167,572,o),
(213,601,o),
(274,601,cs),
(352,601,o),
(400,564,o),
(411,505,c),
(497,511,l),
(482,620,o),
(370,681,o),
(283,681,cs),
(171,681,o),
(79,626,o),
(79,524,cs),
(79,476,o),
(110,441,o),
(170,415,c),
(105,387,o),
(76,342,o),
(76,287,cs),
(76,211,o),
(129,171,o),
(275,137,cs),
(371,113,o),
(407,85,o),
(407,45,cs),
(407,0,o),
(360,-29,o),
(288,-29,cs),
(213,-29,o),
(156,11,o),
(146,76,c),
(59,70,l),
(69,-35,o),
(168,-109,o),
(288,-109,cs)
);
},
{
closed = 1;
nodes = (
(197,220,o),
(164,253,o),
(164,295,cs),
(164,336,o),
(210,364,o),
(271,364,cs),
(326,364,o),
(410,343,o),
(410,281,cs),
(410,237,o),
(362,210,o),
(290,210,cs)
);
}
);
width = 557.4;
}
);
metricLeft = S;
metricRight = S;
unicode = 167;
}
{
color = 0;
glyphname = ordfeminine;
kernLeft = asterisk;
kernRight = asterisk;
layers = (
{
background = {
shapes = (
{
closed = 1;
nodes = (
(255,367,o),
(292,383,o),
(315,427,c),
(324,386,o),
(347,374,o),
(380,374,cs),
(408,374,l),
(408,434,l),
(401,434,ls),
(385,434,o),
(379,440,o),
(379,458,cs),
(379,572,ls),
(379,661,o),
(328,711,o),
(243,711,cs),
(168,711,o),
(113,666,o),
(103,597,c),
(175,590,l),
(182,629,o),
(205,648,o),
(243,648,cs),
(286,648,o),
(307,627,o),
(309,583,c),
(225,568,ls),
(134,553,o),
(99,524,o),
(99,464,cs),
(99,405,o),
(145,367,o),
(216,367,cs)
);
},
{
closed = 1;
nodes = (
(189,427,o),
(171,440,o),
(171,464,cs),
(171,490,o),
(190,501,o),
(248,511,cs),
(310,522,l),
(310,521,ls),
(310,466,o),
(278,428,o),
(221,427,cs)
);
}
);
};
guides = (
{
pos = (19,374);
}
);
layerId = "EE2FFE84-06F1-4AFB-BBEC-60D09A436D14";
shapes = (
{
closed = 1;
nodes = (
(214,369,o),
(256,391,o),
(277,435,c),
(280,391,o),
(293,375,o),
(324,375,cs),
(336,375,l),
(336,400,l),
(324,400,ls),
(309,400,o),
(303,409,o),
(303,431,cs),
(303,572,ls),
(303,657,o),
(255,710,o),
(179,710,cs),
(115,710,o),
(66,668,o),
(54,601,c),
(82,598,l),
(89,651,o),
(126,685,o),
(179,685,cs),
(241,685,o),
(276,645,o),
(277,573,c),
(163,552,ls),
(106,542,o),
(50,518,o),
(50,458,cs),
(50,406,o),
(91,369,o),
(159,368,cs)
);
},
{
closed = 1;
nodes = (
(114,390,o),
(78,415,o),
(78,455,cs),
(78,507,o),
(130,523,o),
(184,532,cs),
(277,548,l),
(277,512,ls),
(277,439,o),
(236,396,o),
(164,393,cs)
);
}
);
width = 386;
},
{
background = {
shapes = (
{
closed = 1;
nodes = (
(115,367,o),
(155,389,o),
(174,427,c),
(183,386,o),
(204,374,o),
(237,374,cs),
(265,374,l),
(265,434,l),
(258,434,ls),
(242,434,o),
(236,440,o),
(236,458,cs),
(236,572,ls),
(236,661,o),
(185,711,o),
(100,711,cs),
(25,711,o),
(-30,666,o),
(-40,597,c),
(32,590,l),
(39,629,o),
(62,648,o),
(100,648,cs),
(143,648,o),
(164,627,o),
(166,583,c),
(82,568,ls),
(-6,554,o),
(-44,522,o),
(-44,464,cs),
(-44,405,o),
(2,367,o),
(63,367,cs)
);
},
{
closed = 1;
nodes = (
(46,427,o),
(28,440,o),
(28,464,cs),
(28,490,o),
(47,501,o),
(105,511,cs),
(167,522,l),
(167,521,ls),
(167,466,o),
(135,428,o),
(78,427,cs)
);
}
);
};
guides = (
{
pos = (265,374);
}
);
layerId = "3507EE3D-0D92-4546-A145-3A991F0A2B71";
shapes = (
{
closed = 1;
nodes = (
(233,367,o),
(271,387,o),
(289,424,c),
(304,354,o),
(391,370,o),
(404,373,cs),
(411,374,l),
(411,449,l),
(406,449,ls),
(395,449,o),
(384,453,o),
(384,480,cs),
(384,564,ls),
(384,662,o),
(331,711,o),
(220,711,cs),
(123,711,o),
(68,673,o),
(55,596,c),
(174,593,l),
(178,619,o),
(193,632,o),
(220,632,cs),
(248,632,o),
(262,615,o),
(262,579,c),
(176,562,ls),
(92,545,o),
(50,518,o),
(50,461,cs),
(50,403,o),
(100,367,o),
(168,367,cs)
);
},
{
closed = 1;
nodes = (
(188,441,o),
(173,450,o),
(173,466,cs),
(173,485,o),
(189,497,o),
(224,505,cs),
(264,513,l),
(264,509,l),
(263,469,o),
(243,443,o),
(210,442,cs)
);
}
);
width = 461;
},
{
background = {
shapes = (
{
closed = 1;
nodes = (
(206,374,o),
(243,390,o),
(266,414,c),
(275,393,o),
(298,381,o),
(331,381,cs),
(359,381,l),
(359,441,l),
(339,441,ls),
(332,441,o),
(330,443,o),
(330,452,cs),
(330,579,ls),
(330,668,o),
(279,718,o),
(194,718,cs),
(119,718,o),
(64,673,o),
(54,604,c),
(126,597,l),
(133,636,o),
(156,655,o),
(194,655,cs),
(237,655,o),
(258,634,o),
(260,590,c),
(176,575,ls),
(104,563,o),
(50,542,o),
(50,471,cs),
(50,412,o),
(96,374,o),
(167,374,cs)
);
},
{
closed = 1;
nodes = (
(140,434,o),
(122,447,o),
(122,471,cs),
(122,508,o),
(151,510,o),
(199,518,cs),
(261,529,l),
(261,535,ls),
(261,473,o),
(229,435,o),
(172,434,cs)
);
}
);
};
layerId = "6C190511-B94A-4F5A-B519-D6E9DB0E7B93";
shapes = (
{
closed = 1;
nodes = (
(209,367,o),
(249,389,o),
(268,427,c),
(277,386,o),
(298,374,o),
(331,374,cs),
(359,374,l),
(359,434,l),
(352,434,ls),
(336,434,o),
(330,440,o),
(330,458,cs),
(330,572,ls),
(330,661,o),
(279,711,o),
(194,711,cs),
(119,711,o),
(64,666,o),
(54,597,c),
(126,590,l),
(133,629,o),
(156,648,o),
(194,648,cs),
(237,648,o),
(258,627,o),
(260,583,c),
(176,568,ls),
(88,554,o),
(50,522,o),
(50,464,cs),
(50,405,o),
(96,367,o),
(157,367,cs)
);
},
{
closed = 1;
nodes = (
(140,427,o),
(122,440,o),
(122,464,cs),
(122,490,o),
(141,501,o),
(199,511,cs),
(261,522,l),
(261,521,ls),
(261,466,o),
(229,428,o),
(172,427,cs)
);
}
);
width = 409;
}
);
unicode = 170;
}
{
glyphname = logicalnot;
layers = (
{
guides = (
{
angle = 270;
pos = (21,270);
},
{
pos = (415,35);
}
);
layerId = "EE2FFE84-06F1-4AFB-BBEC-60D09A436D14";
shapes = (
{
closed = 1;
nodes = (
(441,66,l),
(441,315,l),
(50,315,l),
(50,285,l),
(409,285,l),
(409,66,l)
);
}
);
width = 491;
},
{
layerId = "3507EE3D-0D92-4546-A145-3A991F0A2B71";
shapes = (
{
closed = 1;
nodes = (
(424,66,l),
(424,329,l),
(33,329,l),
(33,221,l),
(316,221,l),
(316,66,l)
);
}
);
width = 457;
},
{
layerId = "6C190511-B94A-4F5A-B519-D6E9DB0E7B93";
shapes = (
{
closed = 1;
nodes = (
(438,66,l),
(438,315,l),
(47,315,l),
(47,237,l),
(360,237,l),
(360,66,l)
);
}
);
width = 485.2;
}
);
metricLeft = o;
metricRight = o;
unicode = 172;
}
{
glyphname = registered;
layers = (
{
background = {
shapes = (
{
closed = 1;
nodes = (
(516,-12,o),
(681,153,o),
(681,357,cs),
(681,561,o),
(516,726,o),
(312,726,cs),
(108,726,o),
(-57,561,o),
(-57,357,cs),
(-57,153,o),
(108,-12,o),
(312,-12,cs)
);
},
{
closed = 1;
nodes = (
(150,61,o),
(17,195,o),
(17,357,cs),
(17,519,o),
(150,653,o),
(312,653,cs),
(473,653,o),
(607,519,o),
(607,357,cs),
(607,195,o),
(473,61,o),
(312,61,cs)
);
},
{
closed = 1;
nodes = (
(169,158,l),
(239,158,l),
(239,312,l),
(303,312,l),
(396,158,l),
(475,158,l),
(351,358,l),
(310,312,l),
(404,312,o),
(463,358,o),
(463,430,cs),
(463,506,o),
(400,553,o),
(300,553,cs),
(169,553,l)
);
},
{
closed = 1;
nodes = (
(239,493,l),
(310,493,ls),
(363,493,o),
(393,471,o),
(393,433,cs),
(393,394,o),
(363,372,o),
(310,372,cs),
(239,372,l)
);
}
);
};
guides = (
{
pos = (308,568);
},
{
pos = (308,144);
}
);
layerId = "EE2FFE84-06F1-4AFB-BBEC-60D09A436D14";
shapes = (
{
closed = 1;
nodes = (
(207,335,l),
(232,335,l),
(232,440,l),
(316,440,l),
(379,335,l),
(408,335,l),
(341,446,l),
(383,457,o),
(405,485,o),
(405,523,cs),
(405,576,o),
(364,609,o),
(299,609,cs),
(207,609,l)
);
},
{
closed = 1;
nodes = (
(232,585,l),
(306,585,ls),
(352,585,o),
(381,562,o),
(381,525,cs),
(381,488,o),
(352,465,o),
(306,465,cs),
(232,465,l)
);
},
{
closed = 1;
nodes = (
(443,220,o),
(556,334,o),
(556,473,cs),
(556,613,o),
(443,726,o),
(303,726,cs),
(163,726,o),
(50,613,o),
(50,473,cs),
(50,334,o),
(163,220,o),
(303,220,cs)
);
},
{
closed = 1;
nodes = (
(181,250,o),
(81,352,o),
(81,473,cs),
(81,595,o),
(181,696,o),
(303,696,cs),
(425,696,o),
(525,595,o),
(525,473,cs),
(525,352,o),
(425,250,o),
(303,250,cs)
);
}
);
width = 606;
},
{
layerId = "6C190511-B94A-4F5A-B519-D6E9DB0E7B93";
shapes = (
{
closed = 1;
nodes = (
(201,335,l),
(252,335,l),
(252,441,l),
(295,441,l),
(359,335,l),
(417,335,l),
(346,448,l),
(384,458,o),
(406,486,o),
(406,524,cs),
(406,577,o),
(363,609,o),
(292,609,cs),
(201,609,l)
);
},
{
closed = 1;
nodes = (
(252,565,l),
(300,565,ls),
(336,565,o),
(356,551,o),
(356,526,cs),
(356,500,o),
(336,484,o),
(300,484,cs),
(252,484,l)
);
},
{
closed = 1;
nodes = (
(441,220,o),
(553,334,o),
(553,474,cs),
(553,613,o),
(441,726,o),
(301,726,cs),
(161,726,o),
(49,613,o),
(49,474,cs),
(49,334,o),
(161,220,o),
(301,220,cs)
);
},
{
closed = 1;
nodes = (
(194,277,o),
(105,366,o),
(105,474,cs),
(105,581,o),
(194,669,o),
(301,669,cs),
(408,669,o),
(497,581,o),
(497,474,cs),
(497,366,o),
(408,277,o),
(301,277,cs)
);
}
);
width = 602.13333;
},
{
layerId = "3507EE3D-0D92-4546-A145-3A991F0A2B71";
shapes = (
{
closed = 1;
nodes = (
(193,351,l),
(263,351,l),
(263,435,l),
(283,435,l),
(322,351,l),
(398,351,l),
(348,447,l),
(378,459,o),
(393,487,o),
(393,518,cs),
(393,567,o),
(351,600,o),
(288,600,cs),
(193,600,l)
);
},
{
closed = 1;
nodes = (
(262,538,l),
(283,538,ls),
(304,538,o),
(319,532,o),
(319,515,cs),
(319,498,o),
(304,492,o),
(283,492,cs),
(262,492,l)
);
},
{
closed = 1;
nodes = (
(427,220,o),
(540,333,o),
(540,474,cs),
(540,613,o),
(427,726,o),
(287,726,cs),
(147,726,o),
(35,613,o),
(35,474,cs),
(35,333,o),
(147,220,o),
(287,220,cs)
);
},
{
closed = 1;
nodes = (
(192,297,o),
(111,377,o),
(111,474,cs),
(111,570,o),
(192,650,o),
(287,650,cs),
(384,650,o),
(463,570,o),
(463,474,cs),
(463,377,o),
(384,297,o),
(287,297,cs)
);
}
);
width = 575.46009;
}
);
metricLeft = O;
metricRight = O;
unicode = 174;
}
{
glyphname = degree;
layers = (
{
anchors = (
{
name = top;
pos = (155,530);
}
);
background = {
anchors = (
{
name = top;
pos = (145,530);
}
);
shapes = (
{
closed = 1;
nodes = (
(242,388,o),
(310,456,o),
(310,539,cs),
(310,622,o),
(242,690,o),
(159,690,cs),
(76,690,o),
(8,622,o),
(8,539,cs),
(8,456,o),
(76,388,o),
(159,388,cs)
);
},
{
closed = 1;
nodes = (
(117,462,o),
(83,497,o),
(83,539,cs),
(83,581,o),
(117,616,o),
(159,616,cs),
(201,616,o),
(235,581,o),
(235,539,cs),
(235,497,o),
(201,462,o),
(159,462,cs)
);
}
);
};
guides = (
{
pos = (38,690);
},
{
pos = (38,388);
}
);
layerId = "EE2FFE84-06F1-4AFB-BBEC-60D09A436D14";
shapes = (
{
closed = 1;
nodes = (
(234,451,o),
(288,504,o),
(288,568,cs),
(288,634,o),
(234,687,o),
(169,687,cs),
(104,687,o),
(50,634,o),
(50,568,cs),
(50,504,o),
(104,451,o),
(169,451,cs)
);
},
{
closed = 1;
nodes = (
(119,479,o),
(80,520,o),
(80,568,cs),
(80,617,o),
(119,658,o),
(169,658,cs),
(219,658,o),
(258,617,o),
(258,568,cs),
(258,520,o),
(219,479,o),
(169,479,cs)
);
}
);
width = 338;
},
{
anchors = (
{
name = top;
pos = (183,530);
}
);
layerId = "6C190511-B94A-4F5A-B519-D6E9DB0E7B93";
shapes = (
{
closed = 1;
nodes = (
(279,390,o),
(347,458,o),
(347,540,cs),
(347,622,o),
(279,690,o),
(197,690,cs),
(115,690,o),
(47,622,o),
(47,540,cs),
(47,458,o),
(115,390,o),
(197,390,cs)
);
},
{
closed = 1;
nodes = (
(155,463,o),
(121,498,o),
(121,540,cs),
(121,582,o),
(155,617,o),
(197,617,cs),
(239,617,o),
(273,582,o),
(273,540,cs),
(273,498,o),
(239,463,o),
(197,463,cs)
);
}
);
width = 394.06667;
},
{
anchors = (
{
name = top;
pos = (200,530);
}
);
layerId = "3507EE3D-0D92-4546-A145-3A991F0A2B71";
shapes = (
{
closed = 1;
nodes = (
(313,343,o),
(395,424,o),
(395,523,cs),
(395,623,o),
(313,704,o),
(214,704,cs),
(115,704,o),
(33,623,o),
(33,523,cs),
(33,424,o),
(115,343,o),
(214,343,cs)
);
},
{
closed = 1;
nodes = (
(181,463,o),
(154,490,o),
(154,523,cs),
(154,557,o),
(181,585,o),
(214,585,cs),
(248,585,o),
(274,557,o),
(274,523,cs),
(274,490,o),
(248,463,o),
(214,463,cs)
);
}
);
width = 428.49765;
}
);
metricLeft = o;
metricRight = o;
unicode = 176;
}
{
glyphname = plusminus;
layers = (
{
layerId = "EE2FFE84-06F1-4AFB-BBEC-60D09A436D14";
shapes = (
{
closed = 1;
nodes = (
(50,60,l),
(526,60,l),
(526,90,l),
(50,90,l)
);
},
{
closed = 1;
nodes = (
(50,345,l),
(526,345,l),
(526,375,l),
(50,375,l)
);
},
{
closed = 1;
nodes = (
(272,530,l),
(272,190,l),
(304,190,l),
(304,530,l)
);
}
);
width = 576;
},
{
layerId = "6C190511-B94A-4F5A-B519-D6E9DB0E7B93";
shapes = (
{
closed = 1;
nodes = (
(47,36,l),
(523,36,l),
(523,114,l),
(47,114,l)
);
},
{
closed = 1;
nodes = (
(47,321,l),
(523,321,l),
(523,399,l),
(47,399,l)
);
},
{
closed = 1;
nodes = (
(246,530,l),
(246,190,l),
(324,190,l),
(324,530,l)
);
}
);
width = 570.2;
},
{
layerId = "3507EE3D-0D92-4546-A145-3A991F0A2B71";
shapes = (
{
closed = 1;
nodes = (
(33,10,l),
(551,10,l),
(551,147,l),
(33,147,l)
);
},
{
closed = 1;
nodes = (
(33,290,l),
(551,290,l),
(551,427,l),
(33,427,l)
);
},
{
closed = 1;
nodes = (
(202,530,l),
(202,190,l),
(382,190,l),
(382,530,l)
);
}
);
width = 584.42254;
}
);
metricLeft = o;
metricRight = o;
unicode = 177;
}
{
glyphname = twosuperior;
layers = (
{
background = {
shapes = (
{
closed = 1;
nodes = (
(227,597,l),
(236,643,o),
(261,668,o),
(302,668,cs),
(333,668,o),
(357,645,o),
(357,614,cs),
(357,585,o),
(346,564,o),
(310,539,cs),
(278,518,ls),
(177,457,o),
(160,387,o),
(160,325,c),
(424,325,l),
(424,383,l),
(234,383,l),
(235,408,o),
(262,437,o),
(299,461,cs),
(327,479,ls),
(388,518,o),
(421,567,o),
(421,614,cs),
(421,680,o),
(372,726,o),
(302,726,cs),
(228,726,o),
(176,677,o),
(167,600,c)
);
}
);
};
layerId = "EE2FFE84-06F1-4AFB-BBEC-60D09A436D14";
shapes = (
{
closed = 1;
nodes = (
(424,325,l),
(424,353,l),
(194,353,l),
(193,400,o),
(254,450,o),
(299,479,cs),
(327,497,ls),
(388,536,o),
(421,567,o),
(421,614,cs),
(421,680,o),
(372,726,o),
(302,726,cs),
(228,726,o),
(176,677,o),
(167,600,c),
(197,597,l),
(209,662,o),
(247,698,o),
(302,698,cs),
(357,698,o),
(391,666,o),
(391,614,cs),
(391,571,o),
(347,543,o),
(310,519,cs),
(278,498,ls),
(179,433,o),
(160,387,o),
(160,325,c)
);
}
);
width = 600;
},
{
layerId = "6C190511-B94A-4F5A-B519-D6E9DB0E7B93";
shapes = (
{
closed = 1;
nodes = (
(424,325,l),
(424,384,l),
(234,384,l),
(235,408,o),
(263,435,o),
(301,461,cs),
(329,480,ls),
(387,519,o),
(422,561,o),
(422,614,cs),
(422,680,o),
(372,726,o),
(302,726,cs),
(228,726,o),
(174,677,o),
(165,600,c),
(229,597,l),
(238,644,o),
(261,667,o),
(302,667,cs),
(334,667,o),
(358,646,o),
(358,614,cs),
(358,585,o),
(344,562,o),
(307,538,cs),
(275,517,ls),
(176,452,o),
(160,387,o),
(160,325,c)
);
}
);
width = 600;
},
{
layerId = "3507EE3D-0D92-4546-A145-3A991F0A2B71";
shapes = (
{
closed = 1;
nodes = (
(438,325,l),
(438,406,l),
(261,406,l),
(268,426,o),
(292,445,o),
(321,464,cs),
(349,482,ls),
(406,519,o),
(436,560,o),
(436,609,cs),
(436,678,o),
(376,726,o),
(302,726,cs),
(231,726,o),
(168,674,o),
(159,597,c),
(252,593,l),
(258,627,o),
(276,645,o),
(303,645,cs),
(328,645,o),
(344,630,o),
(344,608,cs),
(344,585,o),
(326,568,o),
(299,550,cs),
(267,529,ls),
(168,464,o),
(153,387,o),
(153,325,c)
);
}
);
width = 600;
}
);
unicode = 178;
}
{
glyphname = threesuperior;
layers = (
{
layerId = "EE2FFE84-06F1-4AFB-BBEC-60D09A436D14";
shapes = (
{
closed = 1;
nodes = (
(266,309,o),
(322,358,o),
(322,427,cs),
(322,476,o),
(281,517,o),
(232,531,c),
(273,544,o),
(307,581,o),
(307,622,cs),
(307,680,o),
(253,726,o),
(185,726,cs),
(122,726,o),
(67,684,o),
(59,630,c),
(91,626,l),
(96,665,o),
(137,698,o),
(185,698,cs),
(235,698,o),
(277,663,o),
(277,622,cs),
(277,579,o),
(234,545,o),
(181,545,cs),
(161,545,l),
(161,517,l),
(181,517,ls),
(242,517,o),
(292,477,o),
(292,427,cs),
(292,375,o),
(247,337,o),
(186,337,cs),
(127,337,o),
(81,374,o),
(76,424,c),
(45,421,l),
(49,355,o),
(107,309,o),
(186,309,cs)
);
}
);
width = 372;
},
{
layerId = "3507EE3D-0D92-4546-A145-3A991F0A2B71";
shapes = (
{
closed = 1;
nodes = (
(279,309,o),
(343,361,o),
(343,427,cs),
(343,479,o),
(305,524,o),
(250,534,c),
(297,545,o),
(328,581,o),
(328,622,cs),
(328,682,o),
(272,726,o),
(193,726,cs),
(123,726,o),
(65,681,o),
(57,619,c),
(148,615,l),
(150,632,o),
(168,645,o),
(193,645,cs),
(218,645,o),
(236,628,o),
(236,606,cs),
(236,585,o),
(217,567,o),
(190,567,cs),
(163,567,l),
(163,493,l),
(190,493,ls),
(225,493,o),
(252,470,o),
(252,441,cs),
(252,412,o),
(228,390,o),
(197,390,cs),
(165,390,o),
(138,408,o),
(136,430,c),
(45,427,l),
(49,361,o),
(115,309,o),
(197,309,cs)
);
}
);
width = 393;
},
{
layerId = "6C190511-B94A-4F5A-B519-D6E9DB0E7B93";
shapes = (
{
closed = 1;
nodes = (
(262,309,o),
(322,361,o),
(322,427,cs),
(322,475,o),
(287,520,o),
(241,534,c),
(284,547,o),
(307,585,o),
(307,622,cs),
(307,680,o),
(254,726,o),
(185,726,cs),
(122,726,o),
(67,684,o),
(59,630,c),
(123,626,l),
(126,649,o),
(150,667,o),
(185,667,cs),
(218,667,o),
(243,643,o),
(243,612,cs),
(243,587,o),
(218,559,o),
(181,559,cs),
(156,559,l),
(156,502,l),
(181,502,ls),
(225,502,o),
(258,470,o),
(258,431,cs),
(258,395,o),
(227,368,o),
(186,368,cs),
(144,368,o),
(112,392,o),
(109,424,c),
(45,421,l),
(49,358,o),
(109,309,o),
(186,309,cs)
);
}
);
width = 372;
}
);
metricLeft = threeinferior;
metricRight = threeinferior;
unicode = 179;
}
{
glyphname = micro;
layers = (
{
anchors = (
{
name = ogonek;
pos = (476,0);
}
);
layerId = "EE2FFE84-06F1-4AFB-BBEC-60D09A436D14";
shapes = (
{
closed = 1;
nodes = (
(120,-150,l),
(120,87,l),
(146,23,o),
(198,-12,o),
(264,-12,cs),
(350,-12,o),
(426,27,o),
(446,114,c),
(448,0,l),
(476,0,l),
(476,530,l),
(446,530,l),
(446,213,ls),
(446,99,o),
(383,18,o),
(272,18,cs),
(163,18,o),
(120,98,o),
(120,213,cs),
(120,530,l),
(90,530,l),
(90,-150,l)
);
}
);
width = 564;
},
{
anchors = (
{
name = ogonek;
pos = (476,0);
}
);
associatedMasterId = "EE2FFE84-06F1-4AFB-BBEC-60D09A436D14";
layerId = "0F5BADC7-6785-4C09-8FE2-6825BEFD86F1";
name = "13 de may. de 23 12:43";
shapes = (
{
closed = 1;
nodes = (
(476,530,l),
(446,530,l),
(446,213,ls),
(446,99,o),
(383,18,o),
(272,18,cs),
(163,18,o),
(120,98,o),
(120,213,cs),
(120,530,l),
(90,530,l),
(90,189,ls),
(90,77,o),
(149,-12,o),
(264,-12,cs),
(360,-12,o),
(443,36,o),
(450,145,c),
(445,145,l),
(448,0,l),
(476,0,l)
);
},
{
closed = 1;
nodes = (
(90,-150,l),
(120,-150,l),
(120,530,l),
(90,530,l)
);
}
);
width = 564;
},
{
anchors = (
{
name = ogonek;
pos = (592,0);
}
);
layerId = "3507EE3D-0D92-4546-A145-3A991F0A2B71";
shapes = (
{
closed = 1;
nodes = (
(268,-150,l),
(268,68,l),
(279,41,o),
(306,23,o),
(339,23,cs),
(374,23,o),
(407,45,o),
(419,79,c),
(419,0,l),
(606,0,l),
(606,530,l),
(412,530,l),
(412,256,ls),
(412,177,o),
(386,137,o),
(336,137,cs),
(290,137,o),
(268,175,o),
(268,256,cs),
(268,530,l),
(73,530,l),
(73,-150,l)
);
}
);
width = 649.74648;
},
{
anchors = (
{
name = ogonek;
pos = (505,0);
}
);
layerId = "6C190511-B94A-4F5A-B519-D6E9DB0E7B93";
shapes = (
{
closed = 1;
nodes = (
(174,-150,l),
(174,51,l),
(191,12,o),
(234,-12,o),
(283,-12,cs),
(345,-12,o),
(400,26,o),
(425,88,c),
(425,0,l),
(505,0,l),
(505,530,l),
(421,530,l),
(421,214,ls),
(421,121,o),
(369,62,o),
(284,62,cs),
(210,62,o),
(174,113,o),
(174,214,cs),
(174,530,l),
(90,530,l),
(90,-150,l)
);
}
);
width = 593;
}
);
unicode = 181;
}
{
glyphname = paragraph;
layers = (
{
guides = (
{
angle = 270;
pos = (280,683);
},
{
angle = 270;
pos = (351,700);
},
{
pos = (351,-115);
}
);
layerId = "EE2FFE84-06F1-4AFB-BBEC-60D09A436D14";
shapes = (
{
closed = 1;
nodes = (
(310,0,l),
(310,634,l),
(342,634,l),
(342,0,l),
(374,0,l),
(374,710,l),
(278,710,ls),
(129,710,o),
(35,632,o),
(35,508,cs),
(35,384,o),
(129,306,o),
(278,306,c),
(278,0,l)
);
}
);
width = 470;
},
{
layerId = "6C190511-B94A-4F5A-B519-D6E9DB0E7B93";
shapes = (
{
closed = 1;
nodes = (
(353,0,l),
(353,634,l),
(422,634,l),
(422,0,l),
(497,0,l),
(497,710,l),
(278,710,ls),
(129,710,o),
(35,632,o),
(35,508,cs),
(35,384,o),
(129,306,o),
(278,306,c),
(278,0,l)
);
}
);
width = 588.9;
},
{
layerId = "3507EE3D-0D92-4546-A145-3A991F0A2B71";
shapes = (
{
closed = 1;
nodes = (
(397,0,l),
(397,634,l),
(467,634,l),
(467,0,l),
(636,0,l),
(636,710,l),
(278,710,ls),
(129,710,o),
(35,632,o),
(35,508,cs),
(35,399,o),
(108,326,o),
(228,311,c),
(228,0,l)
);
}
);
width = 698.15493;
}
);
metricRight = H;
unicode = 182;
}
{
glyphname = cedilla;
layers = (
{
background = {
shapes = (
{
closed = 1;
nodes = (
(114,-85,l),
(157,-75,o),
(190,-91,o),
(190,-123,cs),
(190,-149,o),
(172,-166,o),
(144,-166,cs),
(110,-166,o),
(86,-132,o),
(72,-114,c),
(30,-153,l),
(69,-198,o),
(100,-220,o),
(148,-220,cs),
(203,-220,o),
(246,-179,o),
(246,-127,cs),
(246,-74,o),
(206,-37,o),
(149,-37,c),
(192,10,l),
(139,10,l),
(86,-48,l)
);
}
);
};
guides = (
{
pos = (202,10);
}
);
layerId = "EE2FFE84-06F1-4AFB-BBEC-60D09A436D14";
shapes = (
{
ref = cedillacomb;
}
);
width = 285;
},
{
layerId = "3507EE3D-0D92-4546-A145-3A991F0A2B71";
shapes = (
{
alignment = -1;
ref = cedillacomb;
}
);
width = 333.46948;
},
{
layerId = "6C190511-B94A-4F5A-B519-D6E9DB0E7B93";
shapes = (
{
alignment = -1;
ref = cedillacomb;
}
);
width = 309.16667;
}
);
metricLeft = o;
metricRight = o;
unicode = 184;
}
{
glyphname = onesuperior;
layers = (
{
layerId = "EE2FFE84-06F1-4AFB-BBEC-60D09A436D14";
shapes = (
{
closed = 1;
nodes = (
(156,323,l),
(156,711,l),
(134,711,l),
(134,656,o),
(104,629,o),
(43,629,c),
(30,629,l),
(30,607,l),
(126,607,l),
(126,323,l)
);
}
);
width = 221;
},
{
layerId = "3507EE3D-0D92-4546-A145-3A991F0A2B71";
shapes = (
{
closed = 1;
nodes = (
(224,323,l),
(224,711,l),
(150,711,l),
(150,643,o),
(116,605,o),
(53,605,c),
(30,605,l),
(30,549,l),
(132,549,l),
(132,323,l)
);
}
);
width = 289;
},
{
layerId = "6C190511-B94A-4F5A-B519-D6E9DB0E7B93";
shapes = (
{
closed = 1;
nodes = (
(193,323,l),
(193,711,l),
(143,711,l),
(143,654,o),
(112,622,o),
(54,622,c),
(30,622,l),
(30,573,l),
(126,574,l),
(126,323,l)
);
}
);
width = 258;
}
);
metricLeft = oneinferior;
metricRight = oneinferior;
unicode = 185;
}
{
glyphname = ordmasculine;
kernLeft = asterisk;
kernRight = asterisk;
layers = (
{
background = {
shapes = (
{
closed = 1;
nodes = (
(402,367,o),
(464,434,o),
(464,540,cs),
(464,645,o),
(402,712,o),
(310,712,cs),
(218,712,o),
(156,645,o),
(156,540,cs),
(156,434,o),
(218,367,o),
(310,367,cs)
);
},
{
closed = 1;
nodes = (
(258,430,o),
(228,470,o),
(228,540,cs),
(228,609,o),
(258,649,o),
(310,649,cs),
(362,649,o),
(392,609,o),
(392,540,cs),
(392,470,o),
(362,430,o),
(310,430,cs)
);
}
);
};
layerId = "EE2FFE84-06F1-4AFB-BBEC-60D09A436D14";
shapes = (
{
closed = 1;
nodes = (
(276,369,o),
(331,435,o),
(331,540,cs),
(331,646,o),
(276,712,o),
(190,712,cs),
(103,712,o),
(48,645,o),
(48,540,cs),
(48,435,o),
(103,369,o),
(190,369,cs)
);
},
{
closed = 1;
nodes = (
(119,393,o),
(75,450,o),
(75,540,cs),
(75,631,o),
(119,687,o),
(190,687,cs),
(260,687,o),
(304,631,o),
(304,540,cs),
(304,450,o),
(261,393,o),
(190,393,cs)
);
}
);
width = 381;
},
{
background = {
shapes = (
{
closed = 1;
nodes = (
(202,367,o),
(264,434,o),
(264,540,cs),
(264,645,o),
(202,712,o),
(110,712,cs),
(18,712,o),
(-44,645,o),
(-44,540,cs),
(-44,434,o),
(18,367,o),
(110,367,cs)
);
},
{
closed = 1;
nodes = (
(58,430,o),
(28,470,o),
(28,540,cs),
(28,609,o),
(58,649,o),
(110,649,cs),
(162,649,o),
(192,609,o),
(192,540,cs),
(192,470,o),
(162,430,o),
(110,430,cs)
);
}
);
};
layerId = "3507EE3D-0D92-4546-A145-3A991F0A2B71";
shapes = (
{
closed = 1;
nodes = (
(340,369,o),
(413,438,o),
(413,543,cs),
(413,648,o),
(341,718,o),
(231,718,cs),
(121,718,o),
(49,648,o),
(49,543,cs),
(49,438,o),
(122,369,o),
(231,369,cs)
);
},
{
closed = 1;
nodes = (
(195,456,o),
(175,487,o),
(175,543,cs),
(175,599,o),
(195,631,o),
(231,631,cs),
(267,631,o),
(287,599,o),
(287,543,cs),
(287,487,o),
(267,456,o),
(231,456,cs)
);
}
);
width = 462;
},
{
background = {
shapes = (
{
closed = 1;
nodes = (
(123,367,o),
(163,389,o),
(182,427,c),
(191,386,o),
(212,374,o),
(245,374,cs),
(273,374,l),
(273,434,l),
(266,434,ls),
(250,434,o),
(244,440,o),
(244,458,cs),
(244,572,ls),
(244,661,o),
(193,711,o),
(108,711,cs),
(33,711,o),
(-22,666,o),
(-32,597,c),
(40,590,l),
(47,629,o),
(70,648,o),
(108,648,cs),
(151,648,o),
(172,627,o),
(174,583,c),
(90,568,ls),
(2,554,o),
(-36,522,o),
(-36,464,cs),
(-36,405,o),
(10,367,o),
(71,367,cs)
);
},
{
closed = 1;
nodes = (
(54,427,o),
(36,440,o),
(36,464,cs),
(36,490,o),
(55,501,o),
(113,511,cs),
(175,522,l),
(175,521,ls),
(175,466,o),
(143,428,o),
(86,427,cs)
);
}
);
};
layerId = "6C190511-B94A-4F5A-B519-D6E9DB0E7B93";
shapes = (
{
closed = 1;
nodes = (
(304,369,o),
(370,437,o),
(370,541,cs),
(370,643,o),
(304,712,o),
(205,712,cs),
(105,712,o),
(39,644,o),
(39,541,cs),
(39,437,o),
(105,369,o),
(205,369,cs)
);
},
{
closed = 1;
nodes = (
(155,436,o),
(127,476,o),
(127,541,cs),
(127,604,o),
(155,645,o),
(205,645,cs),
(253,645,o),
(281,606,o),
(281,541,cs),
(281,475,o),
(253,436,o),
(205,436,cs)
);
}
);
width = 408;
}
);
unicode = 186;
}
{
glyphname = AE;
kernLeft = A;
kernRight = E;
layers = (
{
layerId = "EE2FFE84-06F1-4AFB-BBEC-60D09A436D14";
shapes = (
{
closed = 1;
nodes = (
(60,0,l),
(179,231,l),
(451,231,l),
(451,0,l),
(840,0,l),
(840,30,l),
(483,30,l),
(483,341,l),
(820,341,l),
(820,371,l),
(483,371,l),
(483,680,l),
(832,680,l),
(832,710,l),
(395,710,l),
(24,0,l)
);
},
{
closed = 1;
nodes = (
(412,680,l),
(451,680,l),
(451,261,l),
(193,261,l)
);
}
);
width = 890;
},
{
layerId = "3507EE3D-0D92-4546-A145-3A991F0A2B71";
shapes = (
{
closed = 1;
nodes = (
(229,0,l),
(300,138,l),
(554,138,l),
(554,0,l),
(1061,0,l),
(1061,157,l),
(750,157,l),
(750,278,l),
(1041,278,l),
(1041,434,l),
(750,434,l),
(750,553,l),
(1053,553,l),
(1053,710,l),
(407,710,l),
(27,0,l)
);
},
{
closed = 1;
nodes = (
(516,554,l),
(554,554,l),
(554,308,l),
(389,308,l)
);
}
);
width = 1099;
},
{
layerId = "6C190511-B94A-4F5A-B519-D6E9DB0E7B93";
shapes = (
{
closed = 1;
nodes = (
(118,0,l),
(222,202,l),
(494,202,l),
(494,0,l),
(917,0,l),
(917,84,l),
(580,84,l),
(580,315,l),
(897,315,l),
(897,397,l),
(580,397,l),
(580,626,l),
(909,626,l),
(909,710,l),
(401,710,l),
(21,0,l)
);
},
{
closed = 1;
nodes = (
(443,629,l),
(494,629,l),
(494,286,l),
(265,286,l)
);
}
);
width = 974.1;
}
);
metricLeft = A;
metricRight = E;
unicode = 198;
}
{
glyphname = Eth;
layers = (
{
background = {
shapes = (
{
closed = 1;
nodes = (
(142,0,l),
(368,0,ls),
(569,0,o),
(704,151,o),
(704,354,cs),
(704,560,o),
(568,710,o),
(362,710,cs),
(142,710,l)
);
},
{
closed = 1;
nodes = (
(230,624,l),
(362,624,ls),
(544,624,o),
(612,506,o),
(612,354,cs),
(612,203,o),
(543,86,o),
(362,86,cs),
(230,86,l)
);
},
{
closed = 1;
nodes = (
(58,317,l),
(428,317,l),
(428,393,l),
(58,393,l)
);
}
);
};
layerId = "EE2FFE84-06F1-4AFB-BBEC-60D09A436D14";
shapes = (
{
closed = 1;
nodes = (
(50,340,l),
(420,340,l),
(420,370,l),
(50,370,l)
);
},
{
pos = (89,0);
ref = D;
}
);
width = 765;
},
{
layerId = "6C190511-B94A-4F5A-B519-D6E9DB0E7B93";
shapes = (
{
closed = 1;
nodes = (
(49,318,l),
(419,318,l),
(419,392,l),
(49,392,l)
);
},
{
alignment = -1;
pos = (88,0);
ref = D;
}
);
width = 790.13333;
},
{
layerId = "3507EE3D-0D92-4546-A145-3A991F0A2B71";
shapes = (
{
closed = 1;
nodes = (
(35,310,l),
(420,310,l),
(420,400,l),
(35,400,l)
);
},
{
alignment = -1;
pos = (68,0);
ref = D;
}
);
width = 797.22066;
}
);
metricLeft = O;
metricRight = O;
unicode = 208;
}
{
glyphname = multiply;
layers = (
{
background = {
shapes = (
{
closed = 1;
nodes = (
(4,415,l),
(341,78,l),
(398,135,l),
(61,471,l)
);
},
{
closed = 1;
nodes = (
(341,471,l),
(4,135,l),
(61,78,l),
(398,415,l)
);
}
);
};
layerId = "EE2FFE84-06F1-4AFB-BBEC-60D09A436D14";
shapes = (
{
angle = -45;
pos = (-176,275);
ref = plus;
}
);
width = 459;
},
{
layerId = "6C190511-B94A-4F5A-B519-D6E9DB0E7B93";
shapes = (
{
alignment = -1;
angle = -45;
pos = (-167,295);
ref = plus;
}
);
width = 486.06667;
},
{
layerId = "3507EE3D-0D92-4546-A145-3A991F0A2B71";
shapes = (
{
alignment = -1;
angle = -45;
pos = (-135,272);
ref = plus;
}
);
width = 510;
}
);
metricLeft = o;
metricRight = o;
unicode = 215;
}
{
glyphname = Oslash;
layers = (
{
layerId = "EE2FFE84-06F1-4AFB-BBEC-60D09A436D14";
shapes = (
{
ref = O;
},
{
closed = 1;
nodes = (
(69,-16,l),
(107,-16,l),
(656,726,l),
(619,726,l)
);
}
);
width = 714;
},
{
layerId = "6C190511-B94A-4F5A-B519-D6E9DB0E7B93";
shapes = (
{
alignment = -1;
pos = (4,0);
ref = O;
},
{
closed = 1;
nodes = (
(49,-16,l),
(132,-16,l),
(681,726,l),
(599,726,l)
);
}
);
width = 751;
},
{
layerId = "3507EE3D-0D92-4546-A145-3A991F0A2B71";
shapes = (
{
alignment = -1;
ref = O;
},
{
closed = 1;
nodes = (
(48,-16,l),
(179,-16,l),
(736,726,l),
(605,726,l)
);
}
);
width = 789;
}
);
metricLeft = O;
metricRight = O;
unicode = 216;
}
{
glyphname = Thorn;
layers = (
{
background = {
shapes = (
{
closed = 1;
nodes = (
(102,710,l),
(70,710,l),
(70,0,l),
(102,0,l)
);
},
{
closed = 1;
nodes = (
(67,497,l),
(267,497,ls),
(374,497,o),
(427,454,o),
(427,368,cs),
(427,279,o),
(374,234,o),
(267,234,cs),
(67,234,l),
(67,148,l),
(267,148,ls),
(426,148,o),
(519,230,o),
(519,368,cs),
(519,503,o),
(426,583,o),
(267,583,cs),
(67,583,l)
);
}
);
};
layerId = "EE2FFE84-06F1-4AFB-BBEC-60D09A436D14";
shapes = (
{
closed = 1;
nodes = (
(293,168,ls),
(448,168,o),
(545,245,o),
(545,368,cs),
(545,488,o),
(448,563,o),
(293,563,cs),
(112,563,l),
(112,533,l),
(293,533,ls),
(427,533,o),
(511,469,o),
(511,368,cs),
(511,264,o),
(427,198,o),
(293,198,cs),
(112,198,l),
(112,168,l)
);
},
{
closed = 1;
nodes = (
(128,0,l),
(128,710,l),
(96,710,l),
(96,0,l)
);
}
);
width = 590;
},
{
layerId = "6C190511-B94A-4F5A-B519-D6E9DB0E7B93";
shapes = (
{
closed = 1;
nodes = (
(316,149,ls),
(475,149,o),
(568,231,o),
(568,368,cs),
(568,503,o),
(475,582,o),
(316,582,cs),
(117,582,l),
(117,498,l),
(316,498,ls),
(424,498,o),
(478,455,o),
(478,368,cs),
(478,279,o),
(424,233,o),
(316,233,cs),
(117,233,l),
(117,149,l)
);
},
{
closed = 1;
nodes = (
(178,0,l),
(178,710,l),
(92,710,l),
(92,0,l)
);
}
);
width = 619.96667;
},
{
layerId = "3507EE3D-0D92-4546-A145-3A991F0A2B71";
shapes = (
{
closed = 1;
nodes = (
(350,148,l),
(524,148,o),
(622,227,o),
(622,367,cs),
(622,504,o),
(524,583,o),
(350,583,c),
(128,583,l),
(128,425,l),
(343,425,l),
(395,425,o),
(421,405,o),
(421,366,cs),
(421,326,o),
(395,306,o),
(343,306,cs),
(128,306,l),
(128,148,l)
);
},
{
closed = 1;
nodes = (
(258,0,l),
(258,710,l),
(62,710,l),
(62,0,l)
);
}
);
width = 655;
}
);
metricLeft = H;
metricRight = P;
unicode = 222;
}
{
glyphname = germandbls;
layers = (
{
background = {
shapes = (
{
closed = 1;
nodes = (
(184,30,l),
(184,0,l),
(288,0,ls),
(430,0,o),
(530,85,o),
(530,206,cs),
(530,334,o),
(408,415,o),
(233,409,c),
(492,660,l),
(492,710,l),
(57,710,l),
(57,0,l),
(89,0,l),
(89,680,l),
(470,680,l),
(194,412,l),
(194,378,l),
(242,379,ls),
(391,382,o),
(496,311,o),
(496,206,cs),
(496,103,o),
(410,30,o),
(288,30,cs)
);
}
);
};
layerId = "EE2FFE84-06F1-4AFB-BBEC-60D09A436D14";
shapes = (
{
closed = 1;
nodes = (
(392,30,o),
(484,99,o),
(484,194,cs),
(484,294,o),
(394,362,o),
(266,359,cs),
(222,358,l),
(222,389,l),
(266,388,ls),
(369,386,o),
(442,449,o),
(442,541,cs),
(442,628,o),
(375,690,o),
(279,690,cs),
(184,690,o),
(117,612,o),
(117,502,cs),
(117,0,l),
(85,0,l),
(85,502,ls),
(85,631,o),
(165,722,o),
(279,722,cs),
(395,722,o),
(476,647,o),
(476,541,cs),
(476,445,o),
(403,373,o),
(298,367,c),
(297,384,l),
(427,376,o),
(518,297,o),
(518,194,cs),
(518,83,o),
(412,0,o),
(276,0,cs),
(212,0,l),
(212,30,l),
(276,30,ls)
);
}
);
width = 563;
},
{
layerId = "6C190511-B94A-4F5A-B519-D6E9DB0E7B93";
shapes = (
{
closed = 1;
nodes = (
(381,80,o),
(460,121,o),
(460,206,cs),
(460,298,o),
(380,340,o),
(286,338,cs),
(242,337,l),
(242,418,l),
(286,417,ls),
(370,415,o),
(418,472,o),
(418,541,cs),
(418,596,o),
(363,642,o),
(294,642,cs),
(218,642,o),
(164,595,o),
(164,502,cs),
(164,0,l),
(80,0,l),
(80,502,ls),
(80,642,o),
(172,722,o),
(294,722,cs),
(417,722,o),
(504,650,o),
(504,541,cs),
(504,454,o),
(447,382,o),
(347,376,c),
(346,393,l),
(460,386,o),
(548,312,o),
(548,199,cs),
(548,68,o),
(428,0,o),
(296,0,cs),
(232,0,l),
(232,80,l),
(296,80,ls)
);
}
);
width = 590.06667;
},
{
layerId = "3507EE3D-0D92-4546-A145-3A991F0A2B71";
shapes = (
{
closed = 1;
nodes = (
(432,156,o),
(477,177,o),
(477,222,cs),
(477,271,o),
(437,292,o),
(371,291,cs),
(320,290,l),
(320,441,l),
(357,440,ls),
(405,439,o),
(435,467,o),
(435,507,cs),
(435,541,o),
(403,566,o),
(359,566,cs),
(293,566,o),
(250,518,o),
(250,437,cs),
(250,0,l),
(56,0,l),
(56,437,ls),
(56,620,o),
(164,722,o),
(359,722,cs),
(520,722,o),
(631,644,o),
(631,519,cs),
(631,430,o),
(560,368,o),
(433,359,c),
(432,376,l),
(579,372,o),
(675,302,o),
(675,194,cs),
(675,33,o),
(506,0,o),
(374,0,cs),
(310,0,l),
(310,156,l),
(374,156,ls)
);
}
);
width = 703;
}
);
metricLeft = h;
metricRight = f;
unicode = 223;
}
{
glyphname = ae;
kernLeft = a;
kernRight = o;
layers = (
{
background = {
shapes = (
{
closed = 1;
nodes = (
(255,301,ls),
(138,280,o),
(55,253,o),
(55,141,cs),
(55,46,o),
(141,-10,o),
(246,-12,cs),
(352,-10,o),
(421,43,o),
(440,136,c),
(495,320,l),
(495,468,o),
(409,542,o),
(281,542,cs),
(159,542,o),
(66,459,o),
(60,339,c),
(32,376,l),
(172,366,l),
(153,338,l),
(154,407,o),
(206,460,o),
(281,460,cs),
(359,460,o),
(409,416,o),
(409,327,cs),
(409,303,l),
(430,333,l)
);
},
{
closed = 1;
nodes = (
(145,217,o),
(209,216,o),
(287,231,cs),
(425,257,l),
(411,274,l),
(411,219,ls),
(411,121,o),
(343,64,o),
(257,60,cs),
(180,56,o),
(145,100,o),
(145,141,cs)
);
},
{
closed = 1;
nodes = (
(756,-12,o),
(846,50,o),
(877,150,c),
(785,157,l),
(761,102,o),
(710,70,o),
(654,70,cs),
(564,70,o),
(510,132,o),
(502,238,c),
(885,238,l),
(885,275,l),
(884,277,l),
(875,467,o),
(770,542,o),
(654,542,cs),
(507,542,o),
(411,434,o),
(411,265,cs),
(411,96,o),
(507,-12,o),
(654,-12,cs)
);
},
{
closed = 1;
nodes = (
(518,406,o),
(571,460,o),
(654,460,cs),
(717,460,o),
(776,424,o),
(791,314,c),
(504,314,l)
);
}
);
};
layerId = "EE2FFE84-06F1-4AFB-BBEC-60D09A436D14";
shapes = (
{
closed = 1;
nodes = (
(337,-10,o),
(438,62,o),
(444,192,c),
(450,320,l),
(450,468,o),
(386,542,o),
(258,542,cs),
(148,542,o),
(76,474,o),
(59,373,c),
(95,370,l),
(107,459,o),
(167,512,o),
(258,512,cs),
(363,512,o),
(422,446,o),
(422,315,c),
(232,280,ls),
(139,263,o),
(50,226,o),
(50,131,cs),
(50,48,o),
(116,-10,o),
(223,-12,cs)
);
},
{
closed = 1;
nodes = (
(141,13,o),
(82,60,o),
(82,131,cs),
(82,219,o),
(177,241,o),
(264,257,cs),
(424,287,l),
(424,219,ls),
(424,108,o),
(347,23,o),
(234,18,cs)
);
},
{
alignment = -1;
pos = (384,0);
ref = e;
}
);
width = 934;
},
{
associatedMasterId = "EE2FFE84-06F1-4AFB-BBEC-60D09A436D14";
background = {
shapes = (
{
closed = 1;
nodes = (
(250,301,ls),
(133,280,o),
(50,253,o),
(50,141,cs),
(50,46,o),
(136,-10,o),
(241,-12,cs),
(347,-10,o),
(416,43,o),
(435,136,c),
(490,320,l),
(490,468,o),
(404,542,o),
(276,542,cs),
(154,542,o),
(61,459,o),
(55,339,c),
(27,376,l),
(167,366,l),
(148,338,l),
(149,407,o),
(201,460,o),
(276,460,cs),
(354,460,o),
(404,416,o),
(404,327,cs),
(404,303,l),
(425,333,l)
);
},
{
closed = 1;
nodes = (
(140,217,o),
(204,216,o),
(282,231,cs),
(420,257,l),
(406,274,l),
(406,219,ls),
(406,121,o),
(338,64,o),
(252,60,cs),
(175,56,o),
(140,100,o),
(140,141,cs)
);
},
{
closed = 1;
nodes = (
(751,-12,o),
(841,50,o),
(872,150,c),
(780,157,l),
(756,102,o),
(705,70,o),
(649,70,cs),
(559,70,o),
(505,132,o),
(497,238,c),
(880,238,l),
(880,275,l),
(879,277,l),
(870,467,o),
(765,542,o),
(649,542,cs),
(502,542,o),
(406,434,o),
(406,265,cs),
(406,96,o),
(502,-12,o),
(649,-12,cs)
);
},
{
closed = 1;
nodes = (
(513,406,o),
(566,460,o),
(649,460,cs),
(712,460,o),
(771,424,o),
(786,314,c),
(499,314,l)
);
}
);
};
layerId = "E6022EAD-E776-496E-ABC3-4A5031DA1E76";
name = "30 de mar. de 23 10:45";
shapes = (
{
closed = 1;
nodes = (
(80,370,l),
(92,459,o),
(152,512,o),
(243,512,cs),
(348,512,o),
(407,446,o),
(407,327,cs),
(407,315,l),
(217,280,ls),
(124,263,o),
(35,226,o),
(35,131,cs),
(35,48,o),
(101,-10,o),
(208,-12,cs),
(322,-10,o),
(420,62,o),
(429,192,cs),
(435,320,l),
(435,468,o),
(371,542,o),
(243,542,cs),
(133,542,o),
(61,474,o),
(44,373,c)
);
},
{
closed = 1;
nodes = (
(67,219,o),
(162,241,o),
(249,257,cs),
(409,287,l),
(409,219,ls),
(409,108,o),
(332,23,o),
(219,18,cs),
(126,13,o),
(67,60,o),
(67,131,cs)
);
},
{
alignment = -1;
pos = (369,0);
ref = e;
}
);
width = 894;
},
{
background = {
shapes = (
{
ref = a;
}
);
};
layerId = "3507EE3D-0D92-4546-A145-3A991F0A2B71";
shapes = (
{
closed = 1;
nodes = (
(360,-13,o),
(440,35,o),
(472,144,c),
(572,306,l),
(579,463,o),
(484,542,o),
(308,542,cs),
(152,542,o),
(62,480,o),
(42,360,c),
(235,353,l),
(240,394,o),
(264,415,o),
(307,415,cs),
(352,415,o),
(375,386,o),
(375,329,c),
(213,296,ls),
(98,273,o),
(33,230,o),
(33,140,cs),
(33,47,o),
(128,-13,o),
(232,-13,cs)
);
},
{
closed = 1;
nodes = (
(253,90,o),
(232,116,o),
(232,143,cs),
(232,189,o),
(264,201,o),
(314,211,cs),
(379,224,l),
(379,192,l),
(377,126,o),
(344,92,o),
(297,91,cs)
);
},
{
alignment = -1;
pos = (351,0);
ref = e;
}
);
width = 988;
},
{
layerId = "6C190511-B94A-4F5A-B519-D6E9DB0E7B93";
shapes = (
{
closed = 1;
nodes = (
(352,-10,o),
(435,48,o),
(452,138,c),
(486,320,l),
(486,468,o),
(401,542,o),
(273,542,cs),
(163,542,o),
(77,475,o),
(56,374,c),
(147,367,l),
(160,422,o),
(208,462,o),
(273,462,cs),
(350,462,o),
(401,418,o),
(402,329,c),
(247,300,ls),
(130,278,o),
(47,252,o),
(47,141,cs),
(47,46,o),
(132,-10,o),
(238,-12,cs)
);
},
{
closed = 1;
nodes = (
(171,55,o),
(135,99,o),
(135,141,cs),
(135,217,o),
(200,217,o),
(279,232,cs),
(404,255,l),
(404,219,ls),
(404,121,o),
(335,63,o),
(249,59,cs)
);
},
{
alignment = -1;
pos = (365,0);
ref = e;
}
);
width = 932.06667;
}
);
metricLeft = a;
metricRight = e;
unicode = 230;
}
{
glyphname = eth;
layers = (
{
layerId = "EE2FFE84-06F1-4AFB-BBEC-60D09A436D14";
shapes = (
{
closed = 1;
nodes = (
(560,649,l),
(550,677,l),
(252,570,l),
(262,541,l)
);
},
{
ref = partialdiff;
}
);
width = 610;
},
{
layerId = "3507EE3D-0D92-4546-A145-3A991F0A2B71";
shapes = (
{
closed = 1;
nodes = (
(573,645,l),
(543,715,l),
(214,569,l),
(245,499,l)
);
},
{
alignment = -1;
ref = partialdiff;
}
);
width = 632.49296;
},
{
layerId = "6C190511-B94A-4F5A-B519-D6E9DB0E7B93";
shapes = (
{
closed = 1;
nodes = (
(544,634,l),
(521,696,l),
(223,589,l),
(246,526,l)
);
},
{
alignment = -1;
ref = partialdiff;
}
);
width = 595.5;
}
);
metricLeft = o;
metricRight = o;
unicode = 240;
}
{
glyphname = divide;
layers = (
{
anchors = (
{
name = top;
pos = (133,530);
}
);
guides = (
{
pos = (311,524);
},
{
pos = (311,33);
}
);
layerId = "EE2FFE84-06F1-4AFB-BBEC-60D09A436D14";
shapes = (
{
closed = 1;
nodes = (
(50,340,l),
(526,340,l),
(526,370,l),
(50,370,l)
);
},
{
pos = (217,523);
ref = period.ss08;
},
{
pos = (217,146);
ref = period.ss08;
}
);
width = 576;
},
{
anchors = (
{
name = top;
pos = (130,530);
}
);
layerId = "6C190511-B94A-4F5A-B519-D6E9DB0E7B93";
shapes = (
{
closed = 1;
nodes = (
(47,287,l),
(523,287,l),
(523,365,l),
(47,365,l)
);
},
{
alignment = -1;
pos = (187,466);
ref = period.ss08;
},
{
alignment = -1;
pos = (187,93);
ref = period.ss08;
}
);
width = 570.2;
},
{
anchors = (
{
name = top;
pos = (116,530);
}
);
layerId = "3507EE3D-0D92-4546-A145-3A991F0A2B71";
shapes = (
{
closed = 1;
nodes = (
(33,259,l),
(509,259,l),
(509,410,l),
(33,410,l)
);
},
{
alignment = -1;
pos = (152,480);
ref = period.ss08;
},
{
alignment = -1;
pos = (152,35);
ref = period.ss08;
}
);
width = 542;
}
);
metricLeft = o;
metricRight = o;
unicode = 247;
}
